SplineFontDB: 3.2
FontName: TICELarge
FullName: TI-84+CSE, TI-84+CE, and TI-83PCE Large OS Font
FamilyName: TICalc
Weight: Regular
Copyright: Copyright (c) 2017, jacob
UComments: "2017-8-17: Created with FontForge (http://fontforge.org)"
Version: 001.000
ItalicAngle: 0
UnderlinePosition: -8
UnderlineWidth: 68
Ascent: 56
Descent: 12
InvalidEm: 0
LayerCount: 2
Layer: 0 0 "Back" 1
Layer: 1 0 "Fore" 0
XUID: [1021 596 -1002753561 6907478]
StyleMap: 0x0000
FSType: 0
OS2Version: 0
OS2_WeightWidthSlopeOnly: 0
OS2_UseTypoMetrics: 1
CreationTime: 1502970029
ModificationTime: 1503300367
PfmFamily: 17
TTFWeight: 400
TTFWidth: 5
LineGap: 12
VLineGap: 12
OS2TypoAscent: 0
OS2TypoAOffset: 1
OS2TypoDescent: 0
OS2TypoDOffset: 1
OS2TypoLinegap: 12
OS2WinAscent: 0
OS2WinAOffset: 1
OS2WinDescent: 0
OS2WinDOffset: 1
HheadAscent: 0
HheadAOffset: 1
HheadDescent: 0
HheadDOffset: 1
OS2Vendor: 'PfEd'
Lookup: 4 0 0 "Glyph Composition" { "Glyph Composition"  } [' RQD' ('DFLT' <'dflt' > 'bugi' <'dflt' > 'cans' <'dflt' > 'grek' <'dflt' > 'latn' <'dflt' > 'math' <'dflt' > ) 'ccmp' ('DFLT' <'dflt' > 'bugi' <'dflt' > 'cans' <'dflt' > 'grek' <'dflt' > 'latn' <'dflt' > 'math' <'dflt' > ) ]
MarkAttachClasses: 1
DEI: 91125
LangName: 1033
Encoding: Custom
UnicodeInterp: none
NameList: TICE
DisplaySize: 17
AntiAlias: 1
FitToEm: 1
WinInfo: 0 32 9
BeginPrivate: 0
EndPrivate
Grid
44 168 m 0
 44 -88 l 1024
-128 40 m 0
 256 40 l 1024
  Named: "Mid"
-128 4 m 0
 256 4 l 1024
-128 8 m 0
 256 8 l 1024
-128 12 m 0
 256 12 l 1024
-128 16 m 0
 256 16 l 1024
-128 20 m 0
 256 20 l 1024
-128 24 m 0
 256 24 l 1024
-128 28 m 0
 256 28 l 1024
-128 32 m 0
 256 32 l 1024
-128 36 m 0
 256 36 l 1024
-128 40 m 0
 256 40 l 1024
-128 44 m 0
 256 44 l 1024
-128 48 m 0
 256 48 l 1024
-128 52 m 0
 256 52 l 1024
36 168 m 0
 36 -88 l 1024
32 168 m 0
 32 -88 l 1024
28 168 m 0
 28 -88 l 1024
24 168 m 0
 24 -88 l 1024
20 168 m 0
 20 -88 l 1024
16 168 m 0
 16 -88 l 1024
12 168 m 0
 12 -88 l 1024
8 168 m 0
 8 -88 l 1024
4 168 m 0

StartChar: LtokSep
Encoding: 0 8202 0
Width: 0
VWidth: 0
Flags: HMW
LayerCount: 2
Fore
SplineSet
0 59 m 3
 1 59 1 58 1 58 c 2
 1 -2 l 2
 1 -2 1 -3 0 -3 c 3
 -1 -3 -1 -2 -1 -2 c 2
 -1 58 l 2
 -1 58 -1 59 0 59 c 3
EndSplineSet
EndChar

StartChar: LrecurN
Encoding: 1 119951 1
AltUni2: 00f00e.ffffffff.0
Width: 48
VWidth: 0
Flags: HMW
LayerCount: 2
Fore
SplineSet
4 40 m 25
 12 40 l 25
 12 36 l 25
 20 36 l 25
 20 40 l 25
 36 40 l 25
 36 36 l 25
 40 36 l 25
 40 32 l 25
 44 32 l 25
 44 20 l 25
 40 20 l 25
 40 8 l 25
 36 8 l 25
 36 0 l 25
 28 0 l 25
 28 12 l 25
 32 12 l 25
 32 24 l 25
 36 24 l 25
 36 32 l 25
 20 32 l 25
 20 20 l 25
 16 20 l 25
 16 8 l 25
 12 8 l 25
 12 0 l 25
 4 0 l 25
 4 12 l 25
 8 12 l 25
 8 24 l 25
 12 24 l 25
 12 32 l 25
 4 32 l 25
 4 40 l 25
EndSplineSet
EndChar

StartChar: LrecurU
Encoding: 2 120322 2
AltUni2: 01d69e.ffffffff.0 01d5ce.ffffffff.0 01d566.ffffffff.0 000155.ffffffff.0
Width: 48
VWidth: 0
Flags: HMW
LayerCount: 2
Fore
SplineSet
4 36 m 25
 12 36 l 25
 12 12 l 25
 16 12 l 25
 16 8 l 25
 32 8 l 25
 32 12 l 25
 36 12 l 25
 36 36 l 25
 44 36 l 25
 44 0 l 25
 36 0 l 25
 36 4 l 25
 32 4 l 25
 32 0 l 25
 12 0 l 25
 12 4 l 25
 8 4 l 25
 8 8 l 25
 4 8 l 25
 4 36 l 25
EndSplineSet
EndChar

StartChar: LrecurV
Encoding: 3 120323 3
AltUni2: 01d69f.ffffffff.0 01d5cf.ffffffff.0 01d567.ffffffff.0 000156.ffffffff.0
Width: 48
VWidth: 0
Flags: HMW
LayerCount: 2
Fore
SplineSet
4 36 m 25
 12 36 l 25
 12 28 l 25
 16 28 l 25
 16 20 l 25
 20 20 l 25
 20 12 l 25
 28 12 l 25
 28 20 l 25
 32 20 l 25
 32 28 l 25
 36 28 l 25
 36 36 l 25
 44 36 l 25
 44 28 l 25
 40 28 l 25
 40 20 l 25
 36 20 l 25
 36 12 l 25
 32 12 l 25
 32 4 l 25
 28 4 l 25
 28 0 l 25
 20 0 l 25
 20 4 l 25
 16 4 l 1
 16 12 l 25
 12 12 l 25
 12 20 l 25
 8 20 l 25
 8 28 l 25
 4 28 l 25
 4 36 l 25
EndSplineSet
EndChar

StartChar: LrecurW
Encoding: 4 120324 4
AltUni2: 01d6a0.ffffffff.0 01d5d0.ffffffff.0 01d568.ffffffff.0 000157.ffffffff.0
Width: 48
VWidth: 0
Flags: HMW
LayerCount: 2
Fore
SplineSet
4 36 m 25
 12 36 l 25
 12 12 l 25
 16 12 l 25
 16 16 l 25
 20 16 l 25
 20 36 l 25
 28 36 l 25
 28 16 l 25
 32 16 l 25
 32 12 l 25
 36 12 l 25
 36 36 l 25
 44 36 l 25
 44 12 l 25
 40 12 l 25
 40 4 l 25
 36 4 l 25
 36 0 l 25
 32 0 l 25
 32 4 l 25
 28 4 l 25
 28 8 l 25
 20 8 l 25
 20 4 l 25
 16 4 l 25
 16 0 l 25
 12 0 l 25
 12 4 l 25
 8 4 l 25
 8 12 l 25
 4 12 l 25
 4 36 l 25
EndSplineSet
EndChar

StartChar: Lconvert
Encoding: 5 128898 5
AltUni2: 00f014.ffffffff.0
Width: 48
VWidth: 0
Flags: HMW
LayerCount: 2
Fore
SplineSet
12 52 m 25
 16 52 l 25
 16 48 l 25
 20 48 l 25
 20 44 l 25
 24 44 l 25
 24 40 l 25
 28 40 l 25
 28 36 l 25
 32 36 l 25
 32 32 l 25
 36 32 l 25
 36 24 l 25
 32 24 l 25
 32 20 l 25
 28 20 l 25
 28 16 l 25
 24 16 l 25
 24 12 l 25
 20 12 l 25
 20 8 l 25
 16 8 l 25
 16 4 l 25
 12 4 l 25
 12 52 l 25
EndSplineSet
EndChar

StartChar: LsqUp
Encoding: 6 11014 6
AltUni2: 01f83d.ffffffff.0 01f839.ffffffff.0 00f015.ffffffff.0
Width: 48
VWidth: 0
Flags: HMW
LayerCount: 2
Fore
SplineSet
4 40 m 25
 8 40 l 25
 8 44 l 25
 12 44 l 25
 12 48 l 25
 16 48 l 25
 16 52 l 25
 20 52 l 25
 20 56 l 25
 28 56 l 25
 28 52 l 25
 32 52 l 25
 32 48 l 25
 36 48 l 25
 36 44 l 25
 40 44 l 25
 40 40 l 25
 44 40 l 25
 44 32 l 25
 36 32 l 25
 36 16 l 25
 12 16 l 25
 12 32 l 25
 4 32 l 25
 4 40 l 25
EndSplineSet
EndChar

StartChar: LsqDown
Encoding: 7 11015 7
AltUni2: 01f83f.ffffffff.0 01f83b.ffffffff.0 00f016.ffffffff.0
Width: 48
VWidth: 0
Flags: HMW
LayerCount: 2
Fore
SplineSet
4 16 m 25
 4 24 l 25
 12 24 l 25
 12 40 l 25
 36 40 l 25
 36 24 l 25
 44 24 l 25
 44 16 l 25
 40 16 l 25
 40 12 l 25
 36 12 l 25
 36 8 l 25
 32 8 l 25
 32 4 l 25
 28 4 l 25
 28 0 l 25
 20 0 l 25
 20 4 l 25
 16 4 l 25
 16 8 l 25
 12 8 l 25
 12 12 l 25
 8 12 l 25
 8 16 l 25
 4 16 l 25
EndSplineSet
EndChar

StartChar: Lintegral
Encoding: 8 8747 8
Width: 48
VWidth: 0
Flags: HMW
LayerCount: 2
Fore
SplineSet
20 48 m 25
 24 48 l 25
 24 52 l 25
 28 52 l 25
 28 56 l 25
 36 56 l 25
 36 52 l 25
 40 52 l 25
 40 44 l 25
 32 44 l 25
 32 48 l 25
 28 48 l 1
 28 8 l 25
 24 8 l 25
 24 4 l 25
 20 4 l 25
 20 0 l 25
 12 0 l 25
 12 4 l 25
 8 4 l 25
 8 12 l 25
 16 12 l 25
 16 8 l 25
 20 8 l 25
 20 48 l 25
EndSplineSet
EndChar

StartChar: Lcross
Encoding: 9 215 9
Width: 48
VWidth: 0
Flags: HMW
LayerCount: 2
Fore
SplineSet
4 48 m 25
 8 48 l 25
 8 44 l 25
 12 44 l 25
 12 40 l 25
 16 40 l 25
 16 36 l 25
 20 36 l 25
 20 32 l 25
 28 32 l 25
 28 36 l 25
 32 36 l 25
 32 40 l 25
 36 40 l 25
 36 44 l 25
 40 44 l 25
 40 48 l 25
 44 48 l 25
 44 36 l 25
 40 36 l 25
 40 32 l 25
 36 32 l 25
 36 28 l 25
 32 28 l 25
 32 24 l 25
 36 24 l 25
 36 20 l 25
 40 20 l 25
 40 16 l 25
 44 16 l 25
 44 12 l 25
 44 4 l 25
 40 4 l 25
 40 8 l 25
 36 8 l 25
 36 12 l 25
 32 12 l 25
 32 16 l 25
 28 16 l 25
 28 20 l 25
 20 20 l 25
 20 16 l 25
 16 16 l 25
 16 12 l 25
 12 12 l 25
 12 8 l 25
 8 8 l 25
 8 4 l 25
 4 4 l 25
 4 16 l 1
 8 16 l 25
 8 20 l 25
 12 20 l 25
 12 24 l 25
 16 24 l 25
 16 28 l 25
 12 28 l 25
 12 32 l 25
 8 32 l 25
 8 36 l 25
 4 36 l 25
 4 48 l 25
EndSplineSet
EndChar

StartChar: LboxIcon
Encoding: 10 9643 10
Width: 48
VWidth: 0
Flags: HMW
LayerCount: 2
Fore
SplineSet
16 28 m 25
 16 12 l 25
 32 12 l 25
 32 28 l 25
 16 28 l 25
8 36 m 25
 40 36 l 25
 40 4 l 25
 8 4 l 25
 8 36 l 25
EndSplineSet
EndChar

StartChar: LcrossIcon
Encoding: 11 8330 11
AltUni2: 00207a.ffffffff.0
Width: 48
VWidth: 0
Flags: HMW
LayerCount: 2
Fore
SplineSet
8 24 m 25
 20 24 l 25
 20 36 l 25
 28 36 l 25
 28 24 l 25
 40 24 l 25
 40 16 l 25
 28 16 l 25
 28 4 l 25
 20 4 l 25
 20 16 l 25
 8 16 l 25
 8 24 l 25
EndSplineSet
EndChar

StartChar: LdotIcon
Encoding: 12 9642 12
AltUni2: 002022.ffffffff.0
Width: 48
VWidth: 0
Flags: HMW
LayerCount: 2
Fore
SplineSet
16 28 m 25
 32 28 l 25
 32 12 l 25
 16 12 l 25
 16 28 l 25
EndSplineSet
EndChar

StartChar: LsubT
Encoding: 13 7451 13
AltUni2: 00f038.ffffffff.0
Width: 48
VWidth: 0
Flags: HMW
LayerCount: 2
Fore
SplineSet
4 36 m 25
 28 36 l 25
 28 28 l 25
 20 28 l 25
 20 4 l 25
 12 4 l 25
 12 28 l 25
 4 28 l 25
 4 36 l 25
EndSplineSet
EndChar

StartChar: LcubeR
Encoding: 14 7583 14
AltUni2: 00f00c.ffffffff.0
Width: 48
VWidth: 0
Flags: HMW
LayerCount: 2
Fore
SplineSet
20 56 m 25
 36 56 l 25
 36 52 l 25
 40 52 l 25
 40 48 l 25
 44 48 l 25
 44 40 l 25
 40 40 l 25
 40 32 l 25
 44 32 l 25
 44 24 l 25
 40 24 l 25
 40 20 l 25
 36 20 l 25
 36 16 l 1
 20 16 l 25
 20 24 l 1
 36 24 l 1
 36 32 l 1
 28 32 l 1
 28 40 l 25
 36 40 l 25
 36 48 l 25
 20 48 l 25
 20 56 l 25
EndSplineSet
EndChar

StartChar: LhexF
Encoding: 15 120281 15
AltUni2: 00f02e.ffffffff.0 00f01c.ffffffff.0
Width: 48
VWidth: 0
Flags: HMW
LayerCount: 2
Fore
SplineSet
4 56 m 25
 44 56 l 25
 44 48 l 25
 20 48 l 25
 20 32 l 25
 36 32 l 25
 36 24 l 25
 20 24 l 25
 20 0 l 25
 4 0 l 25
 4 56 l 25
EndSplineSet
EndChar

StartChar: Lroot
Encoding: 16 8730 16
Width: 48
VWidth: 0
Flags: HMW
LayerCount: 2
Fore
SplineSet
4 28 m 25
 8 28 l 25
 8 24 l 25
 12 24 l 25
 12 20 l 25
 16 20 l 25
 16 16 l 25
 20 16 l 25
 20 56 l 25
 44 56 l 25
 44 48 l 25
 28 48 l 25
 28 0 l 25
 20 0 l 25
 20 4 l 25
 16 4 l 25
 16 8 l 25
 12 8 l 25
 12 12 l 25
 8 12 l 25
 8 16 l 25
 4 16 l 25
 4 28 l 25
EndSplineSet
EndChar

StartChar: Linverse
Encoding: 17 61445 17
Width: 48
VWidth: 0
Flags: HMW
LayerCount: 2
Fore
SplineSet
4 40 m 25
 20 40 l 25
 20 32 l 25
 4 32 l 25
 4 40 l 25
20 48 m 25
 24 48 l 25
 24 52 l 25
 28 52 l 25
 28 56 l 1
 36 56 l 25
 36 28 l 1
 44 28 l 25
 44 20 l 25
 20 20 l 25
 20 28 l 25
 28 28 l 25
 28 44 l 25
 20 44 l 25
 20 48 l 25
EndSplineSet
Ligature2: "Glyph Composition" Lneg Lsup1
EndChar

StartChar: Lsquare
Encoding: 18 178 18
Width: 48
VWidth: 0
Flags: HMW
LayerCount: 2
Fore
SplineSet
16 56 m 1
 28 56 l 1
 28 52 l 25
 32 52 l 25
 32 48 l 25
 36 48 l 25
 36 40 l 25
 32 40 l 25
 32 36 l 25
 28 36 l 25
 28 32 l 25
 24 32 l 25
 24 28 l 25
 36 28 l 25
 36 20 l 25
 12 20 l 1
 12 28 l 25
 16 28 l 25
 16 32 l 25
 20 32 l 25
 20 36 l 25
 24 36 l 25
 24 40 l 25
 28 40 l 25
 28 48 l 25
 16 48 l 25
 16 44 l 25
 12 44 l 25
 12 52 l 25
 16 52 l 25
 16 56 l 1
EndSplineSet
EndChar

StartChar: Langle
Encoding: 19 8736 19
Width: 48
VWidth: 0
Flags: HMW
LayerCount: 2
Fore
SplineSet
4 0 m 25
 4 8 l 25
 8 8 l 25
 8 12 l 25
 12 12 l 25
 12 16 l 25
 16 16 l 25
 16 20 l 25
 20 20 l 25
 20 24 l 25
 24 24 l 25
 24 28 l 25
 28 28 l 25
 28 32 l 25
 32 32 l 25
 32 36 l 25
 36 36 l 25
 36 40 l 25
 40 40 l 25
 40 44 l 25
 44 44 l 25
 44 32 l 25
 40 32 l 25
 40 28 l 25
 36 28 l 25
 36 24 l 25
 32 24 l 25
 32 20 l 25
 28 20 l 25
 28 16 l 25
 24 16 l 25
 24 12 l 25
 20 12 l 25
 20 8 l 25
 44 8 l 25
 44 0 l 25
 4 0 l 25
EndSplineSet
EndChar

StartChar: Ldegree
Encoding: 20 176 20
Width: 48
VWidth: 0
Flags: HMW
LayerCount: 2
Fore
SplineSet
12 44 m 25
 12 36 l 25
 16 36 l 25
 16 32 l 25
 24 32 l 25
 24 36 l 25
 28 36 l 25
 28 44 l 25
 24 44 l 25
 24 48 l 25
 16 48 l 25
 16 44 l 25
 12 44 l 25
4 48 m 25
 8 48 l 25
 8 52 l 25
 12 52 l 25
 12 56 l 25
 28 56 l 25
 28 52 l 25
 32 52 l 25
 32 48 l 25
 36 48 l 25
 36 32 l 25
 32 32 l 25
 32 28 l 25
 28 28 l 25
 28 24 l 25
 12 24 l 25
 12 28 l 25
 8 28 l 25
 8 32 l 25
 4 32 l 25
 4 48 l 25
EndSplineSet
EndChar

StartChar: Lradian
Encoding: 21 691 21
AltUni2: 00f001.ffffffff.0
Width: 48
VWidth: 0
Flags: HMW
LayerCount: 2
Fore
SplineSet
8 56 m 25
 16 56 l 25
 16 52 l 25
 20 52 l 25
 20 56 l 25
 32 56 l 25
 32 52 l 25
 36 52 l 25
 36 44 l 25
 28 44 l 25
 28 48 l 25
 24 48 l 25
 24 44 l 25
 20 44 l 25
 20 40 l 25
 16 40 l 25
 16 24 l 25
 8 24 l 25
 8 56 l 25
EndSplineSet
EndChar

StartChar: Ltranspose
Encoding: 22 7488 22
AltUni2: 00f002.ffffffff.0
Width: 48
VWidth: 0
Flags: HMW
LayerCount: 2
Fore
SplineSet
12 56 m 25
 36 56 l 1
 36 48 l 1
 28 48 l 1
 28 16 l 25
 20 16 l 1
 20 48 l 25
 12 48 l 25
 12 56 l 25
EndSplineSet
EndChar

StartChar: LLE
Encoding: 23 8804 23
Width: 48
VWidth: 0
Flags: HMW
LayerCount: 2
Fore
SplineSet
4 8 m 25
 44 8 l 25
 44 0 l 25
 4 0 l 25
 4 8 l 25
4 40 m 25
 12 40 l 25
 12 44 l 25
 20 44 l 25
 20 48 l 25
 28 48 l 25
 28 52 l 25
 36 52 l 25
 36 56 l 25
 44 56 l 25
 44 48 l 1
 36 48 l 25
 36 44 l 1
 28 44 l 25
 28 40 l 25
 20 40 l 25
 20 36 l 25
 12 36 l 25
 12 32 l 25
 20 32 l 25
 20 28 l 25
 28 28 l 25
 28 24 l 25
 36 24 l 25
 36 20 l 25
 44 20 l 25
 44 12 l 25
 36 12 l 25
 36 16 l 1
 28 16 l 25
 28 20 l 1
 20 20 l 25
 20 24 l 25
 12 24 l 25
 12 28 l 25
 4 28 l 25
 4 40 l 25
EndSplineSet
EndChar

StartChar: LNE
Encoding: 24 8800 24
Width: 48
VWidth: 0
Flags: HMW
LayerCount: 2
Fore
SplineSet
4 40 m 25
 32 40 l 25
 32 44 l 25
 36 44 l 25
 36 48 l 25
 40 48 l 25
 40 52 l 25
 44 52 l 25
 44 44 l 25
 40 44 l 25
 40 40 l 1
 44 40 l 25
 44 32 l 1
 28 32 l 25
 28 28 l 1
 24 28 l 1
 24 24 l 1
 44 24 l 1
 44 16 l 25
 16 16 l 25
 16 12 l 25
 12 12 l 25
 12 8 l 25
 8 8 l 25
 8 4 l 25
 4 4 l 25
 4 12 l 25
 8 12 l 25
 8 16 l 25
 4 16 l 25
 4 24 l 1
 16 24 l 25
 16 28 l 25
 20 28 l 25
 20 32 l 25
 4 32 l 1
 4 40 l 25
EndSplineSet
EndChar

StartChar: LGE
Encoding: 25 8805 25
Width: 48
VWidth: 0
Flags: HMW
LayerCount: 2
Fore
SplineSet
44 8 m 25
 44 0 l 25
 4 0 l 25
 4 8 l 25
 44 8 l 25
44 40 m 25
 44 28 l 25
 36 28 l 25
 36 24 l 25
 28 24 l 25
 28 20 l 25
 20 20 l 1
 20 16 l 25
 12 16 l 1
 12 12 l 25
 4 12 l 25
 4 20 l 25
 12 20 l 25
 12 24 l 25
 20 24 l 25
 20 28 l 25
 28 28 l 25
 28 32 l 25
 36 32 l 25
 36 36 l 25
 28 36 l 25
 28 40 l 25
 20 40 l 25
 20 44 l 25
 12 44 l 1
 12 48 l 25
 4 48 l 1
 4 56 l 25
 12 56 l 25
 12 52 l 25
 20 52 l 25
 20 48 l 25
 28 48 l 25
 28 44 l 25
 36 44 l 25
 36 40 l 25
 44 40 l 25
EndSplineSet
EndChar

StartChar: Lneg
Encoding: 26 8315 26
AltUni2: 0000af.ffffffff.0
Width: 48
VWidth: 0
Flags: HMW
LayerCount: 2
Fore
SplineSet
20 40 m 25
 44 40 l 25
 44 32 l 25
 20 32 l 25
 20 40 l 25
EndSplineSet
EndChar

StartChar: Lexponent
Encoding: 27 7431 27
AltUni2: 00f000.ffffffff.0
Width: 48
VWidth: 0
Flags: HMW
LayerCount: 2
Fore
SplineSet
12 40 m 25
 44 40 l 25
 44 32 l 25
 20 32 l 25
 20 24 l 25
 36 24 l 25
 36 16 l 25
 20 16 l 25
 20 8 l 25
 44 8 l 25
 44 0 l 25
 12 0 l 25
 12 40 l 25
EndSplineSet
EndChar

StartChar: Lstore
Encoding: 28 8594 28
AltUni2: 01f882.ffffffff.0 01f872.ffffffff.0 01f862.ffffffff.0 01f852.ffffffff.0
Width: 48
VWidth: 0
Flags: HMW
LayerCount: 2
Fore
SplineSet
4 32 m 25
 28 32 l 25
 28 36 l 25
 24 36 l 25
 24 40 l 25
 20 40 l 25
 20 48 l 25
 28 48 l 25
 28 44 l 25
 32 44 l 25
 32 40 l 25
 36 40 l 25
 36 36 l 25
 40 36 l 25
 40 32 l 25
 44 32 l 25
 44 24 l 25
 40 24 l 25
 40 20 l 25
 36 20 l 25
 36 16 l 25
 32 16 l 25
 32 12 l 25
 28 12 l 25
 28 8 l 25
 20 8 l 25
 20 16 l 25
 24 16 l 25
 24 20 l 25
 28 20 l 25
 28 24 l 25
 4 24 l 25
 4 32 l 25
EndSplineSet
EndChar

StartChar: Lten
Encoding: 29 9192 29
AltUni2: 00f01d.ffffffff.0
Width: 48
VWidth: 0
Flags: HMW
LayerCount: 2
Fore
SplineSet
28 32 m 25
 28 8 l 25
 36 8 l 25
 36 32 l 25
 28 32 l 25
20 36 m 25
 24 36 l 25
 24 40 l 25
 40 40 l 25
 40 36 l 25
 44 36 l 25
 44 4 l 25
 40 4 l 25
 40 0 l 25
 24 0 l 25
 24 4 l 25
 20 4 l 25
 20 36 l 25
4 40 m 25
 12 40 l 25
 12 0 l 25
 4 0 l 25
 4 40 l 25
EndSplineSet
EndChar

StartChar: LupArrow
Encoding: 30 8593 30
Width: 48
VWidth: 0
Flags: HMW
LayerCount: 2
Fore
SplineSet
8 40 m 1
 8 44 l 25
 12 44 l 25
 12 48 l 25
 16 48 l 25
 16 52 l 25
 20 52 l 25
 20 56 l 25
 28 56 l 25
 28 52 l 25
 32 52 l 25
 32 48 l 25
 36 48 l 25
 36 44 l 25
 40 44 l 25
 40 40 l 25
 44 40 l 25
 44 32 l 25
 36 32 l 25
 36 36 l 25
 32 36 l 25
 32 40 l 25
 28 40 l 25
 28 0 l 25
 20 0 l 25
 20 40 l 25
 16 40 l 25
 16 36 l 25
 12 36 l 25
 12 32 l 25
 4 32 l 9
 4 40 l 25
 8 40 l 1
EndSplineSet
EndChar

StartChar: LdownArrow
Encoding: 31 8595 31
Width: 48
VWidth: 0
Flags: HMW
LayerCount: 2
Fore
SplineSet
4 16 m 25
 4 24 l 25
 12 24 l 25
 12 20 l 25
 16 20 l 25
 16 16 l 25
 20 16 l 25
 20 56 l 25
 28 56 l 25
 28 16 l 25
 32 16 l 25
 32 20 l 25
 36 20 l 25
 36 24 l 25
 44 24 l 25
 44 16 l 25
 40 16 l 25
 40 12 l 25
 36 12 l 25
 36 8 l 25
 32 8 l 25
 32 4 l 25
 28 4 l 25
 28 0 l 25
 20 0 l 25
 20 4 l 25
 16 4 l 25
 16 8 l 25
 12 8 l 25
 12 12 l 25
 8 12 l 25
 8 16 l 25
 4 16 l 25
EndSplineSet
EndChar

StartChar: Lexclam
Encoding: 33 33 33
Width: 48
VWidth: 0
Flags: HMW
LayerCount: 2
Fore
SplineSet
20 8 m 25
 28 8 l 25
 28 0 l 25
 20 0 l 25
 20 8 l 25
20 56 m 25
 28 56 l 25
 28 48 l 25
 32 48 l 25
 32 28 l 25
 28 28 l 25
 28 16 l 25
 20 16 l 25
 20 28 l 25
 16 28 l 25
 16 48 l 25
 20 48 l 25
 20 56 l 25
EndSplineSet
EndChar

StartChar: Lquote
Encoding: 34 34 34
Width: 48
VWidth: 0
Flags: HMW
LayerCount: 2
Fore
SplineSet
28 56 m 25
 36 56 l 25
 36 32 l 25
 28 32 l 25
 28 56 l 25
12 56 m 25
 20 56 l 25
 20 32 l 25
 12 32 l 25
 12 56 l 25
EndSplineSet
EndChar

StartChar: Lpound
Encoding: 35 35 35
Width: 48
VWidth: 0
Flags: HMW
LayerCount: 2
Fore
SplineSet
20 32 m 25
 20 24 l 25
 28 24 l 25
 28 32 l 25
 20 32 l 25
12 56 m 25
 20 56 l 25
 20 40 l 25
 28 40 l 25
 28 56 l 25
 36 56 l 25
 36 40 l 25
 44 40 l 25
 44 32 l 25
 36 32 l 25
 36 24 l 25
 44 24 l 25
 44 16 l 25
 36 16 l 25
 36 0 l 25
 28 0 l 25
 28 16 l 25
 20 16 l 25
 20 0 l 25
 12 0 l 25
 12 16 l 25
 4 16 l 25
 4 24 l 25
 12 24 l 25
 12 32 l 25
 4 32 l 25
 4 40 l 25
 12 40 l 25
 12 56 l 25
EndSplineSet
EndChar

StartChar: LdollarSign
Encoding: 36 36 36
Width: 48
VWidth: 0
Flags: HMW
LayerCount: 2
Fore
SplineSet
28 20 m 25
 28 12 l 25
 32 12 l 25
 32 20 l 25
 28 20 l 25
16 44 m 25
 16 36 l 25
 20 36 l 25
 20 44 l 25
 16 44 l 25
20 56 m 25
 28 56 l 25
 28 48 l 25
 36 48 l 25
 36 44 l 25
 40 44 l 25
 40 36 l 25
 32 36 l 25
 32 44 l 25
 28 44 l 25
 28 28 l 25
 32 28 l 25
 32 24 l 25
 40 24 l 25
 40 12 l 25
 36 12 l 25
 36 8 l 25
 28 8 l 25
 28 0 l 25
 20 0 l 25
 20 8 l 25
 12 8 l 25
 12 12 l 25
 8 12 l 25
 8 20 l 25
 16 20 l 25
 16 12 l 25
 20 12 l 25
 20 28 l 25
 16 28 l 25
 16 32 l 25
 8 32 l 25
 8 44 l 25
 12 44 l 25
 12 48 l 25
 20 48 l 25
 20 56 l 25
EndSplineSet
EndChar

StartChar: Lpercent
Encoding: 37 37 37
Width: 48
VWidth: 0
Flags: HMW
LayerCount: 2
Fore
SplineSet
40 52 m 1
 44 52 l 1
 44 40 l 1
 40 40 l 1
 40 36 l 1
 36 36 l 1
 36 32 l 1
 32 32 l 1
 32 28 l 1
 28 28 l 1
 28 24 l 1
 24 24 l 1
 24 20 l 1
 20 20 l 1
 20 16 l 1
 16 16 l 1
 16 12 l 1
 12 12 l 1
 12 8 l 1
 8 8 l 1
 8 4 l 1
 4 4 l 1
 4 16 l 1
 8 16 l 1
 8 20 l 1
 12 20 l 1
 12 24 l 1
 16 24 l 1
 16 28 l 1
 20 28 l 1
 20 32 l 1
 24 32 l 1
 24 36 l 1
 28 36 l 1
 28 40 l 1
 32 40 l 1
 32 44 l 1
 36 44 l 1
 36 48 l 1
 40 48 l 1
 40 52 l 1
8 56 m 1
 16 56 l 1
 16 52 l 1
 20 52 l 1
 20 44 l 1
 16 44 l 1
 16 40 l 1
 8 40 l 1
 8 44 l 1
 4 44 l 1
 4 52 l 1
 8 52 l 1
 8 56 l 1
32 16 m 1
 40 16 l 1
 40 12 l 1
 44 12 l 1
 44 4 l 1
 40 4 l 1
 40 0 l 1
 32 0 l 1
 32 4 l 1
 28 4 l 1
 28 12 l 1
 32 12 l 1
 32 16 l 1
16 52 m 1
 8 52 l 1
 8 44 l 1
 16 44 l 1
 16 52 l 1
40 12 m 1
 32 12 l 1
 32 4 l 1
 40 4 l 1
 40 12 l 1
EndSplineSet
EndChar

StartChar: Lampersand
Encoding: 38 38 38
Width: 48
VWidth: 0
Flags: HMW
LayerCount: 2
Fore
SplineSet
12 20 m 25
 12 8 l 25
 16 8 l 25
 16 4 l 25
 20 4 l 25
 20 8 l 25
 24 8 l 25
 24 12 l 25
 20 12 l 25
 20 20 l 25
 12 20 l 25
20 48 m 25
 20 44 l 25
 16 44 l 25
 16 32 l 25
 20 32 l 25
 20 36 l 25
 24 36 l 25
 24 48 l 25
 20 48 l 25
16 52 m 25
 28 52 l 25
 28 48 l 25
 32 48 l 25
 32 36 l 25
 28 36 l 25
 28 32 l 25
 24 32 l 25
 24 20 l 25
 28 20 l 25
 28 16 l 25
 32 16 l 25
 32 20 l 25
 40 20 l 25
 40 16 l 25
 36 16 l 25
 36 12 l 25
 32 12 l 25
 32 8 l 25
 36 8 l 25
 36 4 l 25
 40 4 l 25
 40 0 l 25
 32 0 l 25
 32 4 l 25
 24 4 l 25
 24 0 l 25
 8 0 l 25
 8 4 l 25
 4 4 l 25
 4 24 l 25
 8 24 l 25
 8 28 l 25
 12 28 l 25
 12 32 l 25
 8 32 l 25
 8 44 l 25
 12 44 l 25
 12 48 l 25
 16 48 l 25
 16 52 l 25
EndSplineSet
EndChar

StartChar: Lapostrophe
Encoding: 39 39 39
Width: 48
VWidth: 0
Flags: HMW
LayerCount: 2
Fore
SplineSet
20 56 m 25
 28 56 l 25
 28 32 l 25
 20 32 l 25
 20 56 l 25
EndSplineSet
EndChar

StartChar: LlParen
Encoding: 40 40 40
Width: 48
VWidth: 0
Flags: HMW
LayerCount: 2
Fore
SplineSet
24 56 m 25
 36 56 l 25
 36 52 l 25
 28 52 l 25
 28 44 l 25
 24 44 l 25
 24 12 l 25
 28 12 l 25
 28 4 l 25
 36 4 l 25
 36 0 l 25
 24 0 l 25
 24 4 l 25
 20 4 l 25
 20 8 l 25
 16 8 l 25
 16 16 l 25
 12 16 l 25
 12 40 l 25
 16 40 l 25
 16 48 l 25
 20 48 l 25
 20 52 l 25
 24 52 l 25
 24 56 l 25
EndSplineSet
EndChar

StartChar: LrParen
Encoding: 41 41 41
Width: 48
VWidth: 0
Flags: HMW
LayerCount: 2
Fore
SplineSet
24 56 m 25
 24 52 l 25
 28 52 l 25
 28 48 l 25
 32 48 l 25
 32 40 l 25
 36 40 l 25
 36 16 l 25
 32 16 l 25
 32 8 l 25
 28 8 l 25
 28 4 l 25
 24 4 l 25
 24 0 l 25
 12 0 l 25
 12 4 l 25
 20 4 l 25
 20 12 l 25
 24 12 l 25
 24 44 l 25
 20 44 l 25
 20 52 l 25
 12 52 l 25
 12 56 l 25
 24 56 l 25
EndSplineSet
EndChar

StartChar: Lasterisk
Encoding: 42 8727 42
AltUni2: 00002a.ffffffff.0
Width: 48
VWidth: 0
Flags: HMW
LayerCount: 2
Fore
SplineSet
8 44 m 25
 16 44 l 25
 16 36 l 25
 20 36 l 25
 20 44 l 25
 28 44 l 25
 28 36 l 25
 32 36 l 25
 32 44 l 25
 40 44 l 25
 40 36 l 25
 36 36 l 25
 36 32 l 25
 32 32 l 25
 32 28 l 25
 40 28 l 25
 40 24 l 25
 32 24 l 25
 32 20 l 25
 36 20 l 25
 36 16 l 25
 40 16 l 25
 40 8 l 25
 32 8 l 25
 32 16 l 25
 28 16 l 25
 28 8 l 25
 20 8 l 25
 20 16 l 25
 16 16 l 25
 16 8 l 25
 8 8 l 25
 8 16 l 25
 12 16 l 25
 12 20 l 25
 16 20 l 25
 16 24 l 25
 8 24 l 25
 8 28 l 25
 16 28 l 25
 16 32 l 25
 12 32 l 25
 12 36 l 25
 8 36 l 25
 8 44 l 25
EndSplineSet
EndChar

StartChar: LplusSign
Encoding: 43 43 43
Width: 48
VWidth: 0
Flags: HMW
LayerCount: 2
Fore
SplineSet
20 48 m 25
 28 48 l 25
 28 32 l 25
 44 32 l 25
 44 24 l 25
 28 24 l 25
 28 8 l 25
 20 8 l 25
 20 24 l 25
 4 24 l 25
 4 32 l 25
 20 32 l 25
 20 48 l 25
EndSplineSet
EndChar

StartChar: Lcomma
Encoding: 44 44 44
Width: 48
VWidth: 0
Flags: HMW
LayerCount: 2
Fore
SplineSet
16 20 m 25
 28 20 l 25
 28 4 l 25
 24 4 l 25
 24 0 l 25
 16 0 l 25
 16 4 l 25
 20 4 l 25
 20 8 l 25
 16 8 l 25
 16 20 l 25
EndSplineSet
EndChar

StartChar: Ldash
Encoding: 45 8722 45
AltUni2: 002015.ffffffff.0 002014.ffffffff.0 00002d.ffffffff.0
Width: 48
VWidth: 0
Flags: HMW
LayerCount: 2
Fore
SplineSet
4 32 m 25
 44 32 l 25
 44 24 l 25
 4 24 l 25
 4 32 l 25
EndSplineSet
EndChar

StartChar: Lperiod
Encoding: 46 46 46
Width: 48
VWidth: 0
Flags: HMW
LayerCount: 2
Fore
SplineSet
12 16 m 25
 28 16 l 25
 28 0 l 25
 12 0 l 25
 12 16 l 25
EndSplineSet
EndChar

StartChar: Lslash
Encoding: 47 47 47
Width: 48
VWidth: 0
Flags: HMW
LayerCount: 2
Fore
SplineSet
4 4 m 25
 4 12 l 1
 8 12 l 25
 8 16 l 25
 12 16 l 25
 12 20 l 25
 16 20 l 25
 16 24 l 25
 20 24 l 25
 20 28 l 25
 24 28 l 25
 24 32 l 25
 28 32 l 25
 28 36 l 25
 32 36 l 25
 32 40 l 25
 36 40 l 25
 36 44 l 25
 40 44 l 25
 40 48 l 25
 44 48 l 25
 44 36 l 25
 40 36 l 25
 40 32 l 25
 36 32 l 25
 36 28 l 25
 32 28 l 25
 32 24 l 25
 28 24 l 25
 28 20 l 25
 24 20 l 25
 24 16 l 25
 20 16 l 25
 20 12 l 25
 16 12 l 25
 16 8 l 25
 12 8 l 25
 12 4 l 25
 4 4 l 25
EndSplineSet
EndChar

StartChar: L0
Encoding: 48 48 48
Width: 48
VWidth: 0
Flags: HMW
LayerCount: 2
Fore
SplineSet
20 28 m 25
 24 28 l 25
 24 20 l 25
 20 20 l 25
 20 16 l 25
 16 16 l 25
 16 8 l 25
 32 8 l 25
 32 12 l 25
 36 12 l 25
 36 36 l 25
 32 36 l 25
 32 32 l 25
 28 32 l 25
 28 28 l 25
 24 28 l 25
 24 36 l 25
 28 36 l 25
 28 40 l 25
 32 40 l 25
 32 48 l 25
 16 48 l 25
 16 44 l 25
 12 44 l 25
 12 20 l 25
 16 20 l 25
 16 24 l 25
 20 24 l 25
 20 28 l 25
4 44 m 25
 8 44 l 25
 8 52 l 25
 16 52 l 25
 16 56 l 25
 32 56 l 25
 32 52 l 25
 40 52 l 25
 40 44 l 25
 44 44 l 25
 44 12 l 25
 40 12 l 25
 40 4 l 25
 32 4 l 25
 32 0 l 25
 16 0 l 25
 16 4 l 25
 8 4 l 25
 8 12 l 25
 4 12 l 25
 4 44 l 25
EndSplineSet
EndChar

StartChar: L1
Encoding: 49 49 49
Width: 48
VWidth: 0
Flags: HMW
LayerCount: 2
Fore
SplineSet
8 48 m 25
 16 48 l 25
 16 52 l 25
 20 52 l 25
 20 56 l 25
 28 56 l 25
 28 8 l 25
 40 8 l 25
 40 0 l 25
 8 0 l 25
 8 8 l 25
 20 8 l 25
 20 40 l 25
 8 40 l 25
 8 48 l 25
EndSplineSet
EndChar

StartChar: L2
Encoding: 50 50 50
Width: 48
VWidth: 0
Flags: HMW
LayerCount: 2
Fore
SplineSet
4 48 m 25
 8 48 l 25
 8 52 l 25
 12 52 l 25
 12 56 l 25
 36 56 l 25
 36 52 l 25
 40 52 l 25
 40 48 l 25
 44 48 l 25
 44 32 l 25
 40 32 l 25
 40 28 l 25
 36 28 l 25
 36 24 l 25
 32 24 l 25
 32 20 l 25
 28 20 l 25
 28 16 l 25
 24 16 l 25
 24 12 l 25
 20 12 l 25
 20 8 l 25
 44 8 l 25
 44 0 l 25
 4 0 l 25
 4 8 l 25
 8 8 l 25
 8 12 l 25
 12 12 l 25
 12 16 l 25
 16 16 l 25
 16 20 l 25
 20 20 l 25
 20 24 l 25
 24 24 l 25
 24 28 l 25
 28 28 l 25
 28 32 l 25
 32 32 l 25
 32 36 l 25
 36 36 l 25
 36 48 l 25
 12 48 l 25
 12 40 l 25
 4 40 l 25
 4 48 l 25
EndSplineSet
EndChar

StartChar: L3
Encoding: 51 51 51
Width: 48
VWidth: 0
Flags: HMW
LayerCount: 2
Fore
SplineSet
4 48 m 25
 8 48 l 25
 8 52 l 25
 12 52 l 25
 12 56 l 25
 36 56 l 25
 36 52 l 25
 40 52 l 25
 40 44 l 25
 44 44 l 25
 44 32 l 25
 40 32 l 25
 40 28 l 25
 36 28 l 25
 36 24 l 25
 40 24 l 25
 40 20 l 25
 44 20 l 25
 44 8 l 25
 40 8 l 25
 40 4 l 25
 36 4 l 25
 36 0 l 25
 12 0 l 25
 12 4 l 25
 8 4 l 25
 8 8 l 25
 4 8 l 25
 4 16 l 25
 12 16 l 25
 12 12 l 25
 16 12 l 25
 16 8 l 25
 32 8 l 25
 32 12 l 25
 36 12 l 25
 36 20 l 25
 32 20 l 25
 32 24 l 25
 16 24 l 25
 16 32 l 25
 32 32 l 25
 32 36 l 25
 36 36 l 25
 36 44 l 25
 32 44 l 25
 32 48 l 25
 16 48 l 25
 16 44 l 25
 12 44 l 25
 12 40 l 25
 4 40 l 25
 4 48 l 25
EndSplineSet
EndChar

StartChar: L4
Encoding: 52 52 52
Width: 48
VWidth: 0
Flags: HMW
LayerCount: 2
Fore
SplineSet
12 28 m 25
 12 24 l 25
 28 24 l 25
 28 40 l 25
 24 40 l 25
 24 36 l 25
 20 36 l 25
 20 32 l 25
 16 32 l 25
 16 28 l 25
 12 28 l 25
4 32 m 25
 8 32 l 25
 8 36 l 25
 12 36 l 25
 12 40 l 25
 16 40 l 25
 16 44 l 25
 20 44 l 25
 20 48 l 25
 24 48 l 25
 24 52 l 25
 28 52 l 25
 28 56 l 25
 36 56 l 25
 36 24 l 25
 44 24 l 25
 44 16 l 25
 36 16 l 25
 36 0 l 25
 28 0 l 25
 28 16 l 25
 4 16 l 25
 4 32 l 25
EndSplineSet
EndChar

StartChar: L5
Encoding: 53 53 53
Width: 48
VWidth: 0
Flags: HMW
LayerCount: 2
Fore
SplineSet
4 56 m 25
 44 56 l 25
 44 48 l 25
 12 48 l 25
 12 36 l 25
 36 36 l 25
 36 32 l 25
 40 32 l 25
 40 28 l 25
 44 28 l 25
 44 8 l 25
 40 8 l 25
 40 4 l 25
 36 4 l 25
 36 0 l 25
 12 0 l 25
 12 4 l 25
 8 4 l 25
 8 8 l 25
 4 8 l 25
 4 16 l 25
 12 16 l 25
 12 12 l 25
 16 12 l 25
 16 8 l 25
 32 8 l 25
 32 12 l 25
 36 12 l 25
 36 24 l 25
 32 24 l 25
 32 28 l 25
 8 28 l 25
 8 32 l 25
 4 32 l 25
 4 56 l 25
EndSplineSet
EndChar

StartChar: L6
Encoding: 54 54 54
Width: 48
VWidth: 0
Flags: HMW
LayerCount: 2
Fore
SplineSet
12 24 m 25
 12 12 l 25
 16 12 l 25
 16 8 l 25
 32 8 l 25
 32 12 l 25
 36 12 l 25
 36 20 l 25
 32 20 l 25
 32 24 l 25
 12 24 l 25
4 36 m 25
 8 36 l 25
 8 44 l 25
 12 44 l 25
 12 48 l 25
 16 48 l 25
 16 52 l 25
 20 52 l 25
 20 56 l 25
 36 56 l 25
 36 48 l 25
 24 48 l 25
 24 44 l 25
 20 44 l 25
 20 40 l 25
 16 40 l 25
 16 32 l 25
 36 32 l 25
 36 28 l 25
 40 28 l 25
 40 24 l 25
 44 24 l 25
 44 8 l 25
 40 8 l 25
 40 4 l 25
 36 4 l 25
 36 0 l 25
 12 0 l 25
 12 4 l 25
 8 4 l 25
 8 8 l 25
 4 8 l 25
 4 36 l 25
EndSplineSet
EndChar

StartChar: L7
Encoding: 55 55 55
Width: 48
VWidth: 0
Flags: HMW
LayerCount: 2
Fore
SplineSet
4 56 m 25
 44 56 l 25
 44 48 l 25
 40 48 l 25
 40 40 l 25
 36 40 l 25
 36 32 l 25
 32 32 l 25
 32 24 l 25
 28 24 l 25
 28 16 l 25
 24 16 l 25
 24 8 l 25
 20 8 l 25
 20 0 l 25
 12 0 l 25
 12 8 l 25
 16 8 l 25
 16 16 l 25
 20 16 l 25
 20 24 l 25
 24 24 l 25
 24 32 l 25
 28 32 l 25
 28 40 l 25
 32 40 l 25
 32 48 l 25
 4 48 l 25
 4 56 l 25
EndSplineSet
EndChar

StartChar: L8
Encoding: 56 56 56
Width: 48
VWidth: 0
Flags: HMW
LayerCount: 2
Fore
SplineSet
16 24 m 25
 16 20 l 25
 12 20 l 25
 12 12 l 25
 16 12 l 25
 16 8 l 25
 32 8 l 25
 32 12 l 25
 36 12 l 25
 36 20 l 25
 32 20 l 25
 32 24 l 25
 16 24 l 25
20 48 m 25
 20 44 l 25
 16 44 l 25
 16 36 l 25
 20 36 l 25
 20 32 l 25
 28 32 l 25
 28 36 l 25
 32 36 l 25
 32 44 l 25
 28 44 l 25
 28 48 l 25
 20 48 l 25
8 48 m 25
 12 48 l 25
 12 52 l 25
 16 52 l 25
 16 56 l 25
 32 56 l 25
 32 52 l 25
 36 52 l 25
 36 48 l 25
 40 48 l 25
 40 32 l 25
 36 32 l 25
 36 28 l 25
 40 28 l 25
 40 24 l 25
 44 24 l 25
 44 8 l 25
 40 8 l 25
 40 4 l 25
 36 4 l 25
 36 0 l 25
 12 0 l 25
 12 4 l 25
 8 4 l 25
 8 8 l 25
 4 8 l 25
 4 24 l 25
 8 24 l 25
 8 28 l 25
 12 28 l 25
 12 32 l 25
 8 32 l 25
 8 48 l 25
EndSplineSet
EndChar

StartChar: L9
Encoding: 57 57 57
Width: 48
VWidth: 0
Flags: HMW
LayerCount: 2
Fore
SplineSet
16 48 m 25
 16 44 l 25
 12 44 l 25
 12 36 l 25
 16 36 l 25
 16 32 l 25
 32 32 l 25
 32 36 l 25
 36 36 l 25
 36 44 l 25
 32 44 l 25
 32 48 l 25
 16 48 l 25
4 48 m 25
 8 48 l 25
 8 52 l 25
 12 52 l 25
 12 56 l 25
 36 56 l 25
 36 52 l 25
 40 52 l 25
 40 48 l 25
 44 48 l 25
 44 24 l 25
 40 24 l 25
 40 16 l 25
 36 16 l 25
 36 12 l 25
 32 12 l 25
 32 8 l 25
 28 8 l 25
 28 4 l 25
 24 4 l 25
 24 0 l 25
 12 0 l 25
 12 8 l 25
 20 8 l 25
 20 12 l 25
 24 12 l 25
 24 16 l 25
 28 16 l 25
 28 20 l 25
 32 20 l 25
 32 24 l 25
 12 24 l 25
 12 28 l 25
 8 28 l 25
 8 32 l 25
 4 32 l 25
 4 48 l 25
EndSplineSet
EndChar

StartChar: Lcolon
Encoding: 58 58 58
Width: 48
VWidth: 0
Flags: HMW
LayerCount: 2
Fore
SplineSet
16 20 m 25
 28 20 l 25
 28 8 l 25
 16 8 l 25
 16 20 l 25
16 44 m 25
 28 44 l 25
 28 32 l 25
 16 32 l 25
 16 44 l 25
EndSplineSet
EndChar

StartChar: Lsemicolon
Encoding: 59 59 59
Width: 48
VWidth: 0
Flags: HMW
LayerCount: 2
Fore
SplineSet
16 24 m 25
 28 24 l 25
 28 4 l 25
 24 4 l 25
 24 0 l 25
 16 0 l 25
 16 4 l 25
 20 4 l 25
 20 12 l 25
 16 12 l 25
 16 24 l 25
16 48 m 25
 28 48 l 25
 28 36 l 25
 16 36 l 25
 16 48 l 25
EndSplineSet
EndChar

StartChar: LLT
Encoding: 60 60 60
Width: 48
VWidth: 0
Flags: HMW
LayerCount: 2
Fore
SplineSet
4 32 m 25
 8 32 l 25
 8 36 l 25
 12 36 l 25
 12 40 l 25
 16 40 l 25
 16 44 l 25
 20 44 l 25
 20 48 l 25
 24 48 l 25
 24 52 l 25
 28 52 l 25
 28 56 l 25
 40 56 l 25
 40 52 l 25
 36 52 l 25
 36 48 l 25
 32 48 l 25
 32 44 l 25
 28 44 l 25
 28 40 l 25
 24 40 l 25
 24 36 l 25
 20 36 l 25
 20 32 l 25
 16 32 l 25
 16 24 l 25
 20 24 l 25
 20 20 l 25
 24 20 l 25
 24 16 l 25
 28 16 l 25
 28 12 l 25
 32 12 l 25
 32 8 l 25
 36 8 l 25
 36 4 l 25
 40 4 l 25
 40 0 l 25
 28 0 l 25
 28 4 l 25
 24 4 l 25
 24 8 l 25
 20 8 l 25
 20 12 l 25
 16 12 l 25
 16 16 l 25
 12 16 l 25
 12 20 l 25
 8 20 l 25
 8 24 l 25
 4 24 l 25
 4 32 l 25
EndSplineSet
EndChar

StartChar: LEQ
Encoding: 61 61 61
Width: 48
VWidth: 0
Flags: HMW
LayerCount: 2
Fore
SplineSet
4 24 m 25
 44 24 l 25
 44 16 l 25
 4 16 l 25
 4 24 l 25
4 40 m 25
 44 40 l 25
 44 32 l 25
 4 32 l 25
 4 40 l 25
EndSplineSet
EndChar

StartChar: LGT
Encoding: 62 62 62
Width: 48
VWidth: 0
Flags: HMW
LayerCount: 2
Fore
SplineSet
44 24 m 25
 40 24 l 25
 40 20 l 25
 36 20 l 25
 36 16 l 25
 32 16 l 25
 32 12 l 25
 28 12 l 25
 28 8 l 25
 24 8 l 25
 24 4 l 25
 20 4 l 25
 20 0 l 25
 8 0 l 25
 8 4 l 25
 12 4 l 25
 12 8 l 25
 16 8 l 25
 16 12 l 25
 20 12 l 25
 20 16 l 25
 24 16 l 25
 24 20 l 25
 28 20 l 25
 28 24 l 25
 32 24 l 25
 32 32 l 25
 28 32 l 25
 28 36 l 25
 24 36 l 25
 24 40 l 25
 20 40 l 25
 20 44 l 25
 16 44 l 25
 16 48 l 25
 12 48 l 25
 12 52 l 25
 8 52 l 25
 8 56 l 25
 20 56 l 25
 20 52 l 25
 24 52 l 25
 24 48 l 25
 28 48 l 25
 28 44 l 25
 32 44 l 25
 32 40 l 25
 36 40 l 25
 36 36 l 25
 40 36 l 25
 40 32 l 25
 44 32 l 25
 44 24 l 25
EndSplineSet
EndChar

StartChar: Lquestion
Encoding: 63 63 63
Width: 48
VWidth: 0
Flags: HMW
LayerCount: 2
Fore
SplineSet
20 8 m 25
 28 8 l 25
 28 0 l 25
 20 0 l 25
 20 8 l 25
4 48 m 25
 8 48 l 25
 8 52 l 25
 12 52 l 25
 12 56 l 25
 36 56 l 25
 36 52 l 25
 40 52 l 25
 40 48 l 25
 44 48 l 25
 44 36 l 25
 40 36 l 25
 40 32 l 25
 36 32 l 25
 36 28 l 25
 32 28 l 25
 32 24 l 25
 28 24 l 25
 28 12 l 25
 20 12 l 25
 20 28 l 25
 24 28 l 25
 24 32 l 25
 28 32 l 25
 28 36 l 25
 32 36 l 25
 32 40 l 25
 36 40 l 25
 36 44 l 25
 32 44 l 25
 32 48 l 25
 16 48 l 25
 16 44 l 25
 12 44 l 25
 12 36 l 25
 4 36 l 25
 4 48 l 25
EndSplineSet
EndChar

StartChar: LatSign
Encoding: 64 64 64
Width: 48
VWidth: 0
Flags: HMW
LayerCount: 2
Fore
SplineSet
20 36 m 25
 20 20 l 25
 28 20 l 25
 28 36 l 25
 20 36 l 25
4 44 m 25
 8 44 l 25
 8 52 l 25
 12 52 l 25
 12 56 l 25
 36 56 l 25
 36 48 l 25
 40 48 l 25
 40 44 l 25
 44 44 l 25
 44 20 l 25
 40 20 l 25
 40 16 l 25
 36 16 l 25
 36 12 l 25
 20 12 l 25
 20 16 l 25
 16 16 l 25
 16 40 l 25
 20 40 l 25
 20 44 l 25
 32 44 l 25
 32 20 l 25
 36 20 l 25
 36 44 l 25
 32 44 l 25
 32 48 l 25
 16 48 l 25
 16 44 l 25
 12 44 l 25
 12 12 l 25
 16 12 l 25
 16 8 l 25
 36 8 l 25
 36 0 l 25
 16 0 l 25
 16 4 l 25
 8 4 l 25
 8 8 l 25
 4 8 l 25
 4 44 l 25
EndSplineSet
EndChar

StartChar: LcapA
Encoding: 65 65 65
Width: 48
VWidth: 0
Flags: HMW
LayerCount: 2
Fore
SplineSet
12 48 m 25
 12 28 l 25
 36 28 l 25
 36 48 l 25
 12 48 l 25
4 48 m 25
 8 48 l 25
 8 52 l 25
 12 52 l 25
 12 56 l 25
 36 56 l 25
 36 52 l 25
 40 52 l 25
 40 48 l 25
 44 48 l 25
 44 0 l 25
 36 0 l 25
 36 20 l 25
 12 20 l 25
 12 0 l 25
 4 0 l 25
 4 48 l 25
EndSplineSet
EndChar

StartChar: LcapB
Encoding: 66 66 66
Width: 48
VWidth: 0
Flags: HMW
LayerCount: 2
Fore
SplineSet
12 24 m 25
 12 8 l 25
 32 8 l 25
 32 12 l 25
 36 12 l 25
 36 20 l 25
 32 20 l 25
 32 24 l 25
 12 24 l 25
12 48 m 25
 12 32 l 25
 28 32 l 25
 28 36 l 25
 32 36 l 25
 32 44 l 25
 28 44 l 25
 28 48 l 25
 12 48 l 25
4 56 m 1
 32 56 l 25
 32 52 l 25
 36 52 l 25
 36 48 l 25
 40 48 l 25
 40 32 l 25
 36 32 l 25
 36 28 l 25
 40 28 l 25
 40 24 l 25
 44 24 l 25
 44 8 l 25
 40 8 l 25
 40 4 l 25
 36 4 l 25
 36 0 l 25
 4 0 l 25
 4 56 l 1
EndSplineSet
EndChar

StartChar: LcapC
Encoding: 67 67 67
Width: 48
VWidth: 0
Flags: HMW
LayerCount: 2
Fore
SplineSet
4 40 m 25
 8 40 l 25
 8 48 l 25
 12 48 l 25
 12 52 l 25
 16 52 l 25
 16 56 l 25
 36 56 l 25
 36 52 l 25
 40 52 l 25
 40 48 l 25
 44 48 l 25
 44 40 l 25
 36 40 l 25
 36 44 l 25
 32 44 l 25
 32 48 l 25
 20 48 l 25
 20 44 l 25
 16 44 l 25
 16 40 l 25
 12 40 l 25
 12 16 l 25
 16 16 l 25
 16 12 l 25
 20 12 l 25
 20 8 l 25
 32 8 l 25
 32 12 l 25
 36 12 l 25
 36 16 l 25
 44 16 l 25
 44 8 l 25
 40 8 l 25
 40 4 l 25
 36 4 l 25
 36 0 l 25
 16 0 l 25
 16 4 l 25
 12 4 l 25
 12 8 l 25
 8 8 l 25
 8 16 l 25
 4 16 l 25
 4 40 l 25
EndSplineSet
EndChar

StartChar: LcapD
Encoding: 68 68 68
Width: 48
VWidth: 0
Flags: HMW
LayerCount: 2
Fore
SplineSet
12 48 m 25
 12 8 l 25
 28 8 l 25
 28 12 l 25
 32 12 l 25
 32 16 l 25
 36 16 l 25
 36 40 l 25
 32 40 l 25
 32 44 l 25
 28 44 l 25
 28 48 l 25
 12 48 l 25
4 56 m 25
 32 56 l 25
 32 52 l 25
 36 52 l 25
 36 48 l 25
 40 48 l 25
 40 40 l 25
 44 40 l 25
 44 16 l 25
 40 16 l 25
 40 8 l 25
 36 8 l 25
 36 4 l 25
 32 4 l 25
 32 0 l 25
 4 0 l 25
 4 56 l 25
EndSplineSet
EndChar

StartChar: LcapE
Encoding: 69 69 69
Width: 48
VWidth: 0
Flags: HMW
LayerCount: 2
Fore
SplineSet
4 56 m 25
 44 56 l 25
 44 48 l 25
 12 48 l 25
 12 32 l 25
 36 32 l 25
 36 24 l 25
 12 24 l 25
 12 8 l 25
 44 8 l 25
 44 0 l 25
 4 0 l 25
 4 56 l 25
EndSplineSet
EndChar

StartChar: LcapF
Encoding: 70 70 70
Width: 48
VWidth: 0
Flags: HMW
LayerCount: 2
Fore
SplineSet
4 56 m 25
 44 56 l 25
 44 48 l 25
 12 48 l 25
 12 32 l 25
 36 32 l 25
 36 24 l 25
 12 24 l 25
 12 0 l 25
 4 0 l 25
 4 56 l 25
EndSplineSet
EndChar

StartChar: LcapG
Encoding: 71 71 71
Width: 48
VWidth: 0
Flags: HMW
LayerCount: 2
Fore
SplineSet
8 48 m 25
 12 48 l 25
 12 52 l 25
 16 52 l 25
 16 56 l 25
 40 56 l 25
 40 52 l 25
 44 52 l 25
 44 44 l 25
 36 44 l 25
 36 48 l 25
 20 48 l 25
 20 44 l 25
 16 44 l 25
 16 40 l 25
 12 40 l 25
 12 16 l 25
 16 16 l 25
 16 12 l 25
 20 12 l 25
 20 8 l 25
 36 8 l 25
 36 24 l 25
 24 24 l 25
 24 32 l 25
 44 32 l 25
 44 0 l 25
 16 0 l 25
 16 4 l 25
 12 4 l 25
 12 8 l 25
 8 8 l 25
 8 16 l 25
 4 16 l 25
 4 40 l 25
 8 40 l 25
 8 48 l 25
EndSplineSet
EndChar

StartChar: LcapH
Encoding: 72 72 72
Width: 48
VWidth: 0
Flags: HMW
LayerCount: 2
Fore
SplineSet
4 56 m 25
 12 56 l 25
 12 32 l 25
 36 32 l 25
 36 56 l 25
 44 56 l 25
 44 0 l 25
 36 0 l 25
 36 24 l 25
 12 24 l 25
 12 0 l 25
 4 0 l 25
 4 56 l 25
EndSplineSet
EndChar

StartChar: LcapI
Encoding: 73 73 73
Width: 48
VWidth: 0
Flags: HMW
LayerCount: 2
Fore
SplineSet
12 56 m 25
 36 56 l 25
 36 48 l 25
 28 48 l 25
 28 8 l 25
 36 8 l 25
 36 0 l 25
 12 0 l 25
 12 8 l 25
 20 8 l 25
 20 48 l 25
 12 48 l 25
 12 56 l 25
EndSplineSet
EndChar

StartChar: LcapJ
Encoding: 74 74 74
Width: 48
VWidth: 0
Flags: HMW
LayerCount: 2
Fore
SplineSet
20 56 m 25
 44 56 l 25
 44 48 l 25
 36 48 l 25
 36 8 l 25
 32 8 l 25
 32 4 l 25
 28 4 l 25
 28 0 l 25
 12 0 l 25
 12 4 l 25
 8 4 l 25
 8 8 l 25
 4 8 l 25
 4 16 l 25
 12 16 l 25
 12 12 l 25
 16 12 l 25
 16 8 l 25
 24 8 l 25
 24 12 l 25
 28 12 l 25
 28 48 l 25
 20 48 l 25
 20 56 l 25
EndSplineSet
EndChar

StartChar: LcapK
Encoding: 75 75 75
Width: 48
VWidth: 0
Flags: HMW
LayerCount: 2
Fore
SplineSet
4 56 m 25
 12 56 l 25
 12 32 l 25
 16 32 l 25
 16 36 l 25
 20 36 l 25
 20 40 l 25
 24 40 l 25
 24 44 l 25
 28 44 l 25
 28 48 l 25
 32 48 l 25
 32 52 l 25
 36 52 l 25
 36 56 l 25
 44 56 l 25
 44 48 l 25
 40 48 l 25
 40 44 l 25
 36 44 l 25
 36 40 l 25
 32 40 l 25
 32 36 l 25
 28 36 l 25
 28 32 l 25
 24 32 l 25
 24 24 l 25
 28 24 l 25
 28 20 l 25
 32 20 l 25
 32 16 l 25
 36 16 l 25
 36 12 l 25
 40 12 l 25
 40 8 l 25
 44 8 l 25
 44 0 l 25
 36 0 l 25
 36 4 l 25
 32 4 l 25
 32 8 l 25
 28 8 l 25
 28 12 l 25
 24 12 l 25
 24 16 l 25
 20 16 l 25
 20 20 l 25
 16 20 l 25
 16 24 l 25
 12 24 l 25
 12 0 l 25
 4 0 l 25
 4 56 l 25
EndSplineSet
EndChar

StartChar: LcapL
Encoding: 76 76 76
Width: 48
VWidth: 0
Flags: HMW
LayerCount: 2
Fore
SplineSet
4 56 m 25
 12 56 l 25
 12 8 l 25
 44 8 l 25
 44 0 l 25
 4 0 l 25
 4 56 l 25
EndSplineSet
EndChar

StartChar: LcapM
Encoding: 77 77 77
Width: 48
VWidth: 0
Flags: HMW
LayerCount: 2
Fore
SplineSet
4 0 m 25
 4 56 l 25
 12 56 l 25
 12 52 l 25
 16 52 l 25
 16 44 l 25
 20 44 l 25
 20 36 l 25
 28 36 l 25
 28 44 l 25
 32 44 l 25
 32 52 l 25
 36 52 l 25
 36 56 l 25
 44 56 l 25
 44 0 l 25
 36 0 l 25
 36 36 l 25
 32 36 l 25
 32 28 l 25
 28 28 l 25
 28 20 l 25
 20 20 l 25
 20 28 l 25
 16 28 l 25
 16 36 l 25
 12 36 l 25
 12 0 l 25
 4 0 l 25
EndSplineSet
EndChar

StartChar: LcapN
Encoding: 78 78 78
Width: 48
VWidth: 0
Flags: HMW
LayerCount: 2
Fore
SplineSet
4 56 m 25
 12 56 l 25
 12 52 l 25
 16 52 l 25
 16 44 l 25
 20 44 l 25
 20 40 l 25
 24 40 l 25
 24 32 l 25
 28 32 l 25
 28 24 l 25
 32 24 l 25
 32 16 l 25
 36 16 l 25
 36 56 l 25
 44 56 l 25
 44 0 l 25
 36 0 l 25
 36 4 l 25
 32 4 l 25
 32 12 l 25
 28 12 l 25
 28 16 l 25
 24 16 l 25
 24 24 l 25
 20 24 l 25
 20 32 l 25
 16 32 l 25
 16 40 l 25
 12 40 l 25
 12 0 l 25
 4 0 l 25
 4 56 l 25
EndSplineSet
EndChar

StartChar: LcapO
Encoding: 79 79 79
Width: 48
VWidth: 0
Flags: HMW
LayerCount: 2
Fore
SplineSet
12 40 m 25
 12 16 l 25
 16 16 l 25
 16 12 l 25
 20 12 l 25
 20 8 l 25
 28 8 l 25
 28 12 l 25
 32 12 l 25
 32 16 l 25
 36 16 l 25
 36 40 l 25
 32 40 l 25
 32 44 l 25
 28 44 l 25
 28 48 l 25
 20 48 l 25
 20 44 l 25
 16 44 l 25
 16 40 l 25
 12 40 l 25
4 40 m 25
 8 40 l 25
 8 48 l 25
 12 48 l 25
 12 52 l 25
 16 52 l 25
 16 56 l 25
 32 56 l 25
 32 52 l 25
 36 52 l 25
 36 48 l 25
 40 48 l 25
 40 40 l 25
 44 40 l 25
 44 16 l 25
 40 16 l 25
 40 8 l 25
 36 8 l 25
 36 4 l 25
 32 4 l 25
 32 0 l 25
 16 0 l 25
 16 4 l 25
 12 4 l 25
 12 8 l 25
 8 8 l 25
 8 16 l 25
 4 16 l 25
 4 40 l 25
EndSplineSet
EndChar

StartChar: LcapP
Encoding: 80 80 80
Width: 48
VWidth: 0
Flags: HMW
LayerCount: 2
Fore
SplineSet
12 48 m 25
 12 28 l 25
 32 28 l 25
 32 32 l 25
 36 32 l 25
 36 44 l 25
 32 44 l 25
 32 48 l 25
 12 48 l 25
4 56 m 25
 36 56 l 25
 36 52 l 25
 40 52 l 25
 40 48 l 25
 44 48 l 25
 44 28 l 25
 40 28 l 25
 40 24 l 25
 36 24 l 25
 36 20 l 25
 12 20 l 25
 12 0 l 25
 4 0 l 25
 4 56 l 25
EndSplineSet
EndChar

StartChar: LcapQ
Encoding: 81 81 81
Width: 48
VWidth: 0
Flags: HMW
LayerCount: 2
Fore
SplineSet
12 40 m 25
 12 16 l 25
 16 16 l 25
 16 12 l 25
 20 12 l 25
 20 8 l 25
 28 8 l 25
 28 12 l 25
 24 12 l 25
 24 20 l 25
 32 20 l 25
 32 16 l 25
 36 16 l 25
 36 40 l 25
 32 40 l 25
 32 44 l 25
 28 44 l 25
 28 48 l 25
 20 48 l 25
 20 44 l 25
 16 44 l 25
 16 40 l 25
 12 40 l 25
4 40 m 25
 8 40 l 25
 8 48 l 25
 12 48 l 25
 12 52 l 25
 16 52 l 25
 16 56 l 25
 32 56 l 25
 32 52 l 25
 36 52 l 25
 36 48 l 25
 40 48 l 25
 40 40 l 25
 44 40 l 25
 44 16 l 25
 40 16 l 25
 40 8 l 25
 44 8 l 25
 44 0 l 25
 36 0 l 25
 36 4 l 25
 32 4 l 25
 32 0 l 25
 16 0 l 25
 16 4 l 25
 12 4 l 25
 12 8 l 25
 8 8 l 25
 8 16 l 25
 4 16 l 25
 4 40 l 25
EndSplineSet
EndChar

StartChar: LcapR
Encoding: 82 82 82
Width: 48
VWidth: 0
Flags: HMW
LayerCount: 2
Fore
SplineSet
12 48 m 25
 12 28 l 25
 32 28 l 25
 32 32 l 25
 36 32 l 25
 36 44 l 25
 32 44 l 25
 32 48 l 25
 12 48 l 25
4 56 m 25
 36 56 l 25
 36 52 l 25
 40 52 l 25
 40 48 l 25
 44 48 l 25
 44 28 l 25
 40 28 l 25
 40 24 l 25
 36 24 l 25
 36 20 l 25
 32 20 l 25
 32 16 l 25
 36 16 l 25
 36 12 l 25
 40 12 l 25
 40 8 l 25
 44 8 l 1
 44 0 l 25
 36 0 l 1
 36 4 l 25
 32 4 l 25
 32 8 l 25
 28 8 l 25
 28 12 l 25
 24 12 l 25
 24 16 l 25
 20 16 l 25
 20 20 l 25
 12 20 l 25
 12 0 l 25
 4 0 l 25
 4 56 l 25
EndSplineSet
EndChar

StartChar: LcapS
Encoding: 83 83 83
Width: 48
VWidth: 0
Flags: HMW
LayerCount: 2
Fore
SplineSet
4 48 m 25
 8 48 l 25
 8 52 l 25
 12 52 l 25
 12 56 l 25
 36 56 l 25
 36 52 l 25
 40 52 l 25
 40 48 l 25
 44 48 l 25
 44 40 l 25
 36 40 l 25
 36 44 l 25
 32 44 l 25
 32 48 l 25
 16 48 l 25
 16 44 l 25
 12 44 l 25
 12 36 l 25
 16 36 l 25
 16 32 l 25
 36 32 l 25
 36 28 l 25
 40 28 l 25
 40 24 l 25
 44 24 l 25
 44 8 l 25
 40 8 l 25
 40 4 l 25
 36 4 l 25
 36 0 l 25
 12 0 l 25
 12 4 l 25
 8 4 l 25
 8 8 l 25
 4 8 l 25
 4 16 l 25
 12 16 l 25
 12 12 l 25
 16 12 l 25
 16 8 l 25
 32 8 l 25
 32 12 l 25
 36 12 l 25
 36 20 l 25
 32 20 l 25
 32 24 l 25
 12 24 l 25
 12 28 l 25
 8 28 l 25
 8 32 l 25
 4 32 l 25
 4 48 l 25
EndSplineSet
EndChar

StartChar: LcapT
Encoding: 84 84 84
Width: 48
VWidth: 0
Flags: HMW
LayerCount: 2
Fore
SplineSet
4 56 m 25
 44 56 l 25
 44 48 l 25
 28 48 l 25
 28 0 l 25
 20 0 l 25
 20 48 l 25
 4 48 l 25
 4 56 l 25
EndSplineSet
EndChar

StartChar: LcapU
Encoding: 85 85 85
Width: 48
VWidth: 0
Flags: HMW
LayerCount: 2
Fore
SplineSet
4 56 m 25
 12 56 l 25
 12 12 l 25
 16 12 l 25
 16 8 l 25
 32 8 l 25
 32 12 l 25
 36 12 l 25
 36 56 l 25
 44 56 l 25
 44 8 l 25
 40 8 l 25
 40 4 l 25
 36 4 l 25
 36 0 l 25
 12 0 l 25
 12 4 l 25
 8 4 l 25
 8 8 l 25
 4 8 l 25
 4 56 l 25
EndSplineSet
EndChar

StartChar: LcapV
Encoding: 86 86 86
Width: 48
VWidth: 0
Flags: HMW
LayerCount: 2
Fore
SplineSet
4 56 m 25
 12 56 l 25
 12 44 l 25
 16 44 l 25
 16 32 l 25
 20 32 l 25
 20 20 l 25
 28 20 l 25
 28 32 l 25
 32 32 l 25
 32 44 l 25
 36 44 l 25
 36 56 l 25
 44 56 l 25
 44 44 l 25
 40 44 l 25
 40 32 l 25
 36 32 l 25
 36 20 l 25
 32 20 l 25
 32 8 l 25
 28 8 l 25
 28 0 l 25
 20 0 l 25
 20 8 l 25
 16 8 l 25
 16 20 l 25
 12 20 l 25
 12 32 l 25
 8 32 l 25
 8 44 l 25
 4 44 l 25
 4 56 l 25
EndSplineSet
EndChar

StartChar: LcapW
Encoding: 87 87 87
Width: 48
VWidth: 0
Flags: HMW
LayerCount: 2
Fore
SplineSet
4 56 m 25
 12 56 l 25
 12 16 l 25
 16 16 l 25
 16 20 l 25
 20 20 l 25
 20 28 l 25
 28 28 l 25
 28 20 l 25
 32 20 l 25
 32 16 l 25
 36 16 l 25
 36 56 l 25
 44 56 l 25
 44 0 l 25
 36 0 l 25
 36 4 l 25
 32 4 l 25
 32 12 l 25
 28 12 l 25
 28 16 l 25
 20 16 l 25
 20 12 l 25
 16 12 l 25
 16 4 l 25
 12 4 l 25
 12 0 l 25
 4 0 l 25
 4 56 l 25
EndSplineSet
EndChar

StartChar: LcapX
Encoding: 88 88 88
Width: 48
VWidth: 0
Flags: HMW
LayerCount: 2
Fore
SplineSet
4 56 m 25
 12 56 l 25
 12 48 l 25
 16 48 l 25
 16 40 l 25
 20 40 l 25
 20 36 l 25
 28 36 l 25
 28 40 l 25
 32 40 l 25
 32 48 l 25
 36 48 l 25
 36 56 l 25
 44 56 l 25
 44 48 l 25
 40 48 l 25
 40 40 l 25
 36 40 l 25
 36 36 l 25
 32 36 l 25
 32 32 l 25
 28 32 l 25
 28 24 l 25
 32 24 l 25
 32 20 l 25
 36 20 l 25
 36 16 l 25
 40 16 l 25
 40 8 l 25
 44 8 l 25
 44 0 l 25
 36 0 l 25
 36 8 l 25
 32 8 l 25
 32 16 l 25
 28 16 l 25
 28 20 l 25
 20 20 l 25
 20 16 l 25
 16 16 l 25
 16 8 l 25
 12 8 l 25
 12 0 l 25
 4 0 l 25
 4 8 l 25
 8 8 l 25
 8 16 l 25
 12 16 l 25
 12 20 l 25
 16 20 l 25
 16 24 l 25
 20 24 l 25
 20 32 l 25
 16 32 l 25
 16 36 l 25
 12 36 l 25
 12 40 l 25
 8 40 l 25
 8 48 l 25
 4 48 l 25
 4 56 l 25
EndSplineSet
EndChar

StartChar: LcapY
Encoding: 89 89 89
Width: 48
VWidth: 0
Flags: HMW
LayerCount: 2
Fore
SplineSet
4 56 m 25
 12 56 l 25
 12 48 l 25
 16 48 l 25
 16 40 l 25
 20 40 l 25
 20 32 l 25
 28 32 l 25
 28 40 l 25
 32 40 l 25
 32 48 l 25
 36 48 l 25
 36 56 l 25
 44 56 l 25
 44 48 l 25
 40 48 l 25
 40 40 l 25
 36 40 l 25
 36 32 l 25
 32 32 l 25
 32 24 l 25
 28 24 l 25
 28 0 l 25
 20 0 l 25
 20 24 l 25
 16 24 l 25
 16 32 l 25
 12 32 l 25
 12 40 l 25
 8 40 l 25
 8 48 l 25
 4 48 l 25
 4 56 l 25
EndSplineSet
EndChar

StartChar: LcapZ
Encoding: 90 90 90
Width: 48
VWidth: 0
Flags: HMW
LayerCount: 2
Fore
SplineSet
4 56 m 25
 44 56 l 25
 44 40 l 25
 40 40 l 25
 40 36 l 25
 36 36 l 25
 36 32 l 25
 32 32 l 25
 32 28 l 25
 28 28 l 25
 28 24 l 25
 24 24 l 25
 24 20 l 25
 20 20 l 25
 20 16 l 25
 16 16 l 25
 16 12 l 25
 12 12 l 25
 12 8 l 25
 44 8 l 25
 44 0 l 25
 4 0 l 25
 4 16 l 25
 8 16 l 25
 8 20 l 25
 12 20 l 25
 12 24 l 25
 16 24 l 25
 16 28 l 25
 20 28 l 25
 20 32 l 25
 24 32 l 25
 24 36 l 25
 28 36 l 25
 28 40 l 25
 32 40 l 25
 32 44 l 25
 36 44 l 25
 36 48 l 25
 4 48 l 25
 4 56 l 25
EndSplineSet
EndChar

StartChar: Ltheta
Encoding: 91 952 91
AltUni2: 00f039.ffffffff.0
Width: 48
VWidth: 0
Flags: HMW
LayerCount: 2
Fore
SplineSet
12 24 m 25
 12 16 l 25
 16 16 l 25
 16 12 l 25
 20 12 l 25
 20 8 l 25
 28 8 l 25
 28 12 l 25
 32 12 l 25
 32 16 l 25
 36 16 l 25
 36 20 l 25
 24 20 l 25
 24 24 l 25
 20 24 l 25
 20 28 l 25
 16 28 l 25
 16 24 l 25
 12 24 l 25
20 48 m 25
 20 44 l 25
 16 44 l 25
 16 40 l 25
 12 40 l 25
 12 32 l 25
 24 32 l 25
 24 28 l 25
 28 28 l 25
 28 24 l 25
 32 24 l 25
 32 28 l 25
 36 28 l 25
 36 40 l 25
 32 40 l 25
 32 44 l 25
 28 44 l 25
 28 48 l 25
 20 48 l 25
4 40 m 25
 8 40 l 25
 8 48 l 25
 12 48 l 25
 12 52 l 25
 16 52 l 25
 16 56 l 25
 32 56 l 25
 32 52 l 25
 36 52 l 25
 36 48 l 25
 40 48 l 25
 40 40 l 25
 44 40 l 25
 44 16 l 25
 40 16 l 25
 40 8 l 25
 36 8 l 25
 36 4 l 25
 32 4 l 25
 32 0 l 25
 16 0 l 25
 16 4 l 25
 12 4 l 25
 12 8 l 25
 8 8 l 25
 8 16 l 25
 4 16 l 25
 4 40 l 25
EndSplineSet
EndChar

StartChar: Lbackslash
Encoding: 92 92 92
Width: 48
VWidth: 0
Flags: HMW
LayerCount: 2
Fore
SplineSet
36 12 m 25
 32 12 l 25
 32 16 l 25
 28 16 l 25
 28 20 l 25
 24 20 l 25
 24 24 l 25
 20 24 l 25
 20 28 l 25
 16 28 l 25
 16 32 l 25
 12 32 l 25
 12 36 l 25
 8 36 l 25
 8 40 l 25
 4 40 l 25
 4 52 l 25
 8 52 l 25
 8 48 l 25
 12 48 l 25
 12 44 l 25
 16 44 l 25
 16 40 l 25
 20 40 l 25
 20 36 l 25
 24 36 l 25
 24 32 l 25
 28 32 l 25
 28 28 l 25
 32 28 l 25
 32 24 l 25
 36 24 l 25
 36 20 l 25
 40 20 l 25
 40 16 l 25
 44 16 l 9
 44 4 l 25
 40 4 l 25
 40 8 l 25
 36 8 l 25
 36 12 l 25
EndSplineSet
EndChar

StartChar: LrBrack
Encoding: 93 93 93
Width: 48
VWidth: 0
Flags: HMW
LayerCount: 2
Fore
SplineSet
12 56 m 25
 36 56 l 25
 36 0 l 25
 12 0 l 25
 12 8 l 25
 28 8 l 25
 28 48 l 25
 12 48 l 25
 12 56 l 25
EndSplineSet
EndChar

StartChar: Lcaret
Encoding: 94 94 94
Width: 48
VWidth: 0
Flags: HMW
LayerCount: 2
Fore
SplineSet
4 40 m 25
 8 40 l 25
 8 44 l 25
 12 44 l 25
 12 48 l 25
 16 48 l 25
 16 52 l 25
 20 52 l 25
 20 56 l 25
 28 56 l 25
 28 52 l 25
 32 52 l 25
 32 48 l 25
 36 48 l 25
 36 44 l 25
 40 44 l 25
 40 40 l 25
 44 40 l 25
 44 32 l 25
 36 32 l 25
 36 36 l 25
 32 36 l 25
 32 40 l 25
 28 40 l 25
 28 44 l 25
 20 44 l 25
 20 40 l 25
 16 40 l 25
 16 36 l 25
 12 36 l 25
 12 32 l 25
 4 32 l 25
 4 40 l 25
EndSplineSet
EndChar

StartChar: Lunderscore
Encoding: 95 95 95
Width: 48
VWidth: 0
Flags: HMW
LayerCount: 2
Fore
SplineSet
4 8 m 25
 44 8 l 25
 44 0 l 25
 4 0 l 25
 4 8 l 25
EndSplineSet
EndChar

StartChar: Lbackquote
Encoding: 96 8219 96
Width: 48
VWidth: 0
Flags: HMW
LayerCount: 2
Fore
SplineSet
20 56 m 25
 32 56 l 25
 32 44 l 25
 28 44 l 25
 28 36 l 25
 32 36 l 25
 32 32 l 25
 24 32 l 25
 24 36 l 25
 20 36 l 25
 20 56 l 25
EndSplineSet
EndChar

StartChar: La
Encoding: 97 97 97
Width: 48
VWidth: 0
Flags: HMW
LayerCount: 2
Fore
SplineSet
12 16 m 25
 12 8 l 25
 36 8 l 1
 36 16 l 1
 12 16 l 25
8 32 m 25
 8 36 l 25
 12 36 l 25
 12 40 l 25
 40 40 l 25
 40 36 l 25
 44 36 l 25
 44 0 l 1
 8 0 l 25
 8 4 l 25
 4 4 l 25
 4 16 l 25
 8 16 l 25
 8 20 l 25
 12 20 l 25
 12 24 l 25
 36 24 l 1
 36 32 l 25
 8 32 l 25
EndSplineSet
EndChar

StartChar: Lb
Encoding: 98 98 98
Width: 48
VWidth: 0
Flags: HMW
LayerCount: 2
Fore
SplineSet
12 24 m 25
 12 8 l 25
 32 8 l 25
 32 12 l 25
 36 12 l 25
 36 24 l 25
 32 24 l 25
 32 28 l 25
 16 28 l 25
 16 24 l 25
 12 24 l 25
4 56 m 25
 12 56 l 25
 12 32 l 25
 16 32 l 25
 16 36 l 25
 36 36 l 25
 36 32 l 25
 40 32 l 25
 40 28 l 25
 44 28 l 25
 44 8 l 25
 40 8 l 25
 40 4 l 25
 36 4 l 25
 36 0 l 25
 4 0 l 25
 4 56 l 25
EndSplineSet
EndChar

StartChar: Lc
Encoding: 99 99 99
Width: 48
VWidth: 0
Flags: HMW
LayerCount: 2
Fore
SplineSet
4 32 m 25
 8 32 l 25
 8 36 l 25
 12 36 l 25
 12 40 l 25
 36 40 l 25
 36 36 l 25
 40 36 l 25
 40 32 l 25
 44 32 l 25
 44 28 l 25
 36 28 l 25
 36 32 l 25
 16 32 l 25
 16 28 l 25
 12 28 l 25
 12 12 l 25
 16 12 l 25
 16 8 l 25
 36 8 l 25
 36 12 l 25
 44 12 l 25
 44 8 l 25
 40 8 l 25
 40 4 l 25
 36 4 l 25
 36 0 l 25
 12 0 l 25
 12 4 l 25
 8 4 l 25
 8 8 l 25
 4 8 l 25
 4 32 l 25
EndSplineSet
EndChar

StartChar: Ld
Encoding: 100 100 100
Width: 48
VWidth: 0
Flags: HMW
LayerCount: 2
Fore
SplineSet
12 12 m 25
 16 12 l 25
 16 8 l 25
 36 8 l 25
 36 24 l 25
 28 24 l 25
 28 28 l 25
 16 28 l 25
 16 24 l 25
 12 24 l 25
 12 12 l 25
12 0 m 25
 12 4 l 25
 8 4 l 25
 8 8 l 25
 4 8 l 25
 4 28 l 25
 8 28 l 25
 8 32 l 25
 12 32 l 25
 12 36 l 25
 32 36 l 25
 32 32 l 25
 36 32 l 25
 36 56 l 25
 44 56 l 25
 44 0 l 25
 12 0 l 25
EndSplineSet
EndChar

StartChar: Le
Encoding: 101 101 101
Width: 48
VWidth: 0
Flags: HMW
LayerCount: 2
Fore
SplineSet
16 32 m 25
 16 24 l 25
 36 24 l 25
 36 32 l 25
 16 32 l 25
4 32 m 25
 8 32 l 25
 8 36 l 25
 12 36 l 25
 12 40 l 25
 36 40 l 25
 36 36 l 25
 40 36 l 25
 40 32 l 25
 44 32 l 25
 44 20 l 25
 40 20 l 25
 40 16 l 25
 12 16 l 25
 12 12 l 25
 16 12 l 25
 16 8 l 25
 40 8 l 25
 40 4 l 25
 36 4 l 25
 36 0 l 25
 12 0 l 25
 12 4 l 25
 8 4 l 25
 8 8 l 25
 4 8 l 25
 4 32 l 25
EndSplineSet
EndChar

StartChar: Lf
Encoding: 102 102 102
Width: 48
VWidth: 0
Flags: HMW
LayerCount: 2
Fore
SplineSet
16 48 m 25
 20 48 l 25
 20 52 l 25
 24 52 l 25
 24 56 l 25
 40 56 l 25
 40 48 l 25
 28 48 l 25
 28 44 l 25
 24 44 l 25
 24 32 l 25
 36 32 l 25
 36 24 l 25
 24 24 l 25
 24 0 l 25
 16 0 l 25
 16 24 l 25
 8 24 l 25
 8 32 l 25
 16 32 l 25
 16 48 l 25
EndSplineSet
EndChar

StartChar: Lg
Encoding: 103 103 103
Width: 48
VWidth: 0
Flags: HMW
LayerCount: 2
Fore
SplineSet
16 36 m 25
 16 32 l 25
 12 32 l 25
 12 28 l 1
 16 28 l 25
 16 24 l 9
 32 24 l 25
 32 28 l 25
 36 28 l 25
 36 32 l 25
 32 32 l 25
 32 36 l 25
 16 36 l 25
4 36 m 25
 8 36 l 25
 8 40 l 25
 12 40 l 25
 12 44 l 25
 40 44 l 25
 40 40 l 25
 44 40 l 25
 44 8 l 25
 40 8 l 25
 40 4 l 25
 36 4 l 25
 36 0 l 25
 8 0 l 25
 8 4 l 25
 12 4 l 25
 12 8 l 25
 32 8 l 25
 32 12 l 25
 36 12 l 25
 36 20 l 25
 32 20 l 25
 32 16 l 25
 12 16 l 25
 12 20 l 25
 8 20 l 25
 8 24 l 25
 4 24 l 25
 4 36 l 25
EndSplineSet
EndChar

StartChar: Lh
Encoding: 104 104 104
Width: 48
VWidth: 0
Flags: HMW
LayerCount: 2
Fore
SplineSet
4 56 m 25
 12 56 l 25
 12 32 l 25
 16 32 l 25
 16 36 l 25
 36 36 l 25
 36 32 l 25
 40 32 l 25
 40 28 l 25
 44 28 l 25
 44 0 l 25
 36 0 l 25
 36 24 l 25
 32 24 l 25
 32 28 l 25
 16 28 l 25
 16 24 l 25
 12 24 l 25
 12 0 l 25
 4 0 l 25
 4 56 l 25
EndSplineSet
EndChar

StartChar: Li
Encoding: 105 105 105
Width: 48
VWidth: 0
Flags: HMW
LayerCount: 2
Fore
SplineSet
12 36 m 25
 28 36 l 25
 28 8 l 25
 40 8 l 25
 40 0 l 25
 8 0 l 25
 8 8 l 25
 20 8 l 25
 20 28 l 25
 12 28 l 25
 12 36 l 25
20 48 m 25
 28 48 l 25
 28 40 l 25
 20 40 l 25
 20 48 l 25
EndSplineSet
EndChar

StartChar: Lj
Encoding: 106 106 106
Width: 48
VWidth: 0
Flags: HMW
LayerCount: 2
Fore
SplineSet
28 44 m 25
 40 44 l 25
 40 4 l 25
 36 4 l 25
 36 0 l 25
 16 0 l 25
 16 4 l 25
 12 4 l 25
 12 8 l 25
 8 8 l 25
 8 12 l 25
 20 12 l 25
 20 8 l 25
 32 8 l 25
 32 36 l 25
 28 36 l 25
 28 44 l 25
32 56 m 25
 40 56 l 25
 40 48 l 25
 32 48 l 25
 32 56 l 25
EndSplineSet
EndChar

StartChar: Lk
Encoding: 107 107 107
Width: 48
VWidth: 0
Flags: HMW
LayerCount: 2
Fore
SplineSet
8 56 m 25
 16 56 l 25
 16 24 l 25
 20 24 l 25
 20 28 l 25
 24 28 l 25
 24 32 l 25
 28 32 l 25
 28 36 l 25
 36 36 l 25
 36 28 l 25
 32 28 l 25
 32 24 l 25
 28 24 l 25
 28 16 l 25
 32 16 l 25
 32 12 l 25
 36 12 l 25
 36 8 l 25
 40 8 l 25
 40 0 l 25
 32 0 l 25
 32 4 l 25
 28 4 l 25
 28 8 l 25
 24 8 l 25
 24 12 l 25
 20 12 l 25
 20 16 l 25
 16 16 l 25
 16 0 l 25
 8 0 l 25
 8 56 l 25
EndSplineSet
EndChar

StartChar: Ll
Encoding: 108 108 108
Width: 48
VWidth: 0
Flags: HMW
LayerCount: 2
Fore
SplineSet
12 56 m 25
 28 56 l 25
 28 8 l 25
 40 8 l 25
 40 0 l 25
 8 0 l 25
 8 8 l 25
 20 8 l 25
 20 48 l 25
 12 48 l 25
 12 56 l 25
EndSplineSet
EndChar

StartChar: Lm
Encoding: 109 109 109
Width: 48
VWidth: 0
Flags: HMW
LayerCount: 2
Fore
SplineSet
4 40 m 25
 8 40 l 25
 8 36 l 25
 12 36 l 25
 12 40 l 25
 20 40 l 25
 20 36 l 25
 28 36 l 25
 28 40 l 25
 36 40 l 25
 36 36 l 25
 40 36 l 25
 40 32 l 25
 44 32 l 25
 44 0 l 25
 36 0 l 25
 36 28 l 25
 28 28 l 25
 28 0 l 25
 20 0 l 25
 20 28 l 25
 12 28 l 25
 12 0 l 25
 4 0 l 25
 4 40 l 25
EndSplineSet
EndChar

StartChar: Ln
Encoding: 110 110 110
Width: 48
VWidth: 0
Flags: HMW
LayerCount: 2
Fore
SplineSet
4 40 m 25
 36 40 l 25
 36 36 l 25
 40 36 l 25
 40 32 l 25
 44 32 l 25
 44 0 l 25
 36 0 l 25
 36 28 l 25
 32 28 l 25
 32 32 l 25
 12 32 l 25
 12 0 l 25
 4 0 l 25
 4 40 l 25
EndSplineSet
EndChar

StartChar: Lo
Encoding: 111 111 111
Width: 48
VWidth: 0
Flags: HMW
LayerCount: 2
Fore
SplineSet
16 32 m 25
 16 28 l 25
 12 28 l 25
 12 12 l 25
 16 12 l 25
 16 8 l 25
 32 8 l 25
 32 12 l 25
 36 12 l 25
 36 28 l 25
 32 28 l 25
 32 32 l 25
 16 32 l 25
12 40 m 25
 36 40 l 25
 36 36 l 25
 40 36 l 25
 40 32 l 25
 44 32 l 25
 44 8 l 25
 40 8 l 25
 40 4 l 25
 36 4 l 25
 36 0 l 25
 12 0 l 25
 12 4 l 25
 8 4 l 25
 8 8 l 25
 4 8 l 25
 4 32 l 25
 8 32 l 25
 8 36 l 25
 12 36 l 25
 12 40 l 25
EndSplineSet
EndChar

StartChar: Lp
Encoding: 112 112 112
Width: 48
VWidth: 0
Flags: HMW
LayerCount: 2
Fore
SplineSet
16 32 m 25
 16 28 l 25
 12 28 l 25
 12 24 l 25
 16 24 l 25
 16 20 l 25
 32 20 l 25
 32 24 l 25
 36 24 l 25
 36 28 l 25
 32 28 l 25
 32 32 l 25
 16 32 l 25
4 40 m 25
 36 40 l 25
 36 36 l 25
 40 36 l 25
 40 32 l 25
 44 32 l 25
 44 20 l 25
 40 20 l 25
 40 16 l 25
 36 16 l 25
 36 12 l 25
 16 12 l 25
 16 16 l 25
 12 16 l 25
 12 0 l 25
 4 0 l 25
 4 40 l 25
EndSplineSet
EndChar

StartChar: Lq
Encoding: 113 113 113
Width: 48
VWidth: 0
Flags: HMW
LayerCount: 2
Fore
SplineSet
32 32 m 25
 16 32 l 25
 16 28 l 25
 12 28 l 25
 12 24 l 25
 16 24 l 25
 16 20 l 25
 32 20 l 25
 32 24 l 25
 36 24 l 25
 36 28 l 25
 32 28 l 25
 32 32 l 25
44 40 m 25
 44 0 l 25
 36 0 l 25
 36 16 l 25
 32 16 l 25
 32 12 l 25
 12 12 l 25
 12 16 l 25
 8 16 l 25
 8 20 l 25
 4 20 l 25
 4 32 l 25
 8 32 l 25
 8 36 l 25
 12 36 l 25
 12 40 l 25
 44 40 l 25
EndSplineSet
EndChar

StartChar: Lr
Encoding: 114 114 114
Width: 48
VWidth: 0
Flags: HMW
LayerCount: 2
Fore
SplineSet
8 40 m 25
 16 40 l 25
 16 36 l 25
 20 36 l 25
 20 40 l 25
 40 40 l 25
 40 36 l 25
 44 36 l 25
 44 28 l 25
 36 28 l 25
 36 32 l 25
 20 32 l 25
 20 28 l 25
 16 28 l 25
 16 0 l 25
 8 0 l 25
 8 40 l 25
EndSplineSet
EndChar

StartChar: Ls
Encoding: 115 115 115
Width: 48
VWidth: 0
Flags: HMW
LayerCount: 2
Fore
SplineSet
12 40 m 25
 36 40 l 25
 36 36 l 25
 40 36 l 25
 40 32 l 25
 12 32 l 25
 12 24 l 25
 36 24 l 25
 36 20 l 25
 40 20 l 25
 40 16 l 25
 44 16 l 25
 44 8 l 25
 40 8 l 25
 40 4 l 25
 36 4 l 25
 36 0 l 25
 4 0 l 25
 4 4 l 25
 8 4 l 25
 8 8 l 25
 36 8 l 25
 36 16 l 25
 12 16 l 25
 12 20 l 25
 8 20 l 25
 8 24 l 25
 4 24 l 25
 4 32 l 25
 8 32 l 25
 8 36 l 25
 12 36 l 25
 12 40 l 25
EndSplineSet
EndChar

StartChar: Lt
Encoding: 116 116 116
Width: 48
VWidth: 0
Flags: HMW
LayerCount: 2
Fore
SplineSet
12 52 m 25
 20 52 l 25
 20 36 l 1
 32 36 l 25
 32 28 l 25
 20 28 l 1
 20 8 l 25
 40 8 l 25
 40 4 l 25
 44 4 l 25
 44 0 l 25
 16 0 l 25
 16 4 l 25
 12 4 l 25
 12 28 l 25
 4 28 l 25
 4 36 l 25
 12 36 l 25
 12 52 l 25
EndSplineSet
EndChar

StartChar: Lu
Encoding: 117 117 117
Width: 48
VWidth: 0
Flags: HMW
LayerCount: 2
Fore
SplineSet
4 40 m 25
 12 40 l 25
 12 12 l 25
 16 12 l 25
 16 8 l 25
 32 8 l 25
 32 12 l 25
 36 12 l 25
 36 40 l 25
 44 40 l 25
 44 0 l 25
 36 0 l 25
 36 4 l 25
 32 4 l 25
 32 0 l 25
 12 0 l 25
 12 4 l 25
 8 4 l 25
 8 8 l 25
 4 8 l 25
 4 40 l 25
EndSplineSet
EndChar

StartChar: Lv
Encoding: 118 118 118
Width: 48
VWidth: 0
Flags: HMW
LayerCount: 2
Fore
SplineSet
4 40 m 25
 12 40 l 25
 12 28 l 25
 16 28 l 25
 16 20 l 25
 20 20 l 25
 20 12 l 25
 28 12 l 25
 28 20 l 25
 32 20 l 25
 32 28 l 25
 36 28 l 25
 36 40 l 25
 44 40 l 25
 44 28 l 25
 40 28 l 25
 40 20 l 25
 36 20 l 25
 36 12 l 25
 32 12 l 25
 32 4 l 25
 28 4 l 25
 28 0 l 25
 20 0 l 25
 20 4 l 25
 16 4 l 25
 16 12 l 25
 12 12 l 25
 12 20 l 25
 8 20 l 25
 8 28 l 25
 4 28 l 25
 4 40 l 25
EndSplineSet
EndChar

StartChar: Lw
Encoding: 119 119 119
Width: 48
VWidth: 0
Flags: HMW
LayerCount: 2
Fore
SplineSet
4 40 m 25
 12 40 l 25
 12 12 l 25
 16 12 l 25
 16 16 l 25
 20 16 l 25
 20 36 l 25
 28 36 l 25
 28 16 l 25
 32 16 l 25
 32 12 l 25
 36 12 l 25
 36 40 l 25
 44 40 l 25
 44 12 l 25
 40 12 l 25
 40 4 l 25
 36 4 l 25
 36 0 l 25
 32 0 l 25
 32 4 l 25
 28 4 l 25
 28 8 l 25
 20 8 l 25
 20 4 l 25
 16 4 l 25
 16 0 l 25
 12 0 l 25
 12 4 l 25
 8 4 l 25
 8 12 l 25
 4 12 l 25
 4 40 l 25
EndSplineSet
EndChar

StartChar: Lx
Encoding: 120 120 120
Width: 48
VWidth: 0
Flags: HMW
LayerCount: 2
Fore
SplineSet
4 40 m 25
 12 40 l 25
 12 36 l 25
 16 36 l 25
 16 32 l 25
 20 32 l 25
 20 28 l 25
 28 28 l 25
 28 32 l 25
 32 32 l 25
 32 36 l 25
 36 36 l 25
 36 40 l 25
 44 40 l 25
 44 32 l 25
 40 32 l 25
 40 28 l 25
 36 28 l 25
 36 24 l 25
 32 24 l 25
 32 16 l 25
 36 16 l 25
 36 12 l 25
 40 12 l 25
 40 8 l 25
 44 8 l 25
 44 0 l 25
 36 0 l 25
 36 4 l 25
 32 4 l 25
 32 8 l 25
 28 8 l 25
 28 12 l 25
 20 12 l 25
 20 8 l 25
 16 8 l 25
 16 4 l 25
 12 4 l 25
 12 0 l 25
 4 0 l 25
 4 8 l 25
 8 8 l 25
 8 12 l 25
 12 12 l 25
 12 16 l 25
 16 16 l 25
 16 24 l 25
 12 24 l 25
 12 28 l 25
 8 28 l 25
 8 32 l 25
 4 32 l 25
 4 40 l 25
EndSplineSet
EndChar

StartChar: Ly
Encoding: 121 121 121
Width: 48
VWidth: 0
Flags: HMW
LayerCount: 2
Fore
SplineSet
4 40 m 25
 12 40 l 25
 12 24 l 25
 36 24 l 25
 36 40 l 25
 44 40 l 25
 44 8 l 25
 40 8 l 25
 40 4 l 25
 36 4 l 25
 36 0 l 25
 12 0 l 25
 12 4 l 25
 16 4 l 25
 16 8 l 25
 36 8 l 25
 36 16 l 25
 12 16 l 25
 12 20 l 25
 8 20 l 25
 8 24 l 25
 4 24 l 25
 4 40 l 25
EndSplineSet
EndChar

StartChar: Lz
Encoding: 122 122 122
Width: 48
VWidth: 0
Flags: HMW
LayerCount: 2
Fore
SplineSet
4 40 m 25
 44 40 l 25
 44 32 l 25
 40 32 l 25
 40 28 l 25
 36 28 l 25
 36 24 l 25
 32 24 l 25
 32 20 l 25
 28 20 l 25
 28 16 l 25
 24 16 l 25
 24 12 l 25
 20 12 l 25
 20 8 l 25
 44 8 l 25
 44 0 l 25
 4 0 l 25
 4 8 l 25
 8 8 l 25
 8 12 l 25
 12 12 l 25
 12 16 l 25
 16 16 l 25
 16 20 l 25
 20 20 l 25
 20 24 l 25
 24 24 l 25
 24 28 l 25
 28 28 l 25
 28 32 l 25
 4 32 l 25
 4 40 l 25
EndSplineSet
EndChar

StartChar: LlBrace
Encoding: 123 123 123
Width: 48
VWidth: 0
Flags: HMW
LayerCount: 2
Fore
SplineSet
24 56 m 1
 44 56 l 25
 44 52 l 25
 32 52 l 25
 32 48 l 25
 28 48 l 25
 28 32 l 25
 24 32 l 25
 24 24 l 25
 28 24 l 25
 28 8 l 25
 32 8 l 25
 32 4 l 25
 44 4 l 25
 44 0 l 1
 24 0 l 25
 24 4 l 25
 20 4 l 25
 20 20 l 25
 16 20 l 25
 16 24 l 25
 12 24 l 25
 12 32 l 25
 16 32 l 25
 16 36 l 25
 20 36 l 25
 20 52 l 25
 24 52 l 25
 24 56 l 1
EndSplineSet
EndChar

StartChar: Lbar
Encoding: 124 124 124
Width: 48
VWidth: 0
Flags: HMW
LayerCount: 2
Fore
SplineSet
20 56 m 25
 28 56 l 25
 28 0 l 25
 20 0 l 25
 20 56 l 25
EndSplineSet
EndChar

StartChar: LrBrace
Encoding: 125 125 125
Width: 48
VWidth: 0
Flags: HMW
LayerCount: 2
Fore
SplineSet
24 56 m 1
 24 52 l 25
 28 52 l 25
 28 36 l 25
 32 36 l 25
 32 32 l 25
 36 32 l 25
 36 24 l 25
 32 24 l 25
 32 20 l 25
 28 20 l 25
 28 4 l 25
 24 4 l 25
 24 0 l 25
 4 0 l 1
 4 4 l 25
 16 4 l 25
 16 8 l 25
 20 8 l 25
 20 24 l 25
 24 24 l 25
 24 32 l 25
 20 32 l 25
 20 48 l 25
 16 48 l 25
 16 52 l 25
 4 52 l 25
 4 56 l 25
 24 56 l 1
EndSplineSet
EndChar

StartChar: Ltilde
Encoding: 126 126 126
Width: 48
VWidth: 0
Flags: HMW
LayerCount: 2
Fore
SplineSet
4 40 m 25
 8 40 l 25
 8 44 l 25
 12 44 l 25
 12 48 l 25
 20 48 l 25
 20 44 l 25
 24 44 l 25
 24 40 l 25
 28 40 l 25
 28 32 l 25
 36 32 l 25
 36 40 l 25
 44 40 l 25
 44 28 l 25
 36 28 l 25
 36 24 l 25
 28 24 l 25
 28 28 l 25
 24 28 l 25
 24 32 l 25
 20 32 l 25
 20 40 l 25
 12 40 l 25
 12 32 l 25
 4 32 l 25
 4 40 l 25
EndSplineSet
EndChar

StartChar: LinvEQ
Encoding: 127 9016 127
AltUni2: 00015c.ffffffff.0
Width: 48
VWidth: 0
Flags: HMW
LayerCount: 2
Fore
SplineSet
12 24 m 25
 12 16 l 25
 36 16 l 25
 36 24 l 25
 12 24 l 25
12 40 m 25
 12 32 l 25
 36 32 l 25
 36 40 l 25
 12 40 l 25
4 56 m 25
 44 56 l 25
 44 0 l 25
 4 0 l 25
 4 56 l 25
EndSplineSet
EndChar

StartChar: Lsub0
Encoding: 128 8320 128
Width: 48
VWidth: 0
Flags: HMW
LayerCount: 2
Fore
SplineSet
20 32 m 25
 20 20 l 25
 24 20 l 25
 24 16 l 25
 20 16 l 25
 20 8 l 25
 28 8 l 25
 28 20 l 25
 24 20 l 25
 24 24 l 25
 28 24 l 25
 28 32 l 25
 20 32 l 25
20 40 m 25
 28 40 l 25
 28 36 l 25
 32 36 l 25
 32 32 l 25
 36 32 l 25
 36 8 l 25
 32 8 l 25
 32 4 l 25
 28 4 l 25
 28 0 l 25
 20 0 l 25
 20 4 l 25
 16 4 l 25
 16 8 l 25
 12 8 l 25
 12 32 l 25
 16 32 l 25
 16 36 l 25
 20 36 l 25
 20 40 l 25
EndSplineSet
EndChar

StartChar: Lsub1
Encoding: 129 8321 129
Width: 48
VWidth: 0
Flags: HMW
LayerCount: 2
Fore
SplineSet
20 40 m 1
 28 40 l 25
 28 8 l 25
 36 8 l 25
 36 0 l 25
 12 0 l 25
 12 8 l 25
 20 8 l 25
 20 24 l 1
 12 24 l 25
 12 32 l 25
 16 32 l 25
 16 36 l 25
 20 36 l 25
 20 40 l 1
EndSplineSet
EndChar

StartChar: Lsub2
Encoding: 130 8322 130
Width: 48
VWidth: 0
Flags: HMW
LayerCount: 2
Fore
SplineSet
16 40 m 25
 28 40 l 25
 28 36 l 25
 32 36 l 25
 32 32 l 25
 36 32 l 25
 36 24 l 25
 32 24 l 25
 32 20 l 25
 28 20 l 25
 28 16 l 25
 24 16 l 25
 24 12 l 25
 20 12 l 25
 20 8 l 25
 36 8 l 25
 36 0 l 25
 12 0 l 25
 12 12 l 25
 16 12 l 25
 16 16 l 25
 20 16 l 25
 20 20 l 25
 24 20 l 25
 24 24 l 25
 28 24 l 25
 28 32 l 25
 16 32 l 25
 16 28 l 25
 12 28 l 25
 12 36 l 25
 16 36 l 25
 16 40 l 25
EndSplineSet
EndChar

StartChar: Lsub3
Encoding: 131 8323 131
Width: 48
VWidth: 0
Flags: HMW
LayerCount: 2
Fore
SplineSet
16 40 m 25
 28 40 l 25
 28 36 l 25
 32 36 l 25
 32 32 l 25
 36 32 l 25
 36 24 l 25
 32 24 l 25
 32 16 l 25
 36 16 l 25
 36 8 l 25
 32 8 l 25
 32 4 l 25
 28 4 l 25
 28 0 l 25
 16 0 l 25
 16 4 l 25
 12 4 l 25
 12 12 l 25
 16 12 l 25
 16 8 l 25
 28 8 l 25
 28 16 l 25
 20 16 l 25
 20 24 l 25
 28 24 l 25
 28 32 l 25
 16 32 l 25
 16 28 l 25
 12 28 l 25
 12 36 l 25
 16 36 l 25
 16 40 l 25
EndSplineSet
EndChar

StartChar: Lsub4
Encoding: 132 8324 132
Width: 48
VWidth: 0
Flags: HMW
LayerCount: 2
Fore
SplineSet
20 28 m 25
 20 24 l 25
 16 24 l 25
 16 20 l 25
 24 20 l 25
 24 28 l 25
 20 28 l 25
24 40 m 25
 32 40 l 25
 32 20 l 25
 36 20 l 25
 36 12 l 25
 32 12 l 25
 32 0 l 25
 24 0 l 25
 24 12 l 25
 8 12 l 25
 8 24 l 25
 12 24 l 25
 12 28 l 25
 16 28 l 25
 16 32 l 25
 20 32 l 25
 20 36 l 25
 24 36 l 25
 24 40 l 25
EndSplineSet
EndChar

StartChar: Lsub5
Encoding: 133 8325 133
Width: 48
VWidth: 0
Flags: HMW
LayerCount: 2
Fore
SplineSet
12 40 m 25
 36 40 l 25
 36 32 l 25
 20 32 l 25
 20 24 l 25
 28 24 l 25
 28 20 l 25
 32 20 l 25
 32 16 l 25
 36 16 l 25
 36 8 l 25
 32 8 l 25
 32 4 l 25
 28 4 l 25
 28 0 l 25
 12 0 l 25
 12 8 l 25
 28 8 l 25
 28 16 l 25
 12 16 l 25
 12 40 l 25
EndSplineSet
EndChar

StartChar: Lsub6
Encoding: 134 8326 134
Width: 48
VWidth: 0
Flags: HMW
LayerCount: 2
Fore
SplineSet
20 16 m 25
 20 8 l 25
 28 8 l 25
 28 16 l 25
 20 16 l 25
20 40 m 25
 32 40 l 25
 32 32 l 25
 20 32 l 25
 20 24 l 25
 32 24 l 25
 32 20 l 25
 36 20 l 25
 36 4 l 25
 32 4 l 25
 32 0 l 25
 16 0 l 25
 16 4 l 25
 12 4 l 25
 12 32 l 25
 16 32 l 25
 16 36 l 25
 20 36 l 25
 20 40 l 25
EndSplineSet
EndChar

StartChar: Lsub7
Encoding: 135 8327 135
Width: 48
VWidth: 0
Flags: HMW
LayerCount: 2
Fore
SplineSet
12 40 m 25
 36 40 l 25
 36 24 l 25
 32 24 l 25
 32 20 l 25
 28 20 l 25
 28 16 l 25
 24 16 l 25
 24 0 l 25
 16 0 l 25
 16 20 l 25
 20 20 l 25
 20 24 l 25
 24 24 l 25
 24 28 l 25
 28 28 l 25
 28 32 l 25
 12 32 l 25
 12 40 l 25
EndSplineSet
EndChar

StartChar: Lsub8
Encoding: 136 8328 136
Width: 48
VWidth: 0
Flags: HMW
LayerCount: 2
Fore
SplineSet
20 16 m 25
 20 8 l 25
 28 8 l 25
 28 16 l 25
 20 16 l 25
20 32 m 25
 20 24 l 25
 28 24 l 25
 28 32 l 25
 20 32 l 25
16 40 m 25
 32 40 l 25
 32 36 l 25
 36 36 l 25
 36 24 l 25
 32 24 l 25
 32 20 l 25
 36 20 l 25
 36 4 l 25
 32 4 l 25
 32 0 l 25
 16 0 l 25
 16 4 l 25
 12 4 l 25
 12 20 l 25
 16 20 l 25
 16 24 l 25
 12 24 l 25
 12 36 l 25
 16 36 l 25
 16 40 l 25
EndSplineSet
EndChar

StartChar: Lsub9
Encoding: 137 8329 137
Width: 48
VWidth: 0
Flags: HMW
LayerCount: 2
Fore
SplineSet
20 32 m 25
 20 24 l 25
 28 24 l 25
 28 32 l 25
 20 32 l 25
16 40 m 25
 32 40 l 25
 32 36 l 25
 36 36 l 25
 36 8 l 25
 32 8 l 25
 32 4 l 25
 28 4 l 25
 28 0 l 25
 16 0 l 25
 16 8 l 1
 28 8 l 25
 28 16 l 25
 16 16 l 1
 16 20 l 25
 12 20 l 25
 12 36 l 25
 16 36 l 25
 16 40 l 25
EndSplineSet
EndChar

StartChar: LcapAAcute
Encoding: 138 193 138
Width: 48
VWidth: 0
Flags: HMW
LayerCount: 2
Fore
SplineSet
28 56 m 25
 36 56 l 25
 36 52 l 25
 32 52 l 25
 32 48 l 25
 28 48 l 25
 28 44 l 25
 20 44 l 25
 20 48 l 25
 24 48 l 25
 24 52 l 25
 28 52 l 25
 28 56 l 25
12 32 m 25
 12 20 l 25
 36 20 l 25
 36 32 l 25
 12 32 l 25
12 40 m 25
 36 40 l 25
 36 36 l 25
 40 36 l 25
 40 32 l 25
 44 32 l 25
 44 0 l 25
 36 0 l 25
 36 12 l 25
 12 12 l 25
 12 0 l 25
 4 0 l 25
 4 32 l 25
 8 32 l 25
 8 36 l 25
 12 36 l 25
 12 40 l 25
EndSplineSet
EndChar

StartChar: LcapAGrave
Encoding: 139 192 139
Width: 48
VWidth: 0
Flags: HMW
LayerCount: 2
Fore
SplineSet
20 56 m 25
 20 52 l 25
 24 52 l 25
 24 48 l 25
 28 48 l 25
 28 44 l 25
 20 44 l 25
 20 48 l 25
 16 48 l 25
 16 52 l 25
 12 52 l 25
 12 56 l 25
 20 56 l 25
12 32 m 25
 12 20 l 25
 36 20 l 25
 36 32 l 25
 12 32 l 25
12 40 m 25
 36 40 l 25
 36 36 l 25
 40 36 l 25
 40 32 l 25
 44 32 l 25
 44 0 l 25
 36 0 l 25
 36 12 l 25
 12 12 l 25
 12 0 l 25
 4 0 l 25
 4 32 l 25
 8 32 l 25
 8 36 l 25
 12 36 l 25
 12 40 l 25
EndSplineSet
EndChar

StartChar: LcapACaret
Encoding: 140 194 140
Width: 48
VWidth: 0
Flags: HMW
LayerCount: 2
Fore
SplineSet
20 56 m 25
 28 56 l 25
 28 52 l 25
 32 52 l 25
 32 48 l 25
 36 48 l 25
 36 44 l 25
 28 44 l 25
 28 48 l 25
 20 48 l 25
 20 44 l 25
 12 44 l 25
 12 48 l 25
 16 48 l 25
 16 52 l 25
 20 52 l 25
 20 56 l 25
12 32 m 25
 12 20 l 25
 36 20 l 25
 36 32 l 25
 12 32 l 25
12 40 m 25
 36 40 l 25
 36 36 l 25
 40 36 l 25
 40 32 l 25
 44 32 l 25
 44 0 l 25
 36 0 l 25
 36 12 l 25
 12 12 l 25
 12 0 l 25
 4 0 l 25
 4 32 l 25
 8 32 l 25
 8 36 l 25
 12 36 l 25
 12 40 l 25
EndSplineSet
EndChar

StartChar: LcapADier
Encoding: 141 196 141
Width: 48
VWidth: 0
Flags: HMW
LayerCount: 2
Fore
SplineSet
28 56 m 25
 36 56 l 25
 36 48 l 25
 28 48 l 25
 28 56 l 25
12 56 m 25
 20 56 l 25
 20 48 l 25
 12 48 l 25
 12 56 l 25
12 32 m 25
 12 20 l 25
 36 20 l 25
 36 32 l 25
 12 32 l 25
12 40 m 25
 36 40 l 25
 36 36 l 25
 40 36 l 25
 40 32 l 25
 44 32 l 25
 44 0 l 25
 36 0 l 25
 36 12 l 25
 12 12 l 25
 12 0 l 25
 4 0 l 25
 4 32 l 25
 8 32 l 25
 8 36 l 25
 12 36 l 25
 12 40 l 25
EndSplineSet
EndChar

StartChar: LaAcute
Encoding: 142 225 142
Width: 48
VWidth: 0
Flags: HMW
LayerCount: 2
Fore
SplineSet
28 56 m 25
 36 56 l 25
 36 52 l 25
 32 52 l 25
 32 48 l 25
 28 48 l 25
 28 44 l 25
 20 44 l 25
 20 48 l 25
 24 48 l 25
 24 52 l 25
 28 52 l 25
 28 56 l 25
12 16 m 25
 12 8 l 25
 36 8 l 25
 36 16 l 25
 12 16 l 25
12 36 m 25
 40 36 l 25
 40 32 l 25
 44 32 l 25
 44 0 l 25
 8 0 l 25
 8 4 l 25
 4 4 l 25
 4 16 l 25
 8 16 l 25
 8 20 l 25
 12 20 l 25
 12 24 l 25
 36 24 l 25
 36 28 l 25
 8 28 l 25
 8 32 l 25
 12 32 l 25
 12 36 l 25
EndSplineSet
EndChar

StartChar: LaGrave
Encoding: 143 224 143
Width: 48
VWidth: 0
Flags: HMW
LayerCount: 2
Fore
SplineSet
20 56 m 25
 20 52 l 25
 24 52 l 25
 24 48 l 25
 28 48 l 25
 28 44 l 25
 20 44 l 25
 20 48 l 25
 16 48 l 25
 16 52 l 25
 12 52 l 25
 12 56 l 25
 20 56 l 25
12 16 m 25
 12 8 l 25
 36 8 l 25
 36 16 l 25
 12 16 l 25
12 36 m 25
 40 36 l 25
 40 32 l 25
 44 32 l 25
 44 0 l 25
 8 0 l 25
 8 4 l 25
 4 4 l 25
 4 16 l 25
 8 16 l 25
 8 20 l 25
 12 20 l 25
 12 24 l 25
 36 24 l 25
 36 28 l 25
 8 28 l 25
 8 32 l 25
 12 32 l 25
 12 36 l 25
EndSplineSet
EndChar

StartChar: LaCaret
Encoding: 144 226 144
Width: 48
VWidth: 0
Flags: HMW
LayerCount: 2
Fore
SplineSet
20 56 m 25
 28 56 l 25
 28 52 l 25
 32 52 l 25
 32 48 l 25
 36 48 l 25
 36 44 l 25
 28 44 l 25
 28 48 l 25
 20 48 l 25
 20 44 l 25
 12 44 l 25
 12 48 l 25
 16 48 l 25
 16 52 l 25
 20 52 l 25
 20 56 l 25
12 16 m 25
 12 8 l 25
 36 8 l 25
 36 16 l 25
 12 16 l 25
12 36 m 25
 40 36 l 25
 40 32 l 25
 44 32 l 25
 44 0 l 25
 8 0 l 25
 8 4 l 25
 4 4 l 25
 4 16 l 25
 8 16 l 25
 8 20 l 25
 12 20 l 25
 12 24 l 25
 36 24 l 25
 36 28 l 25
 8 28 l 25
 8 32 l 25
 12 32 l 25
 12 36 l 25
EndSplineSet
EndChar

StartChar: LaDier
Encoding: 145 228 145
Width: 48
VWidth: 0
Flags: HMW
LayerCount: 2
Fore
SplineSet
28 56 m 25
 36 56 l 25
 36 48 l 25
 28 48 l 25
 28 56 l 25
12 56 m 25
 20 56 l 25
 20 48 l 25
 12 48 l 25
 12 56 l 25
12 16 m 25
 12 8 l 25
 36 8 l 25
 36 16 l 25
 12 16 l 25
12 36 m 25
 40 36 l 25
 40 32 l 25
 44 32 l 25
 44 0 l 25
 8 0 l 25
 8 4 l 25
 4 4 l 25
 4 16 l 25
 8 16 l 25
 8 20 l 25
 12 20 l 25
 12 24 l 25
 36 24 l 25
 36 28 l 25
 8 28 l 25
 8 32 l 25
 12 32 l 25
 12 36 l 25
EndSplineSet
EndChar

StartChar: LcapEAcute
Encoding: 146 201 146
Width: 48
VWidth: 0
Flags: HMW
LayerCount: 2
Fore
SplineSet
28 56 m 25
 36 56 l 25
 36 52 l 25
 32 52 l 25
 32 48 l 25
 28 48 l 25
 28 44 l 25
 20 44 l 25
 20 48 l 25
 24 48 l 25
 24 52 l 25
 28 52 l 25
 28 56 l 25
4 40 m 25
 44 40 l 25
 44 32 l 25
 12 32 l 25
 12 24 l 25
 36 24 l 25
 36 16 l 25
 12 16 l 25
 12 8 l 25
 44 8 l 25
 44 0 l 25
 4 0 l 25
 4 40 l 25
EndSplineSet
EndChar

StartChar: LcapEGrave
Encoding: 147 200 147
Width: 48
VWidth: 0
Flags: HMW
LayerCount: 2
Fore
SplineSet
20 56 m 25
 20 52 l 25
 24 52 l 25
 24 48 l 25
 28 48 l 25
 28 44 l 25
 20 44 l 25
 20 48 l 25
 16 48 l 25
 16 52 l 25
 12 52 l 25
 12 56 l 25
 20 56 l 25
4 40 m 25
 44 40 l 25
 44 32 l 25
 12 32 l 25
 12 24 l 25
 36 24 l 25
 36 16 l 25
 12 16 l 25
 12 8 l 25
 44 8 l 25
 44 0 l 25
 4 0 l 25
 4 40 l 25
EndSplineSet
EndChar

StartChar: LcapECaret
Encoding: 148 202 148
Width: 48
VWidth: 0
Flags: HMW
LayerCount: 2
Fore
SplineSet
20 56 m 25
 28 56 l 25
 28 52 l 25
 32 52 l 25
 32 48 l 25
 36 48 l 25
 36 44 l 25
 28 44 l 25
 28 48 l 25
 20 48 l 25
 20 44 l 25
 12 44 l 25
 12 48 l 25
 16 48 l 25
 16 52 l 25
 20 52 l 25
 20 56 l 25
4 40 m 25
 44 40 l 25
 44 32 l 25
 12 32 l 25
 12 24 l 25
 36 24 l 25
 36 16 l 25
 12 16 l 25
 12 8 l 25
 44 8 l 25
 44 0 l 25
 4 0 l 25
 4 40 l 25
EndSplineSet
EndChar

StartChar: LcapEDier
Encoding: 149 203 149
Width: 48
VWidth: 0
Flags: HMW
LayerCount: 2
Fore
SplineSet
28 56 m 25
 36 56 l 25
 36 48 l 25
 28 48 l 25
 28 56 l 25
12 56 m 25
 20 56 l 25
 20 48 l 25
 12 48 l 25
 12 56 l 25
4 40 m 25
 44 40 l 25
 44 32 l 25
 12 32 l 25
 12 24 l 25
 36 24 l 25
 36 16 l 25
 12 16 l 25
 12 8 l 25
 44 8 l 25
 44 0 l 25
 4 0 l 25
 4 40 l 25
EndSplineSet
EndChar

StartChar: LeAcute
Encoding: 150 233 150
Width: 48
VWidth: 0
Flags: HMW
LayerCount: 2
Fore
SplineSet
28 56 m 25
 36 56 l 25
 36 52 l 25
 32 52 l 25
 32 48 l 25
 28 48 l 25
 28 44 l 25
 20 44 l 25
 20 48 l 25
 24 48 l 25
 24 52 l 25
 28 52 l 25
 28 56 l 25
16 28 m 25
 16 24 l 25
 36 24 l 25
 36 28 l 25
 16 28 l 25
12 36 m 25
 36 36 l 25
 36 32 l 25
 40 32 l 25
 40 28 l 25
 44 28 l 25
 44 20 l 25
 40 20 l 25
 40 16 l 25
 12 16 l 25
 12 12 l 25
 16 12 l 25
 16 8 l 25
 40 8 l 25
 40 4 l 25
 36 4 l 25
 36 0 l 25
 12 0 l 25
 12 4 l 25
 8 4 l 25
 8 8 l 25
 4 8 l 25
 4 28 l 25
 8 28 l 25
 8 32 l 25
 12 32 l 25
 12 36 l 25
EndSplineSet
EndChar

StartChar: LeGrave
Encoding: 151 232 151
Width: 48
VWidth: 0
Flags: HMW
LayerCount: 2
Fore
SplineSet
20 56 m 25
 20 52 l 25
 24 52 l 25
 24 48 l 25
 28 48 l 25
 28 44 l 25
 20 44 l 25
 20 48 l 25
 16 48 l 25
 16 52 l 25
 12 52 l 25
 12 56 l 25
 20 56 l 25
16 28 m 25
 16 24 l 25
 36 24 l 25
 36 28 l 25
 16 28 l 25
12 36 m 25
 36 36 l 25
 36 32 l 25
 40 32 l 25
 40 28 l 25
 44 28 l 25
 44 20 l 25
 40 20 l 25
 40 16 l 25
 12 16 l 25
 12 12 l 25
 16 12 l 25
 16 8 l 25
 40 8 l 25
 40 4 l 25
 36 4 l 25
 36 0 l 25
 12 0 l 25
 12 4 l 25
 8 4 l 25
 8 8 l 25
 4 8 l 25
 4 28 l 25
 8 28 l 25
 8 32 l 25
 12 32 l 25
 12 36 l 25
EndSplineSet
EndChar

StartChar: LeCaret
Encoding: 152 234 152
Width: 48
VWidth: 0
Flags: HMW
LayerCount: 2
Fore
SplineSet
20 56 m 25
 28 56 l 25
 28 52 l 25
 32 52 l 25
 32 48 l 25
 36 48 l 25
 36 44 l 25
 28 44 l 25
 28 48 l 25
 20 48 l 25
 20 44 l 25
 12 44 l 25
 12 48 l 25
 16 48 l 25
 16 52 l 25
 20 52 l 25
 20 56 l 25
16 28 m 25
 16 24 l 25
 36 24 l 25
 36 28 l 25
 16 28 l 25
12 36 m 25
 36 36 l 25
 36 32 l 25
 40 32 l 25
 40 28 l 25
 44 28 l 25
 44 20 l 25
 40 20 l 25
 40 16 l 25
 12 16 l 25
 12 12 l 25
 16 12 l 25
 16 8 l 25
 40 8 l 25
 40 4 l 25
 36 4 l 25
 36 0 l 25
 12 0 l 25
 12 4 l 25
 8 4 l 25
 8 8 l 25
 4 8 l 25
 4 28 l 25
 8 28 l 25
 8 32 l 25
 12 32 l 25
 12 36 l 25
EndSplineSet
EndChar

StartChar: LeDier
Encoding: 153 235 153
Width: 48
VWidth: 0
Flags: HMW
LayerCount: 2
Fore
SplineSet
28 56 m 25
 36 56 l 25
 36 48 l 25
 28 48 l 25
 28 56 l 25
12 56 m 25
 20 56 l 25
 20 48 l 25
 12 48 l 25
 12 56 l 25
16 28 m 25
 16 24 l 25
 36 24 l 25
 36 28 l 25
 16 28 l 25
12 36 m 25
 36 36 l 25
 36 32 l 25
 40 32 l 25
 40 28 l 25
 44 28 l 25
 44 20 l 25
 40 20 l 25
 40 16 l 25
 12 16 l 25
 12 12 l 25
 16 12 l 25
 16 8 l 25
 40 8 l 25
 40 4 l 25
 36 4 l 25
 36 0 l 25
 12 0 l 25
 12 4 l 25
 8 4 l 25
 8 8 l 25
 4 8 l 25
 4 28 l 25
 8 28 l 25
 8 32 l 25
 12 32 l 25
 12 36 l 25
EndSplineSet
EndChar

StartChar: LcapIAcute
Encoding: 154 205 154
Width: 48
VWidth: 0
Flags: HMW
LayerCount: 2
Fore
SplineSet
28 56 m 25
 36 56 l 25
 36 52 l 25
 32 52 l 25
 32 48 l 25
 28 48 l 25
 28 44 l 25
 20 44 l 25
 20 48 l 25
 24 48 l 25
 24 52 l 25
 28 52 l 25
 28 56 l 25
12 40 m 25
 36 40 l 25
 36 32 l 25
 28 32 l 25
 28 8 l 25
 36 8 l 25
 36 0 l 25
 12 0 l 25
 12 8 l 25
 20 8 l 25
 20 32 l 25
 12 32 l 25
 12 40 l 25
EndSplineSet
EndChar

StartChar: LcapIGrave
Encoding: 155 204 155
Width: 48
VWidth: 0
Flags: HMW
LayerCount: 2
Fore
SplineSet
20 56 m 25
 20 52 l 25
 24 52 l 25
 24 48 l 25
 28 48 l 25
 28 44 l 25
 20 44 l 25
 20 48 l 25
 16 48 l 25
 16 52 l 25
 12 52 l 25
 12 56 l 25
 20 56 l 25
12 40 m 25
 36 40 l 25
 36 32 l 25
 28 32 l 25
 28 8 l 25
 36 8 l 25
 36 0 l 25
 12 0 l 25
 12 8 l 25
 20 8 l 25
 20 32 l 25
 12 32 l 25
 12 40 l 25
EndSplineSet
EndChar

StartChar: LcapICaret
Encoding: 156 206 156
Width: 48
VWidth: 0
Flags: HMW
LayerCount: 2
Fore
SplineSet
20 56 m 25
 28 56 l 25
 28 52 l 25
 32 52 l 25
 32 48 l 25
 36 48 l 25
 36 44 l 25
 28 44 l 25
 28 48 l 25
 20 48 l 25
 20 44 l 25
 12 44 l 25
 12 48 l 25
 16 48 l 25
 16 52 l 25
 20 52 l 25
 20 56 l 25
12 40 m 25
 36 40 l 25
 36 32 l 25
 28 32 l 25
 28 8 l 25
 36 8 l 25
 36 0 l 25
 12 0 l 25
 12 8 l 25
 20 8 l 25
 20 32 l 25
 12 32 l 25
 12 40 l 25
EndSplineSet
EndChar

StartChar: LcapIDier
Encoding: 157 207 157
Width: 48
VWidth: 0
Flags: HMW
LayerCount: 2
Fore
SplineSet
28 56 m 25
 36 56 l 25
 36 48 l 25
 28 48 l 25
 28 56 l 25
12 56 m 25
 20 56 l 25
 20 48 l 25
 12 48 l 25
 12 56 l 25
12 40 m 25
 36 40 l 25
 36 32 l 25
 28 32 l 25
 28 8 l 25
 36 8 l 25
 36 0 l 25
 12 0 l 25
 12 8 l 25
 20 8 l 25
 20 32 l 25
 12 32 l 25
 12 40 l 25
EndSplineSet
EndChar

StartChar: LiAcute
Encoding: 158 237 158
Width: 48
VWidth: 0
Flags: HMW
LayerCount: 2
Fore
SplineSet
28 56 m 25
 36 56 l 25
 36 52 l 25
 32 52 l 25
 32 48 l 25
 28 48 l 25
 28 44 l 25
 20 44 l 25
 20 48 l 25
 24 48 l 25
 24 52 l 25
 28 52 l 25
 28 56 l 25
12 36 m 25
 28 36 l 25
 28 8 l 25
 40 8 l 25
 40 0 l 25
 8 0 l 25
 8 8 l 25
 20 8 l 25
 20 28 l 25
 12 28 l 25
 12 36 l 25
EndSplineSet
EndChar

StartChar: LiGrave
Encoding: 159 236 159
Width: 48
VWidth: 0
Flags: HMW
LayerCount: 2
Fore
SplineSet
20 56 m 25
 20 52 l 25
 24 52 l 25
 24 48 l 25
 28 48 l 25
 28 44 l 25
 20 44 l 25
 20 48 l 25
 16 48 l 25
 16 52 l 25
 12 52 l 25
 12 56 l 25
 20 56 l 25
12 36 m 25
 28 36 l 25
 28 8 l 25
 40 8 l 25
 40 0 l 25
 8 0 l 25
 8 8 l 25
 20 8 l 25
 20 28 l 25
 12 28 l 25
 12 36 l 25
EndSplineSet
EndChar

StartChar: LiCaret
Encoding: 160 238 160
Width: 48
VWidth: 0
Flags: HMW
LayerCount: 2
Fore
SplineSet
20 56 m 25
 28 56 l 25
 28 52 l 25
 32 52 l 25
 32 48 l 25
 36 48 l 25
 36 44 l 25
 28 44 l 25
 28 48 l 25
 20 48 l 25
 20 44 l 25
 12 44 l 25
 12 48 l 25
 16 48 l 25
 16 52 l 25
 20 52 l 25
 20 56 l 25
12 36 m 25
 28 36 l 25
 28 8 l 25
 40 8 l 25
 40 0 l 25
 8 0 l 25
 8 8 l 25
 20 8 l 25
 20 28 l 25
 12 28 l 25
 12 36 l 25
EndSplineSet
EndChar

StartChar: LiDier
Encoding: 161 239 161
Width: 48
VWidth: 0
Flags: HMW
LayerCount: 2
Fore
SplineSet
28 56 m 25
 36 56 l 25
 36 48 l 25
 28 48 l 25
 28 56 l 25
12 56 m 25
 20 56 l 25
 20 48 l 25
 12 48 l 25
 12 56 l 25
12 36 m 25
 28 36 l 25
 28 8 l 25
 40 8 l 25
 40 0 l 25
 8 0 l 25
 8 8 l 25
 20 8 l 25
 20 28 l 25
 12 28 l 25
 12 36 l 25
EndSplineSet
EndChar

StartChar: LcapOAcute
Encoding: 162 211 162
Width: 48
VWidth: 0
Flags: HMW
LayerCount: 2
Fore
SplineSet
28 56 m 25
 36 56 l 25
 36 52 l 25
 32 52 l 25
 32 48 l 25
 28 48 l 25
 28 44 l 25
 20 44 l 25
 20 48 l 25
 24 48 l 25
 24 52 l 25
 28 52 l 25
 28 56 l 25
20 36 m 25
 20 32 l 25
 16 32 l 25
 16 8 l 25
 20 8 l 25
 20 4 l 25
 28 4 l 25
 28 8 l 25
 32 8 l 25
 32 32 l 25
 28 32 l 25
 28 36 l 25
 20 36 l 25
16 40 m 25
 32 40 l 25
 32 36 l 25
 36 36 l 25
 36 32 l 25
 40 32 l 25
 40 8 l 25
 36 8 l 25
 36 4 l 25
 32 4 l 25
 32 0 l 25
 16 0 l 25
 16 4 l 25
 12 4 l 25
 12 8 l 25
 8 8 l 25
 8 32 l 25
 12 32 l 25
 12 36 l 25
 16 36 l 25
 16 40 l 25
EndSplineSet
EndChar

StartChar: LcapOGrave
Encoding: 163 210 163
Width: 48
VWidth: 0
Flags: HMW
LayerCount: 2
Fore
SplineSet
20 56 m 25
 20 52 l 25
 24 52 l 25
 24 48 l 25
 28 48 l 25
 28 44 l 25
 20 44 l 25
 20 48 l 25
 16 48 l 25
 16 52 l 25
 12 52 l 25
 12 56 l 25
 20 56 l 25
20 36 m 25
 20 32 l 25
 16 32 l 25
 16 8 l 25
 20 8 l 25
 20 4 l 25
 28 4 l 25
 28 8 l 25
 32 8 l 25
 32 32 l 25
 28 32 l 25
 28 36 l 25
 20 36 l 25
16 40 m 25
 32 40 l 25
 32 36 l 25
 36 36 l 25
 36 32 l 25
 40 32 l 25
 40 8 l 25
 36 8 l 25
 36 4 l 25
 32 4 l 25
 32 0 l 25
 16 0 l 25
 16 4 l 25
 12 4 l 25
 12 8 l 25
 8 8 l 25
 8 32 l 25
 12 32 l 25
 12 36 l 25
 16 36 l 25
 16 40 l 25
EndSplineSet
EndChar

StartChar: LcapOCaret
Encoding: 164 212 164
Width: 48
VWidth: 0
Flags: HMW
LayerCount: 2
Fore
SplineSet
20 56 m 25
 28 56 l 25
 28 52 l 25
 32 52 l 25
 32 48 l 25
 36 48 l 25
 36 44 l 25
 28 44 l 25
 28 48 l 25
 20 48 l 25
 20 44 l 25
 12 44 l 25
 12 48 l 25
 16 48 l 25
 16 52 l 25
 20 52 l 25
 20 56 l 25
20 36 m 25
 20 32 l 25
 16 32 l 25
 16 8 l 25
 20 8 l 25
 20 4 l 25
 28 4 l 25
 28 8 l 25
 32 8 l 25
 32 32 l 25
 28 32 l 25
 28 36 l 25
 20 36 l 25
16 40 m 25
 32 40 l 25
 32 36 l 25
 36 36 l 25
 36 32 l 25
 40 32 l 25
 40 8 l 25
 36 8 l 25
 36 4 l 25
 32 4 l 25
 32 0 l 25
 16 0 l 25
 16 4 l 25
 12 4 l 25
 12 8 l 25
 8 8 l 25
 8 32 l 25
 12 32 l 25
 12 36 l 25
 16 36 l 25
 16 40 l 25
EndSplineSet
EndChar

StartChar: LcapODier
Encoding: 165 214 165
Width: 48
VWidth: 0
Flags: HMW
LayerCount: 2
Fore
SplineSet
28 56 m 25
 36 56 l 25
 36 48 l 25
 28 48 l 25
 28 56 l 25
12 56 m 25
 20 56 l 25
 20 48 l 25
 12 48 l 25
 12 56 l 25
20 36 m 25
 20 32 l 25
 16 32 l 25
 16 8 l 25
 20 8 l 25
 20 4 l 25
 28 4 l 25
 28 8 l 25
 32 8 l 25
 32 32 l 25
 28 32 l 25
 28 36 l 25
 20 36 l 25
16 40 m 25
 32 40 l 25
 32 36 l 25
 36 36 l 25
 36 32 l 25
 40 32 l 25
 40 8 l 25
 36 8 l 25
 36 4 l 25
 32 4 l 25
 32 0 l 25
 16 0 l 25
 16 4 l 25
 12 4 l 25
 12 8 l 25
 8 8 l 25
 8 32 l 25
 12 32 l 25
 12 36 l 25
 16 36 l 25
 16 40 l 25
EndSplineSet
EndChar

StartChar: LoAcute
Encoding: 166 243 166
Width: 48
VWidth: 0
Flags: HMW
LayerCount: 2
Fore
SplineSet
28 56 m 25
 36 56 l 25
 36 52 l 25
 32 52 l 25
 32 48 l 25
 28 48 l 25
 28 44 l 25
 20 44 l 25
 20 48 l 25
 24 48 l 25
 24 52 l 25
 28 52 l 25
 28 56 l 25
16 28 m 25
 16 24 l 25
 12 24 l 25
 12 12 l 25
 16 12 l 25
 16 8 l 25
 32 8 l 25
 32 12 l 25
 36 12 l 25
 36 24 l 25
 32 24 l 25
 32 28 l 25
 16 28 l 25
12 36 m 25
 36 36 l 25
 36 32 l 25
 40 32 l 25
 40 28 l 25
 44 28 l 25
 44 8 l 25
 40 8 l 25
 40 4 l 25
 36 4 l 25
 36 0 l 25
 12 0 l 25
 12 4 l 25
 8 4 l 25
 8 8 l 25
 4 8 l 25
 4 28 l 25
 8 28 l 25
 8 32 l 25
 12 32 l 25
 12 36 l 25
EndSplineSet
EndChar

StartChar: LoGrave
Encoding: 167 242 167
Width: 48
VWidth: 0
Flags: HMW
LayerCount: 2
Fore
SplineSet
20 56 m 25
 20 52 l 25
 24 52 l 25
 24 48 l 25
 28 48 l 25
 28 44 l 25
 20 44 l 25
 20 48 l 25
 16 48 l 25
 16 52 l 25
 12 52 l 25
 12 56 l 25
 20 56 l 25
16 28 m 25
 16 24 l 25
 12 24 l 25
 12 12 l 25
 16 12 l 25
 16 8 l 25
 32 8 l 25
 32 12 l 25
 36 12 l 25
 36 24 l 25
 32 24 l 25
 32 28 l 25
 16 28 l 25
12 36 m 25
 36 36 l 25
 36 32 l 25
 40 32 l 25
 40 28 l 25
 44 28 l 25
 44 8 l 25
 40 8 l 25
 40 4 l 25
 36 4 l 25
 36 0 l 25
 12 0 l 25
 12 4 l 25
 8 4 l 25
 8 8 l 25
 4 8 l 25
 4 28 l 25
 8 28 l 25
 8 32 l 25
 12 32 l 25
 12 36 l 25
EndSplineSet
EndChar

StartChar: LoCaret
Encoding: 168 244 168
Width: 48
VWidth: 0
Flags: HMW
LayerCount: 2
Fore
SplineSet
20 56 m 25
 28 56 l 25
 28 52 l 25
 32 52 l 25
 32 48 l 25
 36 48 l 25
 36 44 l 25
 28 44 l 25
 28 48 l 25
 20 48 l 25
 20 44 l 25
 12 44 l 25
 12 48 l 25
 16 48 l 25
 16 52 l 25
 20 52 l 25
 20 56 l 25
16 28 m 25
 16 24 l 25
 12 24 l 25
 12 12 l 25
 16 12 l 25
 16 8 l 25
 32 8 l 25
 32 12 l 25
 36 12 l 25
 36 24 l 25
 32 24 l 25
 32 28 l 25
 16 28 l 25
12 36 m 25
 36 36 l 25
 36 32 l 25
 40 32 l 25
 40 28 l 25
 44 28 l 25
 44 8 l 25
 40 8 l 25
 40 4 l 25
 36 4 l 25
 36 0 l 25
 12 0 l 25
 12 4 l 25
 8 4 l 25
 8 8 l 25
 4 8 l 25
 4 28 l 25
 8 28 l 25
 8 32 l 25
 12 32 l 25
 12 36 l 25
EndSplineSet
EndChar

StartChar: LoDier
Encoding: 169 246 169
Width: 48
VWidth: 0
Flags: HMW
LayerCount: 2
Fore
SplineSet
28 56 m 25
 36 56 l 25
 36 48 l 25
 28 48 l 25
 28 56 l 25
12 56 m 25
 20 56 l 25
 20 48 l 25
 12 48 l 25
 12 56 l 25
16 28 m 25
 16 24 l 25
 12 24 l 25
 12 12 l 25
 16 12 l 25
 16 8 l 25
 32 8 l 25
 32 12 l 25
 36 12 l 25
 36 24 l 25
 32 24 l 25
 32 28 l 25
 16 28 l 25
12 36 m 25
 36 36 l 25
 36 32 l 25
 40 32 l 25
 40 28 l 25
 44 28 l 25
 44 8 l 25
 40 8 l 25
 40 4 l 25
 36 4 l 25
 36 0 l 25
 12 0 l 25
 12 4 l 25
 8 4 l 25
 8 8 l 25
 4 8 l 25
 4 28 l 25
 8 28 l 25
 8 32 l 25
 12 32 l 25
 12 36 l 25
EndSplineSet
EndChar

StartChar: LcapUAcute
Encoding: 170 218 170
Width: 48
VWidth: 0
Flags: HMW
LayerCount: 2
Fore
SplineSet
28 56 m 25
 36 56 l 25
 36 52 l 25
 32 52 l 25
 32 48 l 25
 28 48 l 25
 28 44 l 25
 20 44 l 25
 20 48 l 25
 24 48 l 25
 24 52 l 25
 28 52 l 25
 28 56 l 25
4 40 m 25
 12 40 l 25
 12 12 l 25
 16 12 l 25
 16 8 l 25
 32 8 l 25
 32 12 l 25
 36 12 l 25
 36 40 l 25
 44 40 l 25
 44 12 l 25
 40 12 l 25
 40 4 l 25
 36 4 l 25
 36 0 l 25
 12 0 l 25
 12 4 l 25
 8 4 l 25
 8 12 l 25
 4 12 l 25
 4 40 l 25
EndSplineSet
EndChar

StartChar: LcapUGrave
Encoding: 171 217 171
Width: 48
VWidth: 0
Flags: HMW
LayerCount: 2
Fore
SplineSet
20 56 m 25
 20 52 l 25
 24 52 l 25
 24 48 l 25
 28 48 l 25
 28 44 l 25
 20 44 l 25
 20 48 l 25
 16 48 l 25
 16 52 l 25
 12 52 l 25
 12 56 l 25
 20 56 l 25
4 40 m 25
 12 40 l 25
 12 12 l 25
 16 12 l 25
 16 8 l 25
 32 8 l 25
 32 12 l 25
 36 12 l 25
 36 40 l 25
 44 40 l 25
 44 12 l 25
 40 12 l 25
 40 4 l 25
 36 4 l 25
 36 0 l 25
 12 0 l 25
 12 4 l 25
 8 4 l 25
 8 12 l 25
 4 12 l 25
 4 40 l 25
EndSplineSet
EndChar

StartChar: LcapUCaret
Encoding: 172 219 172
Width: 48
VWidth: 0
Flags: HMW
LayerCount: 2
Fore
SplineSet
20 56 m 25
 28 56 l 25
 28 52 l 25
 32 52 l 25
 32 48 l 25
 36 48 l 25
 36 44 l 25
 28 44 l 25
 28 48 l 25
 20 48 l 25
 20 44 l 25
 12 44 l 25
 12 48 l 25
 16 48 l 25
 16 52 l 25
 20 52 l 25
 20 56 l 25
4 40 m 25
 12 40 l 25
 12 12 l 25
 16 12 l 25
 16 8 l 25
 32 8 l 25
 32 12 l 25
 36 12 l 25
 36 40 l 25
 44 40 l 25
 44 12 l 25
 40 12 l 25
 40 4 l 25
 36 4 l 25
 36 0 l 25
 12 0 l 25
 12 4 l 25
 8 4 l 25
 8 12 l 25
 4 12 l 25
 4 40 l 25
EndSplineSet
EndChar

StartChar: LcapUDier
Encoding: 173 220 173
Width: 48
VWidth: 0
Flags: HMW
LayerCount: 2
Fore
SplineSet
28 56 m 25
 36 56 l 25
 36 48 l 25
 28 48 l 25
 28 56 l 25
12 56 m 25
 20 56 l 25
 20 48 l 25
 12 48 l 25
 12 56 l 25
4 40 m 25
 12 40 l 25
 12 12 l 25
 16 12 l 25
 16 8 l 25
 32 8 l 25
 32 12 l 25
 36 12 l 25
 36 40 l 25
 44 40 l 25
 44 12 l 25
 40 12 l 25
 40 4 l 25
 36 4 l 25
 36 0 l 25
 12 0 l 25
 12 4 l 25
 8 4 l 25
 8 12 l 25
 4 12 l 25
 4 40 l 25
EndSplineSet
EndChar

StartChar: LuAcute
Encoding: 174 250 174
Width: 48
VWidth: 0
Flags: HMW
LayerCount: 2
Fore
SplineSet
28 56 m 25
 36 56 l 25
 36 52 l 25
 32 52 l 25
 32 48 l 25
 28 48 l 25
 28 44 l 25
 20 44 l 25
 20 48 l 25
 24 48 l 25
 24 52 l 25
 28 52 l 25
 28 56 l 25
4 36 m 25
 12 36 l 25
 12 12 l 25
 16 12 l 25
 16 8 l 25
 32 8 l 25
 32 12 l 25
 36 12 l 25
 36 36 l 25
 44 36 l 25
 44 0 l 25
 36 0 l 25
 36 4 l 25
 32 4 l 25
 32 0 l 25
 12 0 l 25
 12 4 l 25
 8 4 l 25
 8 8 l 25
 4 8 l 25
 4 36 l 25
EndSplineSet
EndChar

StartChar: LuGrave
Encoding: 175 249 175
Width: 48
VWidth: 0
Flags: HMW
LayerCount: 2
Fore
SplineSet
20 56 m 25
 20 52 l 25
 24 52 l 25
 24 48 l 25
 28 48 l 25
 28 44 l 25
 20 44 l 25
 20 48 l 25
 16 48 l 25
 16 52 l 25
 12 52 l 25
 12 56 l 25
 20 56 l 25
4 36 m 25
 12 36 l 25
 12 12 l 25
 16 12 l 25
 16 8 l 25
 32 8 l 25
 32 12 l 25
 36 12 l 25
 36 36 l 25
 44 36 l 25
 44 0 l 25
 36 0 l 25
 36 4 l 25
 32 4 l 25
 32 0 l 25
 12 0 l 25
 12 4 l 25
 8 4 l 25
 8 8 l 25
 4 8 l 25
 4 36 l 25
EndSplineSet
EndChar

StartChar: LuCaret
Encoding: 176 251 176
Width: 48
VWidth: 0
Flags: HMW
LayerCount: 2
Fore
SplineSet
20 56 m 25
 28 56 l 25
 28 52 l 25
 32 52 l 25
 32 48 l 25
 36 48 l 25
 36 44 l 25
 28 44 l 25
 28 48 l 25
 20 48 l 25
 20 44 l 25
 12 44 l 25
 12 48 l 25
 16 48 l 25
 16 52 l 25
 20 52 l 25
 20 56 l 25
4 36 m 25
 12 36 l 25
 12 12 l 25
 16 12 l 25
 16 8 l 25
 32 8 l 25
 32 12 l 25
 36 12 l 25
 36 36 l 25
 44 36 l 25
 44 0 l 25
 36 0 l 25
 36 4 l 25
 32 4 l 25
 32 0 l 25
 12 0 l 25
 12 4 l 25
 8 4 l 25
 8 8 l 25
 4 8 l 25
 4 36 l 25
EndSplineSet
EndChar

StartChar: LuDier
Encoding: 177 252 177
Width: 48
VWidth: 0
Flags: HMW
LayerCount: 2
Fore
SplineSet
28 56 m 25
 36 56 l 25
 36 48 l 25
 28 48 l 25
 28 56 l 25
12 56 m 25
 20 56 l 25
 20 48 l 25
 12 48 l 25
 12 56 l 25
4 36 m 25
 12 36 l 25
 12 12 l 25
 16 12 l 25
 16 8 l 25
 32 8 l 25
 32 12 l 25
 36 12 l 25
 36 36 l 25
 44 36 l 25
 44 0 l 25
 36 0 l 25
 36 4 l 25
 32 4 l 25
 32 0 l 25
 12 0 l 25
 12 4 l 25
 8 4 l 25
 8 8 l 25
 4 8 l 25
 4 36 l 25
EndSplineSet
EndChar

StartChar: LcapCCed
Encoding: 178 199 178
Width: 48
VWidth: 0
Flags: HMW
LayerCount: 2
Fore
SplineSet
16 56 m 25
 36 56 l 25
 36 52 l 25
 40 52 l 25
 40 48 l 25
 44 48 l 25
 44 40 l 25
 36 40 l 25
 36 44 l 25
 32 44 l 25
 32 48 l 25
 20 48 l 25
 20 44 l 25
 16 44 l 25
 16 40 l 25
 12 40 l 25
 12 28 l 25
 16 28 l 25
 16 24 l 25
 20 24 l 25
 20 20 l 25
 32 20 l 25
 32 24 l 25
 36 24 l 25
 36 28 l 25
 44 28 l 25
 44 20 l 25
 40 20 l 25
 40 16 l 25
 36 16 l 25
 36 12 l 25
 32 12 l 25
 32 4 l 25
 28 4 l 25
 28 0 l 25
 20 0 l 25
 20 4 l 25
 24 4 l 25
 24 12 l 25
 16 12 l 25
 16 16 l 25
 12 16 l 25
 12 20 l 25
 8 20 l 25
 8 28 l 25
 4 28 l 25
 4 40 l 25
 8 40 l 25
 8 48 l 25
 12 48 l 25
 12 52 l 25
 16 52 l 25
 16 56 l 25
EndSplineSet
EndChar

StartChar: LcCed
Encoding: 179 231 179
Width: 48
VWidth: 0
Flags: HMW
LayerCount: 2
Fore
SplineSet
12 36 m 25
 32 36 l 25
 32 32 l 25
 36 32 l 25
 36 28 l 25
 16 28 l 25
 16 24 l 25
 12 24 l 25
 12 20 l 25
 16 20 l 25
 16 16 l 25
 36 16 l 25
 36 20 l 25
 44 20 l 25
 44 16 l 25
 40 16 l 25
 40 12 l 25
 36 12 l 25
 36 8 l 25
 28 8 l 25
 28 4 l 25
 24 4 l 25
 24 0 l 25
 16 0 l 25
 16 4 l 25
 20 4 l 25
 20 8 l 25
 12 8 l 25
 12 12 l 25
 8 12 l 25
 8 16 l 25
 4 16 l 25
 4 28 l 25
 8 28 l 25
 8 32 l 25
 12 32 l 25
 12 36 l 25
EndSplineSet
EndChar

StartChar: LcapNTilde
Encoding: 180 209 180
Width: 48
VWidth: 0
Flags: HMW
LayerCount: 2
Fore
SplineSet
8 52 m 25
 12 52 l 25
 12 56 l 25
 24 56 l 25
 24 52 l 25
 28 52 l 25
 28 48 l 25
 32 48 l 25
 32 52 l 25
 40 52 l 25
 40 48 l 25
 36 48 l 25
 36 44 l 25
 24 44 l 25
 24 48 l 25
 20 48 l 25
 20 52 l 25
 16 52 l 25
 16 48 l 25
 8 48 l 25
 8 52 l 25
4 40 m 25
 12 40 l 25
 12 36 l 25
 16 36 l 25
 16 32 l 25
 20 32 l 25
 20 28 l 25
 24 28 l 25
 24 24 l 25
 28 24 l 25
 28 20 l 25
 32 20 l 25
 32 12 l 25
 36 12 l 25
 36 40 l 25
 44 40 l 25
 44 0 l 25
 36 0 l 25
 36 4 l 25
 32 4 l 25
 32 8 l 25
 28 8 l 25
 28 12 l 25
 24 12 l 25
 24 16 l 25
 20 16 l 25
 20 20 l 25
 16 20 l 25
 16 28 l 25
 12 28 l 25
 12 0 l 25
 4 0 l 25
 4 40 l 25
EndSplineSet
EndChar

StartChar: LnTilde
Encoding: 181 241 181
Width: 48
VWidth: 0
Flags: HMW
LayerCount: 2
Fore
SplineSet
8 52 m 25
 12 52 l 25
 12 56 l 25
 24 56 l 25
 24 52 l 25
 28 52 l 25
 28 48 l 25
 32 48 l 25
 32 52 l 25
 40 52 l 25
 40 48 l 25
 36 48 l 25
 36 44 l 25
 24 44 l 25
 24 48 l 25
 20 48 l 25
 20 52 l 25
 16 52 l 25
 16 48 l 25
 8 48 l 25
 8 52 l 25
4 36 m 25
 12 36 l 25
 12 28 l 25
 16 28 l 25
 16 32 l 25
 20 32 l 25
 20 36 l 25
 36 36 l 25
 36 32 l 25
 40 32 l 25
 40 28 l 25
 44 28 l 25
 44 0 l 25
 36 0 l 25
 36 24 l 25
 32 24 l 25
 32 28 l 25
 16 28 l 25
 16 20 l 25
 12 20 l 25
 12 0 l 25
 4 0 l 25
 4 36 l 25
EndSplineSet
EndChar

StartChar: Laccent
Encoding: 182 180 182
Width: 48
VWidth: 0
Flags: HMW
LayerCount: 2
Fore
SplineSet
36 56 m 25
 44 56 l 25
 44 48 l 25
 40 48 l 25
 40 44 l 25
 36 44 l 25
 36 40 l 25
 32 40 l 25
 32 36 l 25
 28 36 l 25
 28 32 l 25
 16 32 l 25
 16 36 l 25
 20 36 l 25
 20 40 l 25
 24 40 l 25
 24 44 l 25
 28 44 l 25
 28 48 l 25
 32 48 l 25
 32 52 l 25
 36 52 l 25
 36 56 l 25
EndSplineSet
EndChar

StartChar: Lgrave
Encoding: 183 96 183
AltUni2: 000158.ffffffff.0
Width: 48
VWidth: 0
Flags: HMW
LayerCount: 2
Fore
SplineSet
12 56 m 25
 12 52 l 25
 16 52 l 25
 16 48 l 25
 20 48 l 25
 20 44 l 25
 24 44 l 25
 24 40 l 25
 28 40 l 25
 28 36 l 25
 32 36 l 25
 32 32 l 25
 20 32 l 25
 20 36 l 25
 16 36 l 25
 16 40 l 25
 12 40 l 25
 12 44 l 25
 8 44 l 25
 8 48 l 25
 4 48 l 25
 4 56 l 25
 12 56 l 25
EndSplineSet
EndChar

StartChar: Ldieresis
Encoding: 184 168 184
Width: 48
VWidth: 0
Flags: HMW
LayerCount: 2
Fore
SplineSet
28 48 m 25
 36 48 l 25
 36 40 l 25
 28 40 l 25
 28 48 l 25
12 48 m 25
 20 48 l 25
 20 40 l 25
 12 40 l 25
 12 48 l 25
EndSplineSet
EndChar

StartChar: LquesDown
Encoding: 185 191 185
Width: 48
VWidth: 0
Flags: HMW
LayerCount: 2
Fore
SplineSet
20 48 m 25
 20 56 l 25
 28 56 l 25
 28 48 l 25
 20 48 l 25
4 8 m 25
 4 20 l 25
 12 20 l 25
 12 12 l 25
 16 12 l 25
 16 8 l 25
 32 8 l 25
 32 12 l 25
 36 12 l 25
 36 16 l 25
 32 16 l 25
 32 20 l 25
 28 20 l 25
 28 24 l 25
 24 24 l 25
 24 28 l 25
 20 28 l 25
 20 44 l 25
 28 44 l 25
 28 32 l 25
 32 32 l 25
 32 28 l 25
 36 28 l 25
 36 24 l 25
 40 24 l 25
 40 20 l 25
 44 20 l 25
 44 8 l 25
 40 8 l 25
 40 4 l 25
 36 4 l 25
 36 0 l 25
 12 0 l 25
 12 4 l 25
 8 4 l 25
 8 8 l 25
 4 8 l 25
EndSplineSet
EndChar

StartChar: LexclamDown
Encoding: 186 161 186
Width: 48
VWidth: 0
Flags: HMW
LayerCount: 2
Fore
SplineSet
20 48 m 25
 20 56 l 25
 28 56 l 25
 28 48 l 25
 20 48 l 25
20 0 m 25
 20 8 l 25
 16 8 l 25
 16 28 l 25
 20 28 l 25
 20 40 l 25
 28 40 l 25
 28 28 l 25
 32 28 l 25
 32 8 l 25
 28 8 l 25
 28 0 l 25
 20 0 l 25
EndSplineSet
EndChar

StartChar: Lalpha
Encoding: 187 945 187
Width: 48
VWidth: 0
Flags: HMW
LayerCount: 2
Fore
SplineSet
16 20 m 25
 12 20 l 25
 12 12 l 25
 16 12 l 25
 16 8 l 25
 24 8 l 25
 24 12 l 25
 28 12 l 25
 28 20 l 25
 24 20 l 25
 24 24 l 25
 16 24 l 25
 16 20 l 25
12 32 m 25
 24 32 l 25
 24 28 l 25
 28 28 l 25
 28 24 l 25
 32 24 l 25
 32 32 l 25
 36 32 l 25
 36 36 l 25
 44 36 l 25
 44 28 l 25
 40 28 l 25
 40 24 l 25
 36 24 l 25
 36 12 l 25
 40 12 l 25
 40 8 l 25
 44 8 l 25
 44 0 l 25
 36 0 l 25
 36 4 l 25
 32 4 l 25
 32 8 l 25
 28 8 l 25
 28 4 l 25
 24 4 l 25
 24 0 l 25
 12 0 l 25
 12 4 l 25
 8 4 l 25
 8 8 l 25
 4 8 l 25
 4 24 l 25
 8 24 l 25
 8 28 l 25
 12 28 l 25
 12 32 l 25
EndSplineSet
EndChar

StartChar: Lbeta
Encoding: 188 946 188
Width: 48
VWidth: 0
Flags: HMW
LayerCount: 2
Fore
SplineSet
20 28 m 25
 20 24 l 25
 16 24 l 25
 16 16 l 25
 20 16 l 25
 20 12 l 25
 28 12 l 25
 28 16 l 25
 32 16 l 25
 32 24 l 25
 28 24 l 25
 28 28 l 25
 20 28 l 25
20 48 m 25
 16 48 l 25
 16 36 l 25
 24 36 l 25
 24 32 l 25
 28 32 l 25
 28 36 l 25
 32 36 l 25
 32 48 l 25
 28 48 l 25
 28 52 l 25
 20 52 l 25
 20 48 l 25
8 52 m 25
 12 52 l 25
 12 56 l 25
 32 56 l 25
 32 52 l 25
 36 52 l 25
 36 48 l 25
 40 48 l 25
 40 36 l 25
 36 36 l 25
 36 32 l 25
 32 32 l 25
 32 28 l 25
 36 28 l 25
 36 24 l 25
 40 24 l 25
 40 12 l 25
 36 12 l 25
 36 8 l 25
 16 8 l 25
 16 0 l 25
 8 0 l 25
 8 52 l 25
EndSplineSet
EndChar

StartChar: Lgamma
Encoding: 189 947 189
Width: 48
VWidth: 0
Flags: HMW
LayerCount: 2
Fore
SplineSet
4 32 m 25
 8 32 l 25
 8 36 l 25
 12 36 l 25
 12 40 l 25
 16 40 l 25
 16 36 l 25
 20 36 l 25
 20 32 l 25
 24 32 l 25
 24 24 l 25
 32 24 l 25
 32 32 l 25
 36 32 l 25
 36 36 l 25
 40 36 l 25
 40 40 l 25
 44 40 l 25
 44 32 l 25
 40 32 l 25
 40 28 l 25
 36 28 l 25
 36 24 l 25
 32 24 l 25
 32 0 l 25
 24 0 l 25
 24 24 l 25
 20 24 l 25
 20 28 l 25
 16 28 l 25
 16 32 l 25
 12 32 l 25
 12 28 l 25
 8 28 l 25
 8 24 l 25
 4 24 l 25
 4 32 l 25
EndSplineSet
EndChar

StartChar: LcapDelta
Encoding: 190 8710 190
AltUni2: 00f024.ffffffff.0 000394.ffffffff.0
Width: 48
VWidth: 0
Flags: HMW
LayerCount: 2
Fore
SplineSet
12 16 m 25
 12 8 l 25
 36 8 l 25
 36 16 l 25
 32 16 l 25
 32 20 l 25
 28 20 l 25
 28 24 l 25
 20 24 l 25
 20 20 l 25
 16 20 l 25
 16 16 l 25
 12 16 l 25
4 16 m 25
 8 16 l 25
 8 20 l 25
 12 20 l 25
 12 24 l 25
 16 24 l 25
 16 28 l 25
 20 28 l 25
 20 32 l 25
 28 32 l 25
 28 28 l 25
 32 28 l 25
 32 24 l 25
 36 24 l 25
 36 20 l 25
 40 20 l 25
 40 16 l 25
 44 16 l 25
 44 0 l 25
 4 0 l 25
 4 16 l 25
EndSplineSet
EndChar

StartChar: Ldelta
Encoding: 191 948 191
Width: 48
VWidth: 0
Flags: HMW
LayerCount: 2
Fore
SplineSet
16 20 m 25
 12 20 l 25
 12 12 l 25
 16 12 l 25
 16 8 l 25
 28 8 l 25
 28 12 l 25
 32 12 l 25
 32 20 l 25
 28 20 l 25
 28 24 l 25
 16 24 l 25
 16 20 l 25
12 56 m 25
 36 56 l 25
 36 48 l 25
 16 48 l 25
 16 40 l 25
 24 40 l 25
 24 36 l 25
 28 36 l 25
 28 32 l 25
 32 32 l 25
 32 28 l 25
 36 28 l 25
 36 24 l 25
 40 24 l 25
 40 8 l 25
 36 8 l 25
 36 4 l 25
 32 4 l 25
 32 0 l 25
 12 0 l 25
 12 4 l 25
 8 4 l 25
 8 8 l 25
 4 8 l 25
 4 24 l 25
 8 24 l 25
 8 28 l 25
 24 28 l 25
 24 32 l 25
 20 32 l 25
 20 36 l 25
 12 36 l 25
 12 40 l 25
 8 40 l 25
 8 52 l 25
 12 52 l 25
 12 56 l 25
EndSplineSet
EndChar

StartChar: Lepsilon
Encoding: 192 949 192
Width: 48
VWidth: 0
Flags: HMW
LayerCount: 2
Fore
SplineSet
12 40 m 25
 36 40 l 1
 36 32 l 25
 16 32 l 25
 16 28 l 25
 12 28 l 25
 12 24 l 25
 36 24 l 25
 36 16 l 25
 12 16 l 25
 12 12 l 25
 16 12 l 25
 16 8 l 25
 36 8 l 25
 36 0 l 25
 12 0 l 25
 12 4 l 25
 8 4 l 25
 8 8 l 25
 4 8 l 25
 4 32 l 25
 8 32 l 25
 8 36 l 25
 12 36 l 1
 12 40 l 25
EndSplineSet
EndChar

StartChar: LlBrack
Encoding: 193 91 193
Width: 48
VWidth: 0
Flags: HMW
LayerCount: 2
Fore
SplineSet
12 56 m 25
 36 56 l 25
 36 48 l 25
 20 48 l 25
 20 8 l 25
 36 8 l 25
 36 0 l 25
 12 0 l 25
 12 56 l 25
EndSplineSet
EndChar

StartChar: Llambda
Encoding: 194 955 194
Width: 48
VWidth: 0
Flags: HMW
LayerCount: 2
Fore
SplineSet
12 48 m 25
 20 48 l 25
 20 44 l 25
 24 44 l 25
 24 40 l 25
 28 40 l 25
 28 32 l 25
 32 32 l 25
 32 24 l 25
 36 24 l 25
 36 16 l 25
 40 16 l 25
 40 8 l 25
 44 8 l 25
 44 0 l 25
 36 0 l 25
 36 8 l 25
 32 8 l 25
 32 16 l 25
 28 16 l 25
 28 24 l 25
 24 24 l 25
 24 20 l 25
 20 20 l 25
 20 16 l 25
 16 16 l 25
 16 8 l 25
 12 8 l 25
 12 0 l 25
 4 0 l 25
 4 8 l 25
 8 8 l 25
 8 16 l 25
 12 16 l 25
 12 20 l 25
 16 20 l 25
 16 28 l 25
 20 28 l 25
 20 36 l 25
 16 36 l 25
 16 40 l 25
 12 40 l 25
 12 48 l 25
EndSplineSet
EndChar

StartChar: Lmu
Encoding: 195 956 195
AltUni2: 0000b5.ffffffff.0
Width: 48
VWidth: 0
Flags: HMW
LayerCount: 2
Fore
SplineSet
4 44 m 25
 12 44 l 25
 12 16 l 25
 32 16 l 25
 32 20 l 25
 36 20 l 25
 36 44 l 25
 44 44 l 25
 44 8 l 25
 36 8 l 25
 36 12 l 25
 32 12 l 25
 32 8 l 25
 12 8 l 25
 12 0 l 25
 4 0 l 25
 4 44 l 25
EndSplineSet
EndChar

StartChar: Lpi
Encoding: 196 960 196
Width: 48
VWidth: 0
Flags: HMW
LayerCount: 2
Fore
SplineSet
8 40 m 25
 44 40 l 25
 44 32 l 25
 36 32 l 25
 36 8 l 25
 40 8 l 25
 40 12 l 25
 44 12 l 25
 44 4 l 25
 40 4 l 25
 40 0 l 25
 32 0 l 25
 32 4 l 25
 28 4 l 25
 28 32 l 25
 20 32 l 25
 20 8 l 25
 16 8 l 25
 16 0 l 25
 8 0 l 25
 8 8 l 25
 12 8 l 25
 12 32 l 25
 8 32 l 25
 8 28 l 25
 4 28 l 25
 4 36 l 25
 8 36 l 25
 8 40 l 25
EndSplineSet
EndChar

StartChar: Lrho
Encoding: 197 961 197
Width: 48
VWidth: 0
Flags: HMW
LayerCount: 2
Fore
SplineSet
24 40 m 25
 24 36 l 25
 20 36 l 25
 20 28 l 25
 24 28 l 25
 24 24 l 25
 32 24 l 25
 32 28 l 25
 36 28 l 25
 36 36 l 25
 32 36 l 25
 32 40 l 25
 24 40 l 25
20 48 m 25
 36 48 l 25
 36 44 l 25
 40 44 l 25
 40 40 l 25
 44 40 l 25
 44 24 l 25
 40 24 l 25
 40 20 l 25
 36 20 l 25
 36 16 l 25
 24 16 l 25
 24 20 l 25
 20 20 l 25
 20 8 l 25
 16 8 l 25
 16 4 l 25
 12 4 l 25
 12 0 l 25
 4 0 l 25
 4 8 l 25
 8 8 l 25
 8 12 l 25
 12 12 l 25
 12 40 l 25
 16 40 l 25
 16 44 l 25
 20 44 l 25
 20 48 l 25
EndSplineSet
EndChar

StartChar: LcapSigma
Encoding: 198 931 198
Width: 48
VWidth: 0
Flags: HMW
LayerCount: 2
Fore
SplineSet
4 56 m 25
 44 56 l 25
 44 48 l 25
 20 48 l 25
 20 44 l 25
 24 44 l 25
 24 40 l 25
 28 40 l 25
 28 36 l 25
 32 36 l 25
 32 32 l 25
 36 32 l 25
 36 24 l 25
 32 24 l 25
 32 20 l 25
 28 20 l 25
 28 16 l 25
 24 16 l 25
 24 12 l 25
 20 12 l 25
 20 8 l 25
 44 8 l 25
 44 0 l 25
 4 0 l 25
 4 8 l 25
 8 8 l 25
 8 12 l 25
 12 12 l 25
 12 16 l 25
 16 16 l 25
 16 20 l 25
 20 20 l 25
 20 24 l 25
 24 24 l 25
 24 32 l 25
 20 32 l 25
 20 36 l 25
 16 36 l 25
 16 40 l 25
 12 40 l 25
 12 44 l 25
 8 44 l 25
 8 48 l 25
 4 48 l 25
 4 56 l 25
EndSplineSet
EndChar

StartChar: Lsigma
Encoding: 199 963 199
Width: 48
VWidth: 0
Flags: HMW
LayerCount: 2
Fore
SplineSet
16 32 m 25
 16 28 l 25
 12 28 l 25
 12 12 l 25
 16 12 l 25
 16 8 l 25
 24 8 l 25
 24 12 l 25
 28 12 l 25
 28 28 l 25
 24 28 l 25
 24 32 l 25
 16 32 l 25
12 40 m 25
 44 40 l 25
 44 32 l 25
 32 32 l 25
 32 28 l 25
 36 28 l 25
 36 8 l 25
 32 8 l 25
 32 4 l 25
 28 4 l 25
 28 0 l 25
 12 0 l 25
 12 4 l 25
 8 4 l 25
 8 8 l 25
 4 8 l 25
 4 32 l 25
 8 32 l 25
 8 36 l 25
 12 36 l 25
 12 40 l 25
EndSplineSet
EndChar

StartChar: Ltau
Encoding: 200 964 200
Width: 48
VWidth: 0
Flags: HMW
LayerCount: 2
Fore
SplineSet
12 40 m 25
 44 40 l 25
 44 32 l 25
 28 32 l 25
 28 8 l 25
 32 8 l 25
 32 12 l 25
 36 12 l 25
 36 16 l 25
 44 16 l 25
 44 8 l 25
 40 8 l 25
 40 4 l 25
 36 4 l 25
 36 0 l 25
 28 0 l 25
 28 4 l 25
 24 4 l 25
 24 8 l 25
 20 8 l 25
 20 32 l 25
 16 32 l 25
 16 28 l 25
 12 28 l 25
 12 24 l 25
 4 24 l 25
 4 32 l 25
 8 32 l 25
 8 36 l 25
 12 36 l 25
 12 40 l 25
EndSplineSet
EndChar

StartChar: Lphi
Encoding: 201 981 201
AltUni2: 0003c6.ffffffff.0
Width: 48
VWidth: 0
Flags: HMW
LayerCount: 2
Fore
SplineSet
28 36 m 25
 28 20 l 25
 32 20 l 25
 32 24 l 25
 36 24 l 25
 36 32 l 25
 32 32 l 25
 32 36 l 25
 28 36 l 25
16 36 m 25
 16 32 l 25
 12 32 l 25
 12 24 l 25
 16 24 l 25
 16 20 l 25
 20 20 l 25
 20 36 l 25
 16 36 l 25
20 56 m 25
 28 56 l 25
 28 44 l 25
 32 44 l 25
 32 40 l 25
 40 40 l 25
 40 36 l 25
 44 36 l 25
 44 20 l 25
 40 20 l 25
 40 16 l 25
 32 16 l 25
 32 12 l 25
 28 12 l 25
 28 0 l 25
 20 0 l 25
 20 12 l 25
 16 12 l 25
 16 16 l 25
 8 16 l 25
 8 20 l 25
 4 20 l 25
 4 36 l 25
 8 36 l 25
 8 40 l 25
 16 40 l 25
 16 44 l 25
 20 44 l 25
 20 56 l 25
EndSplineSet
EndChar

StartChar: LcapOmega
Encoding: 202 937 202
Width: 48
VWidth: 0
Flags: HMW
LayerCount: 2
Fore
SplineSet
12 56 m 25
 36 56 l 25
 36 52 l 25
 40 52 l 25
 40 48 l 25
 44 48 l 25
 44 24 l 25
 40 24 l 25
 40 20 l 25
 36 20 l 25
 36 8 l 25
 40 8 l 25
 40 4 l 25
 44 4 l 25
 44 0 l 25
 28 0 l 25
 28 24 l 25
 32 24 l 25
 32 28 l 25
 36 28 l 25
 36 44 l 25
 32 44 l 25
 32 48 l 25
 16 48 l 25
 16 44 l 25
 12 44 l 25
 12 28 l 25
 16 28 l 25
 16 24 l 25
 20 24 l 25
 20 0 l 25
 4 0 l 25
 4 4 l 25
 8 4 l 25
 8 8 l 25
 12 8 l 25
 12 20 l 25
 8 20 l 25
 8 24 l 25
 4 24 l 25
 4 48 l 25
 8 48 l 25
 8 52 l 25
 12 52 l 25
 12 56 l 25
EndSplineSet
EndChar

StartChar: LxMean
Encoding: 203 61443 203
Width: 48
VWidth: 0
Flags: HMW
LayerCount: 2
Fore
SplineSet
8 36 m 25
 16 36 l 25
 16 32 l 25
 20 32 l 25
 20 28 l 25
 24 28 l 25
 24 24 l 25
 28 24 l 25
 28 28 l 25
 32 28 l 25
 32 32 l 25
 36 32 l 25
 36 36 l 25
 44 36 l 25
 44 28 l 25
 40 28 l 25
 40 24 l 25
 36 24 l 25
 36 20 l 25
 32 20 l 25
 32 16 l 25
 36 16 l 25
 36 12 l 25
 40 12 l 25
 40 8 l 25
 44 8 l 25
 44 0 l 25
 36 0 l 25
 36 4 l 25
 32 4 l 25
 32 8 l 25
 28 8 l 25
 28 12 l 25
 24 12 l 25
 24 8 l 25
 20 8 l 25
 20 4 l 25
 16 4 l 25
 16 0 l 25
 8 0 l 25
 8 8 l 25
 12 8 l 25
 12 12 l 25
 16 12 l 25
 16 16 l 25
 20 16 l 25
 20 20 l 25
 16 20 l 25
 16 24 l 25
 12 24 l 25
 12 28 l 25
 8 28 l 25
 8 36 l 25
8 56 m 25
 44 56 l 25
 44 48 l 25
 8 48 l 25
 8 56 l 25
EndSplineSet
Ligature2: "Glyph Composition" Lx LcombMean
EndChar

StartChar: LyMean
Encoding: 204 563 204
AltUni2: 00f004.ffffffff.0
Width: 48
VWidth: 0
Flags: HMW
LayerCount: 2
Fore
SplineSet
8 40 m 25
 16 40 l 25
 16 32 l 25
 20 32 l 25
 20 24 l 25
 28 24 l 25
 28 32 l 25
 32 32 l 25
 32 40 l 25
 40 40 l 25
 40 32 l 25
 36 32 l 25
 36 24 l 25
 32 24 l 25
 32 16 l 25
 28 16 l 25
 28 8 l 25
 24 8 l 25
 24 4 l 25
 20 4 l 25
 20 0 l 25
 12 0 l 25
 12 4 l 25
 16 4 l 25
 16 8 l 25
 20 8 l 25
 20 16 l 25
 16 16 l 25
 16 24 l 25
 12 24 l 25
 12 32 l 25
 8 32 l 25
 8 40 l 25
4 56 m 25
 44 56 l 25
 44 48 l 25
 4 48 l 25
 4 56 l 25
EndSplineSet
EndChar

StartChar: LsupX
Encoding: 205 739 205
AltUni2: 00f006.ffffffff.0 0002df.ffffffff.0
Width: 48
VWidth: 0
Flags: HMW
LayerCount: 2
Fore
SplineSet
16 56 m 25
 24 56 l 25
 24 52 l 25
 28 52 l 25
 28 48 l 25
 32 48 l 25
 32 52 l 25
 36 52 l 25
 36 56 l 25
 44 56 l 25
 44 48 l 25
 40 48 l 25
 40 44 l 25
 36 44 l 25
 36 40 l 25
 40 40 l 25
 40 36 l 25
 44 36 l 25
 44 28 l 25
 36 28 l 25
 36 32 l 25
 32 32 l 25
 32 36 l 25
 28 36 l 25
 28 32 l 25
 24 32 l 25
 24 28 l 25
 16 28 l 25
 16 36 l 25
 20 36 l 25
 20 40 l 25
 24 40 l 25
 24 44 l 25
 20 44 l 25
 20 48 l 25
 16 48 l 25
 16 56 l 25
EndSplineSet
EndChar

StartChar: Lellipsis
Encoding: 206 8230 206
Width: 48
VWidth: 0
Flags: HMW
LayerCount: 2
Fore
SplineSet
36 8 m 25
 44 8 l 25
 44 0 l 25
 36 0 l 25
 36 8 l 25
20 8 m 25
 28 8 l 25
 28 0 l 25
 20 0 l 25
 20 8 l 25
4 8 m 25
 12 8 l 25
 12 0 l 25
 4 0 l 25
 4 8 l 25
EndSplineSet
EndChar

StartChar: Lleft
Encoding: 207 128896 207
AltUni2: 00f00b.ffffffff.0
Width: 48
VWidth: 0
Flags: HMW
LayerCount: 2
Fore
SplineSet
32 52 m 1
 36 52 l 25
 36 4 l 25
 32 4 l 25
 32 8 l 25
 28 8 l 25
 28 12 l 25
 24 12 l 25
 24 16 l 25
 20 16 l 25
 20 20 l 25
 16 20 l 25
 16 24 l 25
 12 24 l 1
 12 32 l 25
 16 32 l 25
 16 36 l 25
 20 36 l 25
 20 40 l 25
 24 40 l 25
 24 44 l 25
 28 44 l 25
 28 48 l 25
 32 48 l 25
 32 52 l 1
EndSplineSet
EndChar

StartChar: Lblock
Encoding: 208 9632 208
AltUni2: 000170.ffffffff.0
Width: 48
VWidth: 0
Flags: HMW
LayerCount: 2
Fore
SplineSet
4 40 m 25
 28 40 l 25
 28 16 l 25
 4 16 l 25
 4 40 l 25
EndSplineSet
EndChar

StartChar: Lper
Encoding: 209 8725 209
AltUni2: 00f023.ffffffff.0 00f00a.ffffffff.0
Width: 48
VWidth: 0
Flags: HMW
LayerCount: 2
Fore
SplineSet
32 56 m 25
 40 56 l 25
 40 48 l 25
 36 48 l 25
 36 40 l 25
 32 40 l 25
 32 32 l 25
 28 32 l 25
 28 24 l 25
 24 24 l 25
 24 16 l 25
 20 16 l 25
 20 8 l 25
 16 8 l 25
 16 0 l 25
 8 0 l 25
 8 8 l 25
 12 8 l 25
 12 16 l 25
 16 16 l 25
 16 24 l 25
 20 24 l 25
 20 32 l 25
 24 32 l 25
 24 40 l 25
 28 40 l 25
 28 48 l 25
 32 48 l 25
 32 56 l 25
EndSplineSet
EndChar

StartChar: Lhyphen
Encoding: 210 8208 210
AltUni2: 002013.ffffffff.0 002012.ffffffff.0 000159.ffffffff.0
Width: 48
VWidth: 0
Flags: HMW
LayerCount: 2
Fore
SplineSet
8 32 m 25
 40 32 l 25
 40 24 l 25
 8 24 l 25
 8 32 l 25
EndSplineSet
EndChar

StartChar: Larea
Encoding: 211 5310 211
AltUni2: 00f030.ffffffff.0
Width: 48
VWidth: 0
Flags: HMW
LayerCount: 2
Fore
SplineSet
12 56 m 25
 32 56 l 25
 32 52 l 25
 36 52 l 25
 36 40 l 25
 32 40 l 25
 32 36 l 25
 28 36 l 25
 28 32 l 25
 24 32 l 25
 24 28 l 25
 20 28 l 25
 20 24 l 25
 36 24 l 25
 36 16 l 25
 12 16 l 25
 12 28 l 25
 16 28 l 25
 16 32 l 25
 20 32 l 25
 20 36 l 25
 24 36 l 25
 24 40 l 25
 28 40 l 25
 28 48 l 25
 12 48 l 25
 12 56 l 25
EndSplineSet
EndChar

StartChar: Ltemp
Encoding: 212 730 212
Width: 48
VWidth: 0
Flags: HMW
LayerCount: 2
Fore
SplineSet
20 48 m 25
 20 40 l 25
 28 40 l 25
 28 48 l 25
 20 48 l 25
16 56 m 25
 32 56 l 25
 32 52 l 25
 36 52 l 25
 36 36 l 25
 32 36 l 25
 32 32 l 25
 16 32 l 25
 16 36 l 25
 12 36 l 25
 12 52 l 25
 16 52 l 25
 16 56 l 25
EndSplineSet
EndChar

StartChar: Lcube
Encoding: 213 179 213
AltUni2: 00f00d.ffffffff.0
Width: 48
VWidth: 0
Flags: HMW
LayerCount: 2
Fore
SplineSet
16 56 m 25
 28 56 l 25
 28 52 l 25
 32 52 l 25
 32 48 l 25
 36 48 l 25
 36 40 l 25
 32 40 l 25
 32 32 l 25
 36 32 l 25
 36 24 l 25
 32 24 l 25
 32 20 l 25
 28 20 l 25
 28 16 l 25
 16 16 l 25
 16 20 l 25
 12 20 l 25
 12 28 l 25
 16 28 l 25
 16 24 l 25
 28 24 l 25
 28 32 l 25
 20 32 l 25
 20 40 l 25
 28 40 l 25
 28 48 l 25
 16 48 l 25
 16 44 l 25
 12 44 l 25
 12 52 l 25
 16 52 l 25
 16 56 l 25
EndSplineSet
EndChar

StartChar: LimagI
Encoding: 215 119894 215
AltUni2: 01d4ee.ffffffff.0 01d4be.ffffffff.0 01d48a.ffffffff.0 00f02f.ffffffff.0 002148.ffffffff.0
Width: 48
VWidth: 0
Flags: HMW
LayerCount: 2
Fore
SplineSet
8 40 m 25
 24 40 l 25
 24 8 l 25
 28 8 l 25
 28 12 l 25
 32 12 l 25
 32 16 l 25
 40 16 l 25
 40 8 l 25
 36 8 l 25
 36 4 l 25
 32 4 l 25
 32 0 l 25
 24 0 l 25
 24 4 l 25
 20 4 l 25
 20 8 l 25
 16 8 l 25
 16 32 l 25
 8 32 l 25
 8 40 l 25
16 56 m 25
 24 56 l 25
 24 48 l 25
 16 48 l 25
 16 56 l 25
EndSplineSet
EndChar

StartChar: Lphat
Encoding: 216 61474 216
Width: 48
VWidth: 0
Flags: HMW
LayerCount: 2
Fore
SplineSet
20 56 m 25
 28 56 l 25
 28 52 l 25
 32 52 l 25
 32 48 l 25
 36 48 l 25
 36 44 l 25
 28 44 l 25
 28 48 l 25
 20 48 l 25
 20 44 l 25
 12 44 l 25
 12 48 l 25
 16 48 l 25
 16 52 l 25
 20 52 l 25
 20 56 l 25
20 32 m 25
 20 28 l 25
 16 28 l 25
 16 16 l 25
 20 16 l 25
 20 12 l 25
 28 12 l 25
 28 16 l 25
 32 16 l 25
 32 28 l 25
 28 28 l 25
 28 32 l 25
 20 32 l 25
8 36 m 25
 16 36 l 25
 16 32 l 25
 20 32 l 25
 20 36 l 25
 32 36 l 25
 32 32 l 25
 36 32 l 25
 36 28 l 25
 40 28 l 25
 40 16 l 25
 36 16 l 25
 36 12 l 25
 32 12 l 25
 32 8 l 25
 20 8 l 25
 20 12 l 25
 16 12 l 25
 16 0 l 25
 8 0 l 25
 8 36 l 25
EndSplineSet
LCarets2: 1 0
Ligature2: "Glyph Composition" Lp LcombCaret
EndChar

StartChar: Lchi
Encoding: 217 967 217
Width: 48
VWidth: 0
Flags: HMW
LayerCount: 2
Fore
SplineSet
12 52 m 25
 16 52 l 25
 16 48 l 25
 20 48 l 25
 20 44 l 25
 24 44 l 25
 24 40 l 25
 28 40 l 25
 28 44 l 25
 32 44 l 25
 32 48 l 25
 36 48 l 25
 36 52 l 25
 40 52 l 25
 40 44 l 25
 36 44 l 25
 36 40 l 25
 32 40 l 25
 32 32 l 25
 28 32 l 25
 28 20 l 25
 32 20 l 25
 32 8 l 25
 36 8 l 25
 36 12 l 25
 44 12 l 25
 44 8 l 25
 40 8 l 25
 40 4 l 25
 36 4 l 25
 36 0 l 25
 32 0 l 25
 32 4 l 25
 28 4 l 25
 28 8 l 25
 24 8 l 25
 24 16 l 25
 20 16 l 25
 20 12 l 25
 16 12 l 25
 16 4 l 25
 12 4 l 25
 12 0 l 25
 4 0 l 25
 4 4 l 25
 8 4 l 25
 8 12 l 25
 12 12 l 25
 12 20 l 25
 16 20 l 25
 16 24 l 25
 20 24 l 25
 20 36 l 25
 16 36 l 25
 16 44 l 25
 12 44 l 25
 12 40 l 25
 8 40 l 25
 8 36 l 25
 4 36 l 25
 4 44 l 25
 8 44 l 25
 8 48 l 25
 12 48 l 25
 12 52 l 25
EndSplineSet
EndChar

StartChar: LstatF
Encoding: 218 119813 218
AltUni2: 00f021.ffffffff.0
Width: 48
VWidth: 0
Flags: HMW
LayerCount: 2
Fore
SplineSet
4 56 m 25
 44 56 l 25
 44 40 l 25
 36 40 l 25
 36 48 l 25
 12 48 l 25
 12 32 l 25
 20 32 l 25
 20 40 l 25
 28 40 l 25
 28 16 l 25
 20 16 l 25
 20 24 l 25
 12 24 l 25
 12 0 l 25
 4 0 l 25
 4 56 l 25
EndSplineSet
EndChar

StartChar: Llne
Encoding: 219 8495 219
AltUni2: 01d4ee.ffffffff.0 01d486.ffffffff.0 01d452.ffffffff.0 00f03f.ffffffff.0 002147.ffffffff.0
Width: 48
VWidth: 0
Flags: HMW
LayerCount: 2
Fore
SplineSet
12 32 m 25
 12 24 l 25
 36 24 l 25
 36 32 l 25
 12 32 l 25
12 40 m 1
 36 40 l 25
 36 36 l 25
 40 36 l 25
 40 32 l 25
 44 32 l 25
 44 24 l 25
 40 24 l 25
 40 20 l 25
 36 20 l 25
 36 16 l 25
 12 16 l 25
 12 8 l 25
 32 8 l 25
 32 0 l 1
 12 0 l 25
 12 4 l 25
 8 4 l 25
 8 8 l 25
 4 8 l 25
 4 32 l 25
 8 32 l 25
 8 36 l 25
 12 36 l 25
 12 40 l 1
EndSplineSet
EndChar

StartChar: LlistL
Encoding: 220 671 220
AltUni2: 00230a.ffffffff.0
Width: 48
VWidth: 0
Flags: HMW
LayerCount: 2
Fore
SplineSet
20 40 m 25
 28 40 l 25
 28 8 l 25
 44 8 l 25
 44 0 l 25
 20 0 l 25
 20 40 l 25
EndSplineSet
EndChar

StartChar: LfinanN
Encoding: 221 120289 221
AltUni2: 00015a.ffffffff.0
Width: 48
VWidth: 0
Flags: HMW
LayerCount: 2
Fore
SplineSet
4 56 m 25
 12 56 l 25
 12 52 l 25
 16 52 l 25
 16 48 l 25
 20 48 l 25
 20 44 l 25
 24 44 l 25
 24 40 l 25
 28 40 l 25
 28 36 l 25
 32 36 l 25
 32 32 l 25
 36 32 l 25
 36 56 l 25
 44 56 l 25
 44 0 l 25
 36 0 l 25
 36 4 l 25
 32 4 l 25
 32 8 l 25
 28 8 l 25
 28 12 l 25
 24 12 l 25
 24 16 l 25
 20 16 l 25
 20 20 l 25
 16 20 l 25
 16 24 l 25
 12 24 l 25
 12 0 l 25
 4 0 l 25
 4 56 l 25
EndSplineSet
EndChar

StartChar: L2_r_paren
Encoding: 222 11817 222
AltUni2: 00015b.ffffffff.0
Width: 48
VWidth: 0
Flags: HMW
LayerCount: 2
Fore
SplineSet
20 56 m 25
 28 56 l 25
 28 52 l 25
 32 52 l 25
 32 48 l 25
 36 48 l 25
 36 44 l 25
 40 44 l 25
 40 40 l 25
 44 40 l 25
 44 16 l 25
 40 16 l 25
 40 12 l 25
 36 12 l 25
 36 8 l 25
 32 8 l 25
 32 4 l 25
 28 4 l 25
 28 0 l 25
 20 0 l 25
 20 4 l 25
 24 4 l 25
 24 8 l 25
 28 8 l 25
 28 12 l 25
 32 12 l 25
 32 16 l 25
 36 16 l 25
 36 40 l 25
 32 40 l 25
 32 44 l 25
 28 44 l 25
 28 48 l 25
 24 48 l 25
 24 52 l 25
 20 52 l 25
 20 56 l 25
4 56 m 25
 12 56 l 25
 12 52 l 25
 16 52 l 25
 16 48 l 25
 20 48 l 25
 20 44 l 25
 24 44 l 25
 24 40 l 25
 28 40 l 25
 28 16 l 25
 24 16 l 25
 24 12 l 25
 20 12 l 25
 20 8 l 25
 16 8 l 25
 16 4 l 25
 12 4 l 25
 12 0 l 25
 4 0 l 25
 4 4 l 25
 8 4 l 25
 8 8 l 25
 12 8 l 25
 12 12 l 25
 16 12 l 25
 16 16 l 25
 20 16 l 25
 20 40 l 25
 16 40 l 25
 16 44 l 25
 12 44 l 25
 12 48 l 25
 8 48 l 25
 8 52 l 25
 4 52 l 25
 4 56 l 25
EndSplineSet
EndChar

StartChar: LblockArrow
Encoding: 223 129082 223
AltUni2: 01f83e.ffffffff.0 00f00f.ffffffff.0 002b95.ffffffff.0
Width: 48
VWidth: 0
Flags: HMW
LayerCount: 2
Fore
SplineSet
4 40 m 25
 12 40 l 25
 12 52 l 25
 16 52 l 25
 16 48 l 25
 20 48 l 25
 20 44 l 25
 24 44 l 25
 24 40 l 25
 28 40 l 25
 28 36 l 25
 32 36 l 25
 32 32 l 25
 36 32 l 25
 36 24 l 25
 32 24 l 25
 32 20 l 25
 28 20 l 25
 28 16 l 25
 24 16 l 25
 24 12 l 25
 20 12 l 25
 20 8 l 25
 16 8 l 25
 16 4 l 25
 12 4 l 25
 12 16 l 25
 4 16 l 25
 4 40 l 25
EndSplineSet
EndChar

StartChar: LcurO
Encoding: 224 9608 224
Width: 48
VWidth: 0
Flags: HMW
LayerCount: 2
Fore
SplineSet
4 56 m 25
 44 56 l 25
 44 0 l 25
 4 0 l 25
 4 56 l 25
EndSplineSet
EndChar

StartChar: LcurO2
Encoding: 225 -1 225
Width: 48
VWidth: 0
Flags: HMW
LayerCount: 2
Fore
SplineSet
20 48 m 25
 20 44 l 25
 16 44 l 25
 16 40 l 25
 12 40 l 25
 12 36 l 25
 8 36 l 25
 8 32 l 25
 4 32 l 25
 4 24 l 25
 12 24 l 25
 12 28 l 25
 16 28 l 25
 16 32 l 25
 20 32 l 25
 20 0 l 25
 28 0 l 25
 28 32 l 25
 32 32 l 25
 32 28 l 25
 36 28 l 25
 36 24 l 25
 44 24 l 25
 44 32 l 25
 40 32 l 25
 40 36 l 25
 36 36 l 25
 36 40 l 25
 32 40 l 25
 32 44 l 25
 28 44 l 25
 28 48 l 25
 20 48 l 25
4 56 m 25
 44 56 l 25
 44 0 l 25
 4 0 l 25
 4 56 l 25
EndSplineSet
Ligature2: "Glyph Composition" LupArrow LcombCurO
EndChar

StartChar: LcurOcapA
Encoding: 226 -1 226
Width: 48
VWidth: 0
Flags: HMW
LayerCount: 2
Fore
SplineSet
20 36 m 25
 28 36 l 25
 28 24 l 25
 20 24 l 25
 20 36 l 25
20 44 m 25
 20 40 l 25
 16 40 l 25
 16 36 l 25
 12 36 l 25
 12 8 l 25
 20 8 l 25
 20 20 l 25
 28 20 l 25
 28 8 l 25
 36 8 l 25
 36 36 l 25
 32 36 l 25
 32 40 l 25
 28 40 l 25
 28 44 l 25
 20 44 l 25
4 56 m 25
 44 56 l 25
 44 0 l 25
 4 0 l 25
 4 56 l 25
EndSplineSet
Ligature2: "Glyph Composition" LcapA LcombCurO
EndChar

StartChar: LcurOa
Encoding: 227 -1 227
Width: 48
VWidth: 0
Flags: HMW
LayerCount: 2
Fore
SplineSet
20 24 m 29
 28 24 l 29
 28 16 l 29
 20 16 l 29
 20 24 l 29
20 44 m 29
 20 40 l 29
 16 40 l 29
 16 36 l 29
 28 36 l 29
 28 32 l 29
 20 32 l 29
 20 28 l 29
 16 28 l 29
 16 24 l 29
 12 24 l 29
 12 12 l 29
 16 12 l 29
 16 8 l 29
 36 8 l 29
 36 40 l 29
 32 40 l 29
 32 44 l 29
 20 44 l 29
4 56 m 25
 44 56 l 25
 44 0 l 25
 4 0 l 25
 4 56 l 25
EndSplineSet
Ligature2: "Glyph Composition" La LcombCurO
EndChar

StartChar: LcombCurI
Encoding: 228 818 228
Width: 0
VWidth: 0
Flags: HMW
LayerCount: 2
Fore
SplineSet
-44 8 m 25
 -4 8 l 25
 -4 0 l 25
 -44 0 l 25
 -44 8 l 25
EndSplineSet
EndChar

StartChar: LcurI2
Encoding: 229 -1 229
Width: 48
VWidth: 0
Flags: HMW
LayerCount: 2
Fore
SplineSet
4 8 m 25
 44 8 l 25
 44 0 l 25
 4 0 l 25
 4 8 l 25
20 56 m 25
 28 56 l 25
 28 52 l 25
 32 52 l 25
 32 48 l 25
 36 48 l 25
 36 44 l 25
 40 44 l 25
 40 40 l 25
 44 40 l 25
 44 32 l 25
 36 32 l 25
 36 36 l 25
 32 36 l 25
 32 40 l 25
 28 40 l 25
 28 16 l 25
 20 16 l 25
 20 40 l 25
 16 40 l 25
 16 36 l 25
 12 36 l 25
 12 32 l 25
 4 32 l 25
 4 40 l 25
 8 40 l 25
 8 44 l 25
 12 44 l 25
 12 48 l 25
 16 48 l 25
 16 52 l 25
 20 52 l 25
 20 56 l 25
EndSplineSet
Ligature2: "Glyph Composition" LupArrow LcombCurI
EndChar

StartChar: LcurIcapA
Encoding: 230 -1 230
Width: 48
VWidth: 0
Flags: HMW
LayerCount: 2
Fore
SplineSet
4 8 m 25
 44 8 l 25
 44 0 l 25
 4 0 l 25
 4 8 l 25
20 48 m 25
 20 36 l 25
 28 36 l 25
 28 48 l 25
 20 48 l 25
20 56 m 25
 28 56 l 25
 28 52 l 25
 32 52 l 25
 32 48 l 25
 36 48 l 25
 36 20 l 25
 28 20 l 25
 28 32 l 25
 20 32 l 25
 20 20 l 25
 12 20 l 25
 12 48 l 25
 16 48 l 25
 16 52 l 25
 20 52 l 25
 20 56 l 25
EndSplineSet
Ligature2: "Glyph Composition" LcapA LcombCurI
EndChar

StartChar: LcurIa
Encoding: 231 -1 231
Width: 48
VWidth: 0
Flags: HMW
LayerCount: 2
Fore
SplineSet
4 8 m 29
 44 8 l 25
 44 0 l 25
 4 0 l 25
 4 8 l 29
20 36 m 25
 20 28 l 25
 28 28 l 25
 28 36 l 25
 20 36 l 25
20 56 m 25
 32 56 l 25
 32 52 l 25
 36 52 l 25
 36 20 l 25
 16 20 l 25
 16 24 l 25
 12 24 l 25
 12 36 l 25
 16 36 l 25
 16 40 l 25
 20 40 l 25
 20 44 l 25
 28 44 l 25
 28 48 l 25
 16 48 l 25
 16 52 l 25
 20 52 l 25
 20 56 l 25
EndSplineSet
Ligature2: "Glyph Composition" La LcombCurI
EndChar

StartChar: LGline
Encoding: 232 9586 232
Width: 48
VWidth: 0
Flags: HMW
LayerCount: 2
Fore
SplineSet
4 52 m 25
 8 52 l 25
 8 48 l 25
 12 48 l 25
 12 44 l 25
 16 44 l 25
 16 40 l 25
 20 40 l 25
 20 36 l 25
 24 36 l 25
 24 32 l 25
 28 32 l 25
 28 28 l 25
 32 28 l 25
 32 24 l 25
 36 24 l 25
 36 20 l 25
 40 20 l 25
 40 16 l 25
 44 16 l 25
 44 4 l 25
 40 4 l 25
 40 8 l 25
 36 8 l 25
 36 12 l 25
 32 12 l 25
 32 16 l 25
 28 16 l 25
 28 20 l 25
 24 20 l 25
 24 24 l 25
 20 24 l 25
 20 28 l 25
 16 28 l 25
 16 32 l 25
 12 32 l 25
 12 36 l 25
 8 36 l 25
 8 40 l 25
 4 40 l 25
 4 52 l 25
EndSplineSet
EndChar

StartChar: LGthick
Encoding: 233 119311 233
Width: 48
VWidth: 0
Flags: HMW
LayerCount: 2
Fore
SplineSet
4 56 m 1
 8 56 l 25
 8 52 l 25
 12 52 l 25
 12 48 l 25
 16 48 l 25
 16 44 l 25
 20 44 l 25
 20 40 l 25
 24 40 l 25
 24 36 l 25
 28 36 l 25
 28 32 l 25
 32 32 l 25
 32 28 l 25
 36 28 l 25
 36 24 l 25
 40 24 l 25
 40 20 l 25
 44 20 l 1
 44 0 l 25
 40 0 l 25
 40 4 l 25
 36 4 l 25
 36 8 l 25
 32 8 l 25
 32 12 l 25
 28 12 l 25
 28 16 l 25
 24 16 l 25
 24 20 l 25
 20 20 l 25
 20 24 l 25
 16 24 l 25
 16 28 l 25
 12 28 l 25
 12 32 l 25
 8 32 l 25
 8 36 l 25
 4 36 l 25
 4 56 l 1
EndSplineSet
EndChar

StartChar: LGabove
Encoding: 234 9701 234
Width: 48
VWidth: 0
Flags: HMW
LayerCount: 2
Fore
SplineSet
4 56 m 25
 44 56 l 25
 44 12 l 25
 40 12 l 25
 40 16 l 25
 36 16 l 25
 36 20 l 25
 32 20 l 25
 32 24 l 25
 28 24 l 25
 28 28 l 25
 24 28 l 25
 24 32 l 25
 20 32 l 25
 20 36 l 25
 16 36 l 25
 16 40 l 25
 12 40 l 25
 12 44 l 25
 8 44 l 25
 8 48 l 25
 4 48 l 25
 4 56 l 25
EndSplineSet
EndChar

StartChar: LGbelow
Encoding: 235 9699 235
Width: 48
VWidth: 0
Flags: HMW
LayerCount: 2
Fore
SplineSet
44 0 m 25
 4 0 l 25
 4 44 l 25
 8 44 l 25
 8 40 l 25
 12 40 l 25
 12 36 l 25
 16 36 l 25
 16 32 l 25
 20 32 l 25
 20 28 l 25
 24 28 l 25
 24 24 l 25
 28 24 l 25
 28 20 l 25
 32 20 l 25
 32 16 l 25
 36 16 l 25
 36 12 l 25
 40 12 l 25
 40 8 l 25
 44 8 l 25
 44 0 l 25
EndSplineSet
EndChar

StartChar: LGpath
Encoding: 236 8888 236
Width: 48
VWidth: 0
Flags: HMW
LayerCount: 2
Fore
SplineSet
28 40 m 25
 28 16 l 25
 36 16 l 25
 36 40 l 25
 28 40 l 25
4 32 m 25
 20 32 l 25
 20 40 l 25
 24 40 l 25
 24 44 l 25
 28 44 l 25
 28 48 l 25
 36 48 l 25
 36 44 l 25
 40 44 l 25
 40 40 l 25
 44 40 l 25
 44 16 l 25
 40 16 l 25
 40 12 l 25
 36 12 l 25
 36 8 l 25
 28 8 l 25
 28 12 l 25
 24 12 l 25
 24 16 l 25
 20 16 l 25
 20 24 l 25
 4 24 l 25
 4 32 l 25
EndSplineSet
EndChar

StartChar: LGanimate
Encoding: 237 8728 237
Width: 48
VWidth: 0
Flags: HMW
LayerCount: 2
Fore
SplineSet
20 40 m 25
 20 16 l 25
 28 16 l 25
 28 40 l 25
 20 40 l 25
12 40 m 25
 16 40 l 25
 16 44 l 25
 20 44 l 25
 20 48 l 25
 28 48 l 25
 28 44 l 25
 32 44 l 25
 32 40 l 25
 36 40 l 25
 36 16 l 25
 32 16 l 25
 32 12 l 25
 28 12 l 25
 28 8 l 25
 20 8 l 25
 20 12 l 25
 16 12 l 25
 16 16 l 25
 12 16 l 25
 12 40 l 25
EndSplineSet
EndChar

StartChar: LGdot
Encoding: 238 8945 238
Width: 48
VWidth: 0
Flags: HMW
LayerCount: 2
Fore
SplineSet
36 16 m 25
 44 16 l 25
 44 8 l 25
 36 8 l 25
 36 16 l 25
20 32 m 25
 28 32 l 25
 28 24 l 25
 20 24 l 25
 20 32 l 25
4 48 m 25
 12 48 l 25
 12 40 l 25
 4 40 l 25
 4 48 l 25
EndSplineSet
EndChar

StartChar: LUpBlk
Encoding: 239 129093 239
AltUni2: 01f841.ffffffff.0
Width: 48
VWidth: 0
Flags: HMW
LayerCount: 2
Fore
SplineSet
20 56 m 25
 28 56 l 25
 28 52 l 25
 32 52 l 25
 32 48 l 25
 36 48 l 25
 36 44 l 25
 40 44 l 25
 40 40 l 25
 44 40 l 25
 44 32 l 25
 36 32 l 25
 36 8 l 25
 12 8 l 25
 12 32 l 25
 4 32 l 25
 4 40 l 25
 8 40 l 25
 8 44 l 25
 12 44 l 25
 12 48 l 25
 16 48 l 25
 16 52 l 25
 20 52 l 25
 20 56 l 25
EndSplineSet
EndChar

StartChar: LDnBlk
Encoding: 240 129095 240
AltUni2: 01f843.ffffffff.0
Width: 48
VWidth: 0
Flags: HMW
LayerCount: 2
Fore
SplineSet
28 0 m 25
 20 0 l 25
 20 4 l 25
 16 4 l 25
 16 8 l 25
 12 8 l 25
 12 12 l 25
 8 12 l 25
 8 16 l 25
 4 16 l 25
 4 24 l 25
 12 24 l 25
 12 48 l 25
 36 48 l 25
 36 24 l 25
 44 24 l 25
 44 16 l 25
 40 16 l 25
 40 12 l 25
 36 12 l 25
 36 8 l 25
 32 8 l 25
 32 4 l 25
 28 4 l 25
 28 0 l 25
EndSplineSet
EndChar

StartChar: LcurFull
Encoding: 241 9617 241
Width: 48
VWidth: 0
Flags: HMW
LayerCount: 2
Fore
SplineSet
36 8 m 25
 44 8 l 25
 44 0 l 25
 36 0 l 25
 36 8 l 25
20 8 m 25
 28 8 l 25
 28 0 l 25
 20 0 l 25
 20 8 l 25
4 8 m 25
 12 8 l 25
 12 0 l 25
 4 0 l 25
 4 8 l 25
28 16 m 25
 36 16 l 25
 36 8 l 25
 28 8 l 25
 28 16 l 25
12 16 m 25
 20 16 l 25
 20 8 l 25
 12 8 l 25
 12 16 l 25
36 24 m 25
 44 24 l 25
 44 16 l 25
 36 16 l 25
 36 24 l 25
20 24 m 25
 28 24 l 25
 28 16 l 25
 20 16 l 25
 20 24 l 25
4 24 m 25
 12 24 l 25
 12 16 l 25
 4 16 l 25
 4 24 l 25
28 32 m 25
 36 32 l 25
 36 24 l 25
 28 24 l 25
 28 32 l 25
12 32 m 25
 20 32 l 25
 20 24 l 25
 12 24 l 25
 12 32 l 25
36 40 m 25
 44 40 l 25
 44 32 l 25
 36 32 l 25
 36 40 l 25
20 40 m 25
 28 40 l 25
 28 32 l 25
 20 32 l 25
 20 40 l 25
4 40 m 25
 12 40 l 25
 12 32 l 25
 4 32 l 25
 4 40 l 25
28 48 m 25
 36 48 l 25
 36 40 l 25
 28 40 l 25
 28 48 l 25
12 48 m 25
 20 48 l 25
 20 40 l 25
 12 40 l 25
 12 48 l 25
36 56 m 25
 44 56 l 25
 44 48 l 25
 36 48 l 25
 36 56 l 25
20 56 m 25
 28 56 l 25
 28 48 l 25
 20 48 l 25
 20 56 l 25
4 56 m 25
 12 56 l 25
 12 48 l 25
 4 48 l 25
 4 56 l 25
EndSplineSet
EndChar

StartChar: Lfourth
Encoding: 242 8308 242
Width: 48
VWidth: 0
Flags: HMW
LayerCount: 2
Fore
SplineSet
20 44 m 25
 20 40 l 25
 16 40 l 25
 16 36 l 25
 24 36 l 25
 24 44 l 25
 20 44 l 25
24 56 m 25
 32 56 l 25
 32 36 l 25
 36 36 l 25
 36 28 l 25
 32 28 l 25
 32 20 l 25
 24 20 l 25
 24 28 l 25
 8 28 l 25
 8 40 l 25
 12 40 l 25
 12 44 l 25
 16 44 l 25
 16 48 l 25
 20 48 l 25
 20 52 l 25
 24 52 l 25
 24 56 l 25
EndSplineSet
EndChar

StartChar: Lsup1
Encoding: 243 185 243
Width: 48
VWidth: 0
Flags: HMW
LayerCount: 2
Fore
SplineSet
4 48 m 25
 8 48 l 25
 8 52 l 25
 12 52 l 25
 12 56 l 1
 20 56 l 25
 20 28 l 1
 28 28 l 25
 28 20 l 25
 4 20 l 25
 4 28 l 25
 12 28 l 25
 12 44 l 25
 4 44 l 25
 4 48 l 25
EndSplineSet
EndChar

StartChar: Leszett
Encoding: 244 223 244
Width: 48
VWidth: 0
Flags: HMW
LayerCount: 2
Fore
SplineSet
8 52 m 25
 32 52 l 25
 32 48 l 25
 36 48 l 25
 36 32 l 25
 32 32 l 25
 32 24 l 25
 36 24 l 25
 36 20 l 25
 40 20 l 25
 40 16 l 25
 44 16 l 25
 44 4 l 25
 40 4 l 25
 40 0 l 25
 24 0 l 25
 24 4 l 25
 20 4 l 25
 20 12 l 25
 28 12 l 25
 28 8 l 25
 36 8 l 25
 36 16 l 25
 32 16 l 25
 32 20 l 25
 28 20 l 25
 28 24 l 25
 20 24 l 25
 20 32 l 25
 28 32 l 25
 28 44 l 25
 12 44 l 25
 12 0 l 25
 4 0 l 25
 4 48 l 25
 8 48 l 25
 8 52 l 25
EndSplineSet
EndChar

StartChar: LopenBox
Encoding: 245 9251 245
Width: 48
VWidth: 0
Flags: HMW
LayerCount: 2
Fore
SplineSet
4 24 m 25
 12 24 l 25
 12 8 l 25
 36 8 l 25
 36 24 l 25
 44 24 l 25
 44 0 l 25
 4 0 l 25
 4 24 l 25
EndSplineSet
EndChar

StartChar: LfracSlash
Encoding: 246 8260 246
AltUni2: 00f01e.ffffffff.0
Width: 48
VWidth: 0
Flags: HMW
LayerCount: 2
Fore
SplineSet
44 52 m 1
 44 36 l 1
 40 36 l 25
 40 32 l 25
 36 32 l 25
 36 28 l 25
 32 28 l 25
 32 24 l 25
 28 24 l 25
 28 20 l 25
 24 20 l 25
 24 16 l 25
 20 16 l 25
 20 12 l 25
 16 12 l 25
 16 8 l 25
 12 8 l 25
 12 4 l 25
 8 4 l 25
 8 0 l 25
 4 0 l 1
 4 16 l 1
 8 16 l 25
 8 20 l 25
 12 20 l 25
 12 24 l 25
 16 24 l 25
 16 28 l 25
 20 28 l 25
 20 32 l 25
 24 32 l 25
 24 36 l 25
 28 36 l 25
 28 40 l 25
 32 40 l 25
 32 44 l 25
 36 44 l 25
 36 48 l 25
 40 48 l 25
 40 52 l 1
 44 52 l 1
EndSplineSet
EndChar

StartChar: LcurOutline
Encoding: 247 11034 247
Width: 48
VWidth: 0
Flags: HMW
LayerCount: 2
Fore
SplineSet
36 8 m 25
 44 8 l 25
 44 0 l 25
 36 0 l 25
 36 8 l 25
20 8 m 25
 28 8 l 25
 28 0 l 25
 20 0 l 25
 20 8 l 25
4 8 m 25
 12 8 l 25
 12 0 l 25
 4 0 l 25
 4 8 l 25
36 24 m 25
 44 24 l 25
 44 16 l 25
 36 16 l 25
 36 24 l 25
4 24 m 25
 12 24 l 25
 12 16 l 25
 4 16 l 25
 4 24 l 25
36 40 m 25
 44 40 l 25
 44 32 l 25
 36 32 l 25
 36 40 l 25
4 40 m 25
 12 40 l 25
 12 32 l 25
 4 32 l 25
 4 40 l 25
36 56 m 25
 44 56 l 25
 44 48 l 25
 36 48 l 25
 36 56 l 25
20 56 m 25
 28 56 l 25
 28 48 l 25
 20 48 l 25
 20 56 l 25
4 56 m 25
 12 56 l 25
 12 48 l 25
 4 48 l 25
 4 56 l 25
EndSplineSet
EndChar

StartChar: LGthickDot
Encoding: 248 6686 248
Width: 48
VWidth: 0
Flags: HMW
LayerCount: 2
Fore
SplineSet
32 16 m 25
 44 16 l 25
 44 4 l 25
 32 4 l 25
 32 16 l 25
20 32 m 25
 32 32 l 25
 32 20 l 25
 20 20 l 25
 20 32 l 25
8 48 m 25
 20 48 l 25
 20 36 l 25
 8 36 l 25
 8 48 l 25
EndSplineSet
EndChar

StartChar: Ldot
Encoding: 249 8228 249
Width: 48
VWidth: 0
Flags: HMW
LayerCount: 2
Fore
SplineSet
20 24 m 25
 28 24 l 25
 28 16 l 25
 20 16 l 25
 20 24 l 25
EndSplineSet
EndChar

StartChar: LcombAcute
Encoding: 250 769 250
Width: 0
VWidth: 0
Flags: HMW
LayerCount: 2
Fore
SplineSet
-20 56 m 25
 -12 56 l 25
 -12 52 l 25
 -16 52 l 25
 -16 48 l 25
 -20 48 l 25
 -20 44 l 25
 -28 44 l 25
 -28 48 l 25
 -24 48 l 25
 -24 52 l 25
 -20 52 l 25
 -20 56 l 25
EndSplineSet
EndChar

StartChar: LcombGrave
Encoding: 251 768 251
Width: 0
VWidth: 0
Flags: HMW
LayerCount: 2
Fore
SplineSet
-28 56 m 25
 -28 52 l 25
 -24 52 l 25
 -24 48 l 25
 -20 48 l 25
 -20 44 l 25
 -28 44 l 25
 -28 48 l 25
 -32 48 l 25
 -32 52 l 25
 -36 52 l 25
 -36 56 l 25
 -28 56 l 25
EndSplineSet
EndChar

StartChar: LcombCaret
Encoding: 252 770 252
Width: 0
VWidth: 0
Flags: HMW
LayerCount: 2
Fore
SplineSet
-28 56 m 25
 -20 56 l 25
 -20 52 l 25
 -16 52 l 25
 -16 48 l 25
 -12 48 l 25
 -12 44 l 25
 -20 44 l 25
 -20 48 l 25
 -28 48 l 25
 -28 44 l 25
 -36 44 l 25
 -36 48 l 25
 -32 48 l 25
 -32 52 l 25
 -28 52 l 25
 -28 56 l 25
EndSplineSet
EndChar

StartChar: LcombDier
Encoding: 253 776 253
Width: 0
VWidth: 0
Flags: HMW
LayerCount: 2
Fore
SplineSet
-20 56 m 25
 -12 56 l 25
 -12 48 l 25
 -20 48 l 25
 -20 56 l 25
-36 56 m 25
 -28 56 l 25
 -28 48 l 25
 -36 48 l 25
 -36 56 l 25
EndSplineSet
EndChar

StartChar: LcombTilde
Encoding: 254 771 254
Width: 0
VWidth: 0
Flags: HMW
LayerCount: 2
Fore
SplineSet
-40 52 m 25
 -36 52 l 25
 -36 56 l 25
 -24 56 l 25
 -24 52 l 25
 -20 52 l 25
 -20 48 l 25
 -16 48 l 25
 -16 52 l 25
 -8 52 l 25
 -8 48 l 25
 -12 48 l 25
 -12 44 l 25
 -24 44 l 25
 -24 48 l 25
 -28 48 l 25
 -28 52 l 25
 -32 52 l 25
 -32 48 l 25
 -40 48 l 25
 -40 52 l 25
EndSplineSet
EndChar

StartChar: LcombMean
Encoding: 255 772 255
Width: 0
VWidth: 0
Flags: HMW
LayerCount: 2
Fore
SplineSet
-44 56 m 25
 -4 56 l 25
 -4 48 l 25
 -44 48 l 25
 -44 56 l 25
EndSplineSet
EndChar

StartChar: LcombCurO
Encoding: 256 8414 256
Width: 0
VWidth: 0
Flags: HMW
LayerCount: 2
Fore
SplineSet
-44 56 m 1
 -44 0 l 1
 -4 0 l 1
 -4 56 l 1
 -44 56 l 1
-48 60 m 1
 0 60 l 1
 0 -4 l 1
 -48 -4 l 1
 -48 60 l 1
EndSplineSet
EndChar
